<?xml version="1.0" encoding="utf-8"?>
<svg viewBox="0 0 100 100" xmlns="http://www.w3.org/2000/svg">
    <defs>
        <clipPath id="prefix__a">
            <path clipRule="evenodd" d="M0 724v416h1070V724H0z" />
        </clipPath>
        <clipPath id="prefix__b">
            <path
                    clipRule="evenodd"
                    d="M183.082.004h703.832v618.148H183.082V.004z"
            />
        </clipPath>
        <clipPath id="prefix__c">
            <path
                    clipRule="evenodd"
                    d="M183.082.004h703.832v618.148H183.082V.004z"
            />
        </clipPath>
    </defs>
    <g
            clipPath="url(#prefix__a)"
            transform="matrix(.66667 0 0 -.66667 .833 760)"
    >
        <path
                d="M126.375 780.887v.523c-.523 0-.523-.523-1.047-.523 0 0 0-.528.524-.528l.523.528zm3.211 14.625c-.523.523-1.047 1.051 0 2.699zm8.586 14.551c0-.528.598 0 .598 0-.598 0-.598 0-1.122.523 0-.523.524-.523.524-.523zm1.644 3.222v1.125h-1.046c0-.597 0-.597.523-1.125 0 0 0-.523.523-.523zm27.93 48.602h.598v.527zm125.309 199.273c-.524 0-.524 0-.524.53h.524zm111.867 33.46c0 .59-.598.59-.598.59 0-.59.598-.59.598-.59zm-.598 1.12s0-.53-.523-.53h.523zm7.02 0c.523 0 1.047 0 1.644.53h-1.644zm-3.211 0l-.524.53v-.53zm72.586 26.47c-5.375-1.64-10.754-1.64-16.653-2.17-4.332 0-9.183 0-13.441-1.65-2.164-.52-4.855-.52-7.02-.52-7.542 0-15.609-1.05-23.152-1.66-8.586-.52-16.652-1.57-25.238-2.69-8.59-1.06-17.176-1.58-25.84-3.23-9.633-2.17-19.34-3.22-28.453-4.27-13.965-2.18-28.004-4.88-41.969-6-3.734-.53-7.543-1.58-11.277-2.11-5.375-.59-10.231-1.12-15.082-2.17-2.692-.53-5.379-1.12-8.067 0v11.33c.598 2.17 0 3.75-1.047 4.87-5.375 8.63-13.441 13.5-23.148 16.2-1.57.52-3.211-.52-3.734-2.18-.524-2.17-1.047-3.75-2.164-5.39-2.692-6.45-5.379-12.45-8.59-18.91-2.688-6.45-5.375-12.97-8.586-19.42l-8.59-1.65c-10.23-2.18-20.461-4.88-30.168-6.98-15.535-3.82-31.141-7.57-46.75-11.4l-31.738-8.1c-14.489-3.75-28.453-8.09-42.492-13.5-14.489-5.4-28.977-10.2-43.016-17.25-1.566-.52-3.211-1.65-4.777-1.05-3.286.53-5.977-1.65-9.188-1.65-1.043-3.22-.52-5.92 1.121-8.1 1.047-1.65 2.09-3.22 1.57-4.87-.523-.53 0-1.58.52-2.7 1.121-2.7 10.234-11.85 12.922-12.974 6.496-2.102 13.441-3.75 20.46-5.926h2.688c4.856 0 9.114-1.051 13.442 0 3.734 0 7.543.523 11.277 2.176 11.8 4.347 24.195 7.574 36.594 10.797 11.797 2.707 23.074 7.047 34.351 10.797 4.332 1.66 9.184 3.23 13.442 5.41 1.121 1.04 2.687 1.04 4.332 1.64 1.64 0 3.734-.6 5.375 0 2.168.53 3.211 1.58 4.855 2.7.524 0 1.047.53 1.567.53 4.332.52 8.066 3.22 12.922 3.22 1.121 0 2.164.53 3.211 1.05 4.332 2.18 9.183 2.18 13.441 3.83.598 0 1.121-.53 1.644-.53 0-1.12-.523-2.17-1.046-3.82-1.645-4.28-3.809-9.15-5.973-14.03-7.469-16.72-13.445-34.047-21.508-50.77-.523-1.052-1.047-2.177-1.047-2.703-.523-4.274-2.687-8.098-4.332-12.375l-4.777-11.4c-4.332-10.198-8.664-21.6-12.922-33.448-4.328-12.453-9.184-24.828-14.563-37.801-2.089-5.925-4.777-12.976-7.464-18.902-2.168-5.398-3.289-10.801-5.977-16.2-.523-.523-.523-1.05-.523-1.648-1.043-5.402-3.211-10.203-4.852-15.078-1.047-2.172-1.57-4.875-2.094-7.047-2.164-9.675-3.285-19.425-7.019-28.578-1.641-3.824-2.688-8.7-3.211-12.972-.52-4.875 1.047-9.75-2.164-14.625v-1.051c0-5.403 0-10.801-2.688-15.676-.523-1.574 0-3.75 0-5.402h1.64c4.782 1.652 9.114 4.35 11.278 9.226 2.164 2.102 1.571 4.8 2.688 6.977.523 2.699 2.168 4.875 2.168 7.574.523 2.176 2.687 4.352 1.566 7.05 2.168 4.274 2.168 8.626 5.379 12.376 1.641 1.125 2.688 3.222 2.688 4.875 0 1.648 0 3.222 1.121 4.875.519.523 0 1.05 0 1.574 0 2.699.519 4.875 2.687 6.523 0 .528 1.047 1.05 1.047 1.579-1.047 3.824 1.641 5.398 3.211 8.097 2.164 3.3 3.211 6.528 4.328 10.278.524 2.175 1.047 4.347 3.211 5.398 0 1.652 0 3.227 1.645 3.824 0 .528.523 1.05.523 2.102.523-1.051.523-1.574.523-1.574.524 0 1.043.523 1.641 1.05l9.633 18.375c1.121 2.7 1.644 4.875 4.332 6.45 1.047.597 2.168 2.175 2.687 3.824 1.571 5.398 4.856 9.148 6.946 14.027.597 1.047 1.121 2.698 2.691 3.223 0 2.699 1.117 4.35 2.688 5.926 1.64 3.3 4.332 6 5.972 9.226 3.211 6.973 8.067 13.5 12.324 19.949 4.333 6.524 9.184 12.973 10.231 21.075 0 .527.523 1.05.523 1.652 3.809 5.398 6.496 10.797 10.231 15.598 4.332 5.402 8.062 11.402 10.754 17.324l6.422 13.5c2.687 3.75 4.332 8.1 6.496 12.379 2.164 4.875 3.734 10.273 6.422 15.672l3.211 8.622c1.121 3.3 2.687 6.53 3.285 9.75l1.57 4.35c1.641 4.8 3.211 9.68 4.852 15.08l2.168 8.62c2.164 1.13 4.257 2.18 5.898 3.3 8.59 3.23 17.176 6.98 25.242 10.2 4.856 2.18 9.184 3.3 14.039 5.41 0 0 0 .59.524.59-1.645 1.05-4.332 0-4.856 2.71 7.543 2.09 14.488 4.27 21.508 6.97 3.734 1.12 7.543 2.17 11.277 2.7 5.899 1.65 11.278 3.83 17.25 5.92 5.375 2.18 10.754 3.83 15.532 6.53 3.289 2.18 7.019 3.22 10.754 3.75 6.5 1.65 13.441 2.7 20.464 3.83 4.328.52 7.539 2.1 11.274 2.69-1.567 1.58-3.735 1.58-5.375.53-2.168-.53-3.735-.53-5.379.53 4.332 1.64 9.187 2.17 13.965 2.69 2.691.53 5.976.53 8.664 1.66 6.422 1.04 12.32 3.22 18.82 3.75.52 0 2.09 0 2.09.52 1.641 1.65 3.285 1.65 5.375 2.18 3.289 1.05 6.5 2.7 9.711 3.75 4.328 3.3 9.109 3.82 13.965 5.39 5.898 1.13 11.273 3.31 16.652 4.88 0 0 0 .53.598 1.12zM307.543 983.914c2.164-5.398-1.57-8.625-3.734-11.851-4.856-8.625-10.754-16.723-21.508-19.95-1.645 5.399 0 9.149 2.687 12.375 3.735 4.352 7.543 8.102 11.801 11.926 3.285 2.699 5.375 6.449 10.754 7.5zm63.996-174.902c2.168 2.699 2.168 5.398 4.332 6.976 3.211 2.172 2.692 4.875 4.258 7.047 1.121 2.176 1.121 4.875 2.164 6.977 5.902 8.101 8.066 16.801 13.445 25.426 4.852 10.8 9.184 16.726 13.442 29.175 2.164 6.45 1.64 12.899 5.375 17.774 4.855 6.527 1.121 9.75 6.496 14.625 1.57 7.5 1.57 12.902 5.902 18.301.524 1.125.524 2.175 1.043 3.3l-3.734 2.102c-1.641 0-1.641 0-2.688.598-5.375-2.176-5.898-6-8.062-9.75-5.903-10.274-8.59-15.149-12.922-24.301l-10.754-23.774c-2.164-4.875-3.734-9.675-7.543-13.5-2.164-2.175-2.164-4.875-3.73-6.976-2.692 1.051-1.645-3.824-3.809-8.098L364 835.41c-3.211-5.398-6.945-11.324-12.848-15.597-.597 1.574-1.117 2.699-1.117 3.75-1.047 9.148-1.047 17.847-.523 27 .523 3.222 1.043 5.925 1.043 9.148 0 12.977 2.691 19.5 5.379 31.875 2.164 8.102 4.855 15.676 5.972 19.426 1.047 4.351 1.571 7.578 2.692 8.703 4.777 4.797 1.043 12.898-4.856 17.25-4.332 3.75-8.59 7.047-13.441 9.148-1.645.602-3.211 1.649-4.856 1.649-6.422 1.051-12.918 1.051-19.34 2.176-1.121 0-2.691 0-3.808.527 1.117 3.223 2.164 5.922 2.687 8.625.598 3.824 1.641 7.574 3.286 11.922 1.046 3.754 1.57 8.101 2.089 12.38.598 4.346-1.566 8.096-4.777 10.796-3.809 3.226-7.543 5.402-11.875 6.522-3.211 1.06-6.422 1.06-9.633 2.1-5.375 1.65-10.23.6-14.562-2.7-8.067-5.922-8.067-5.922-17.176-18.297-1.121-1.125-1.121-1.125-1.645-3.297-5.375-14.028-2.687-11.852-1.566-25.352 2.688-3.75 2.09-8.101 5.375-11.851 4.781-4.348 3.734-8.7 9.113-12.45 8.586-6.449 18.817-7.574 29.047-7.574 5.379 2.176 11.278 0 17.699 0-9.109-16.203-8.062-12.375-20.386-49.652-2.688-7.574-4.852-19.426-5.375-32.399 0-7.05 1.043-14.027 1.566-20.55 2.168-10.801 3.809-17.25 14.039-22.653 3.211-1.648 6.945-3.222 10.156-5.398 5.379-3.824 10.754-2.699 16.133-.528 4.332 1.579 8.66 3.227 12.395 5.403 4.855 2.101 10.23 5.926 13.441 9.676 0 .523 3.211 1.648 3.211 3.824zm93.574 110.101a54.978 54.978 0 00-5.898-9.152c-9.711-13.5-20.465-26.473-30.695-39.973-5.375-7.574-11.278-14.55-17.7-22.652-.519 1.574-1.117 2.176-1.117 2.699 1.641 10.801 3.285 21.602 7.02 32.403 8.062 22.648 21.504 42.074 37.113 60.449 3.211 3.226 5.898 7.578 10.23 10.277 1.571 1.051 3.211 3.223 4.258 4.875 2.688 0 4.332-1.652 4.852-3.824a261.952 261.952 0 001.644-6.977zm109.18 38.399c-5.379.527-10.754-1.125-14.563-5.399-4.855-5.398-9.113-11.925-12.324-18.375-4.85-9.75-10.23-18.898-17.25-27.527L495.73 863.54c-4.257-5.402-9.632-10.277-13.964-15.152-1.047-1.051-2.688-1.574-3.735-2.699-1.64 6.523-.523 11.925-.523 17.324 0 2.699 1.047 5.402 2.094 8.101 3.808 14.024 7.019 27.524 11.347 41.024 3.215 11.328 6.946 22.125 10.754 33.453 1.57 4.875 2.692 9.75 0 14.023.524 1.125 1.047 1.649 1.047 2.7 3.211 8.699 1.645 14.101-6.422 17.851-3.808 2.176-7.543 3.227-11.351 4.875-3.735 1.051-7.469 3.75-10.754 2.176-4.778-2.176-8.067 0-11.797.523-.524 0-1.645 0-2.692-.523l-5.375-1.652c-.523-3.223-.523-5.922-3.734-7.047h.523c-.523 0-1.121-.528-1.644-.528l-.524.528c-1.042-.528-2.164-1.05-2.687-1.578-.523-1.649 0-3.223-2.164-4.348-1.57-1.05-2.688-3.227-3.734-4.277-4.332-4.348-7.02-9.75-11.875-12.973-.524-.527-1.043-1.652-1.567-2.703-2.168-3.223-3.808-7.047-5.379-10.274-5.375-7.574-9.707-16.199-17.773-22.125-.524-1.125-1.043-2.175-1.567-2.699-2.687-4.875-5.379-9.75-5.976-15.676-.52-3.75-1.567-8.1-4.778-10.8h.524c-.524-2.7-.524-6.45-3.211-7.575-4.855-1.574-5.977-5.402-7.543-9.152-1.121-2.699-2.687-5.922-3.809-8.098 0-2.699.598-5.402 0-8.1 0-3.825-1.046-8.103-1.57-11.927-.523-6.973.524-14.023 6.422-18.898 3.809-2.7 8.066-5.926 12.398-8.102 6.422-3.223 12.918-4.273 20.387 0 5.973 3.824 10.754 8.102 15.086 14.102l16.129 23.175c1.047 1.649 1.645 3.825 4.332 4.875 1.047-9.152 1.566-18.375 2.688-28.652 3.21-2.098 6.945-5.398 10.753-7.5 6.946-4.348 13.442-4.875 20.387 0 5.902 4.277 10.231 9.676 15.61 15.074 8.066 8.102 13.441 16.203 19.863 25.426l19.418 27.527c8.062 11.325 14.484 22.125 22.551 33.45 5.898 8.625 9.707 18.902 15.609 28.652-1.645.523-2.168 2.172-3.211 2.172zm35.473-34.047v.523c-3.809-4.875-8.59-8.625-14.563-11.324-3.734-1.051-6.945-3.75-10.156-5.402-6.5-2.699-12.922-3.223-19.418-5.399-1.566 1.65 0 2.7.598 3.223 5.375 6.527 11.8 11.926 18.82 17.328 5.898 4.801 15.531 10.2 18.816 11.848 6.946 3.226 13.965 7.051 21.508 10.277 1.57.524 3.211.524 5.38.524-2.692-5.926-7.021-10.274-11.876-14.024zm48.914 32.398c-2.692 1.649-5.379 3.227-8.067 4.352-13.44 4.273-27.406 3.223-40.328-2.703-11.273-4.875-22.551-10.274-32.781-17.324-.524-.524-1.645-.524-3.211-1.051 0 2.176.523 3.226.523 4.875.52 2.703 1.567 5.402 2.164 8.625.524 6.453 2.688 12.375 5.375 17.777 2.692 5.399 4.258 10.274 5.38 15.676.523 4.875 1.566 9.223 2.687 12.973 2.687 9.147 5.898 18.377 8.066 26.997 2.09 7.05 2.09 14.55-.597 20.55-4.782 3.23-9.114 5.41-13.442 8.1-2.69 2.11-7.469 2.7-10.754 2.11-2.093-.53-3.734-2.71-4.781-4.8-1.121-3.31-1.641-7.58-2.687-9.75-7.543-17.25-15.086-34.06-23.149-51.305-.523-1.652-1.644-3.75-1.644-5.402 0-6.45-2.688-11.325-4.782-16.723-1.64-5.926-3.808-11.328-5.972-17.328-2.09-4.274-6.946-18.899-8.067-22.125-1.043-3.75-2.09-7.574-2.687-11.324-2.688-12.977-5.899-25.95-8.067-38.852-2.687-14.625-4.254-29.176-3.211-43.801.524-3.222 0-6.972-1.043-10.797v-2.703c0-9.148 3.211-17.773 9.11-24.824.523-.523 1.121-1.051 1.644-2.176 3.211-3.75 6.422-6.972 10.231-9.676 5.898 0 8.062 3.75 11.273 7.579 0 3.222 1.047 6.972 0 10.199a79.72 79.72 0 00-1.64 16.199c-.524 4.352-1.047 8.699 3.808 11.926 2.09 1.574 3.735 5.398 3.211 8.625-1.121 6.449 2.688 10.801 4.856 17.25 3.73-6.449 8.586-11.324 12.843-16.199 5.973-5.926 12.918-10.801 20.985-14.551 2.164-1.051 4.851-1.649 7.543-2.176 5.375-.523 10.23.527 12.918 5.402 1.57 2.172 2.687 4.348 5.38 5.922.518.602 1.042 2.176 1.565 3.3-2.09 1.052-3.734 2.103-5.375 3.228-1.047.523-2.69.523-3.734 1.574-2.692 3.3-5.379 6.523-7.543 9.75l-14.489 23.25c-1.12 1.574-2.164 3.75-2.164 5.926 3.731 2.699 8.063 3.226 12.395 4.273 7.469 1.652 15.012 3.828 22.031 8.703 1.043.524 2.164 1.574 3.735 2.098 1.64.601 3.21 1.652 4.851 2.176 1.645 1.125 2.691 2.175 4.332 3.226l4.781 3.297c1.118 1.051 2.688 2.703 4.328 3.75l3.735 3.754c1.644 1.125 2.691 3.297 3.808 3.297 2.692.527 1.571 3.226 2.692 4.277 5.898 5.399 9.633 12.973 14.484 20.024 1.645 2.101 2.168 4.8 2.692 7.5.519 3.3-.524 5.402-3.21 7.05zm63.996-43.199c0 5.399 2.168 9.149 4.258 12.973l4.332 8.101c2.687 4.875 4.332 9.676 7.019 14.551 1.047 2.176 2.688 4.348 3.735 7.051 1.64 4.273 4.332 8.625 10.753 9.148 0-1.05.524-2.175.524-3.226-1.047-2.172-1.047-4.348-1.047-7.047.523-2.703 0-5.402-1.121-8.102-3.734-6.976-7.469-14.55-13.441-21-4.258-4.875-9.11-8.699-15.012-12.449zm60.715-44.25c0 .524 5.972 7.5 6.496 8.625 4.855 6.449 9.109 13.5 13.965 19.949 5.378 8.098 10.753 16.2 15.61 24.301 2.686 4.348 4.253 8.625 2.686 14.625-1.12 3.75-4.332 8.098-8.066 3.75-2.687-2.699-5.375-5.402-7.543-8.625-6.422-8.625-12.394-17.324-17.773-26.476-6.422-10.801-14.485-19.95-22.028-29.7-6.422-7.574-13.44-14.027-20.386-21.078-8.067-8.097-16.731-14.023-26.364-18.898-3.808-2.176-7.543-3.227-11.277-4.875-4.332-1.574-8.063-.524-11.352 2.699 0 3.301-.519 6-1.043 9.227 1.641 2.699 2.688 6.449 2.688 10.273 0 1.574 0 2.703.523 3.75 2.688 8.102 5.899 15.676 9.184 23.25 1.57 4.801 3.734 9.676 8.066 12.902 1.567 0 3.211-.527 4.258 0 2.688 1.649 5.899 2.176 9.184 2.7 1.57 0 2.687 1.125 4.258 2.175 3.808 3.223 7.543 5.926 12.394 7.575 1.047.523 2.692 1.05 3.211 2.175 2.691 3.75 5.902 6.45 9.113 9.149 3.285 3.828 5.973 8.101 8.66 11.926 5.903 9.675 8.59 20.476 8.067 32.402-.598 6.449-2.688 11.848-8.067 16.199-5.972 4.801-12.394 8.625-20.46 9.149-1.043.527-2.688.527-3.735 1.05-3.285 2.176-6.496 2.7-10.23 3.3-7.02-3.823-13.965-8.1-18.817-14.1l-13.965-15.598c-9.71-10.801-17.773-22.203-24.195-35.102-3.29-6-6.5-11.925-9.187-18.375-6.422-13.5-11.278-27-11.801-42.152-.52-10.801 2.168-21.074 6.945-30.223 4.856-9.152 11.875-16.203 22.106-19.425 2.093-.528 4.257-1.653 5.902-1.653 9.633.528 18.816-.523 27.926 2.176 5.379 1.652 11.875 2.699 16.656 5.926 6.496 3.824 12.395 8.101 17.773 14.023 2.165 1.653 3.211 4.352 5.375 6 7.543 7.5 13.442 16.727 22.032 23.176 1.12 1.125 2.687 3.828 3.21 3.828zm58.621 44.25c0 5.399 2.168 9.149 4.332 12.973l4.258 8.101c2.687 4.875 4.332 9.676 7.019 14.551 1.043 2.176 2.688 4.348 3.734 7.051 1.641 4.273 4.329 8.625 10.754 9.148 0-1.05.594-2.175.594-3.226-1.117-2.172-1.117-4.348-1.117-7.047.523-2.703 0-5.402-1.047-8.102-3.809-6.976-7.543-14.55-13.441-21-4.332-4.875-9.188-8.699-15.086-12.449zm60.789-44.25c0 .524 5.898 7.5 6.422 8.625 4.855 6.449 9.183 13.5 13.965 19.949 5.375 8.098 10.753 16.2 15.61 24.301 2.686 4.348 4.327 8.625 2.686 14.625-1.046 3.75-4.257 8.098-8.066 3.75-2.688-2.699-5.375-5.402-7.543-8.625-6.422-8.625-12.32-17.324-17.699-26.476-6.496-10.801-14.563-19.95-22.028-29.7-6.5-7.574-13.445-14.027-20.464-21.078-8.063-8.097-16.653-14.023-26.36-18.898-3.734-2.176-7.543-3.227-11.277-4.875-4.332-1.574-8.067-.524-11.277 2.699 0 3.301-.52 6-1.118 9.227 1.641 2.699 2.688 6.449 2.688 10.273 0 1.574 0 2.703.598 3.75 2.687 8.102 5.898 15.676 9.11 23.25 1.643 4.801 3.733 9.676 8.065 12.902 1.641 0 3.211-.527 4.332 0 2.688 1.649 5.9 2.176 9.11 2.7 1.644 0 2.687 1.125 4.332 2.175 3.734 3.223 7.468 5.926 12.32 7.575 1.121.523 2.688 1.05 3.211 2.175 2.691 3.75 5.977 6.45 9.187 9.149 3.211 3.828 5.9 8.101 8.586 11.926 5.903 9.675 8.59 20.476 8.067 32.402-.524 6.449-2.688 11.848-8.067 16.199-5.898 4.801-12.394 8.625-20.46 9.149-1.047.527-2.688.527-3.735 1.05-3.21 2.176-6.422 2.7-10.23 3.3-6.946-3.823-13.965-8.1-18.82-14.1l-13.966-15.598c-9.707-10.801-17.769-22.203-24.195-35.102-3.211-6-6.422-11.925-9.109-18.375-6.496-13.5-11.352-27-11.875-42.152-.52-10.801 2.168-21.074 7.019-30.223 4.856-9.152 11.801-16.203 22.032-19.425 2.168-.528 4.332-1.653 5.898-1.653 9.71.528 18.82-.523 28.004 2.176 5.379 1.652 11.801 2.699 16.656 5.926 6.422 3.824 12.32 8.101 17.699 14.023 2.164 1.653 3.286 4.352 5.375 6 7.543 7.5 13.442 16.727 22.106 23.176 1.043 1.125 2.687 3.828 3.211 3.828zm56.457 72.301c1.043-3.75-1.12-5.402-3.21-7.5.522-2.176 0-4.352-1.646-6.527-1.047 2.7 0 4.875 1.645 6.527-.598 3.223 1.043 5.398 3.211 7.5 0 6 2.687 10.273 4.254 15.672 1.121 2.703 3.29 4.875 4.855 8.101 0-6.976-3.21-15.675-9.109-23.773zm8.062 33c0 .523 0 1.051.524 2.098 1.047-1.047.523-1.575-.524-2.098zm15.012 33.975c-2.09-4.88-3.734-10.276-6.422-15.674 0-.528-1.047-1.051-2.164-1.578.52 2.175 1.117 4.277 1.117 5.925.524 7.047 3.735 11.847 9.114 14.547-.524-1.05-1.047-1.57-1.645-3.22zm4.856 10.27s-.524-.52-.524-1.05c.524-2.17-.523-3.82-2.168-5.39-.519 2.09 0 4.27 2.168 5.92 0 0-.523.52 0 1.05v1.12c.524-.59 1.047-1.12.524-1.65zm79.602 65.33c-2.16.53-4.33 1.65-6.49 2.17a177.875 177.875 0 01-33.83 3.23c1.04 2.18 2.16 4.35 2.69 6.52 1.04 4.28 2.68 8.63 4.85 12.38.52 1.12 1.57 2.7 1.04 3.82-.52 5.93-1.64 11.33-4.85 16.73-1.04 1.57-2.69 2.7-3.73 3.75-6.5 4.35-12.92 6.52-20.47 6.52-2.16 0-3.21 2.71-5.89 1.05-1.649-1.05-4.337-.52-5.903-.52-2.168-4.87-3.21-9.23-5.379-12.98-1.64-4.34-3.808-8.09-5.898-11.84-.598-1.66-1.645-2.71-2.164-3.83l-8.067-23.77c-7.543-1.06-15.086-1.58-22.629-2.7-6.422-1.05-12.32-1.58-18.816.59-.524 0-1.047 0-1.57-.59-.524-1.05-.524-1.58-1.12-3.23-1.044 0-2.09-.52-3.212-1.05 1.121-4.35 1.121-4.88 3.211-6.52 5.976-3.75 12.398-4.81 18.82-4.81h18.82c-5.379-14.62-10.754-29.17-15.535-43.8-2.688-7.5-4.852-15.07-7.02-22.64-3.21-10.805-5.898-21.606-8.585-32.407-2.168-8.101-4.856-15.675-6.5-23.25-2.09-9.148-3.73-18.3-6.942-27-.523-1.05-1.12-3.226-1.12-4.8-1.048-4.352-1.048-8.7-2.688-12.977-2.094-4.875-2.094-10.273-3.215-15.148-.52-5.399.523-10.801-2.164-15.676-.524-.524-.524-1.574-.524-2.098.524-3.828.524-7.051-1.043-10.801-.523-.601-.523-2.175-.523-3.3.523-10.2 2.09-19.95 5.375-30.227 1.047-3.223 2.687-6.973 4.781-10.273 2.688-4.278 5.973-8.102 10.23-9.153 7.02-2.699 14.563-4.875 22.032-3.222 2.687.523 5.972.523 9.183 1.05 3.211 2.172 6.422 3.825 9.11 5.399l1.644 7.051c.524 2.175 1.567 4.875 2.688 6.972 2.168 5.403 4.258 10.801 4.855 16.801 0 4.277 1.567 8.102 2.688 12.375 1.047 4.875 3.211 9.227 4.258 14.027 1.117 2.176 1.64 4.348 1.64 6.524-.523 3.75.524 6.976 1.57 9.676 3.286 8.101 5.973 15.675 9.712 23.25l9.1 14.027 6.5 9.223s10.76 18.3 10.76 18.902c0 0 3.21 9.148 3.21 9.672 0 .527-2.17 5.402-2.69 5.402s-5.9-8.101-5.9-8.625c0-.527-2.69-3.226-3.21-3.75-.6-.601-2.17-6-2.17-6l-5.37-6.976c-11.281-14.625-19.942-30.825-29.055-47.024-9.109-15.601-17.773-32.402-27.406-47.476-.524-1.653-2.164-2.176-3.211-3.825-4.332 7.575-7.02 14.625-6.496 22.723.523 2.703 1.121 5.402.523 8.102-1.047 4.875-.523 9.148-.523 14.023-.524 5.402.523 10.277 2.687 15.152.524-.601.524-1.125 1.645-2.175.523 2.175 1.566 3.226 1.566 4.875 2.692 10.199 7.02 19.425 11.352 28.574 2.687 4.875 4.781 9.75 6.945 14.625 1.645 3.226 2.688 6.976 4.856 10.203l9.109 15.672c3.809 6.527 6.496 12.976 9.188 19.426 2.687 6 3.73 11.927 7.539 17.327 1.571 2.17 2.091 7.57 1.571 10.8-2.169 0-2.169-2.17-3.212-3.23-.523-1.12-1.047-1.65-2.688-.6 1.641 5.41 4.852 9.75 7.02 14.63 3.73 7.58 7.46 15.08 10.16 22.65 1.11 3.22 2.16 6.52 3.8 9.75 2.17 3.22 2.69 6.45 3.74 9.68 0 1.12 0 1.64.52 2.7 10.75.59 21.51 1.12 32.86 1.12 5.38.52 10.15 1.57 14.49 4.27 1.04.61 1.64 1.66 2.68 3.3-1.64.53-2.68 1.06-3.21 1.58"
                fill="#31AFB4"
        />
    </g>
    <path
            d="M530.23 410.044c-5.368-5.39-5.368-14.133 0-19.523l38.41-38.578a13.704 13.704 0 0119.443 0c5.368 5.39 5.368 14.132 0 19.523l-38.414 38.578c-5.367 5.393-14.072 5.39-19.44 0zM323.046 662.489l73.622 73.94c5.368 5.391 5.368 14.133 0 19.524-5.367 5.393-14.072 5.393-19.442 0l-73.62-73.94c-5.37-5.39-5.37-14.133 0-19.524 5.367-5.392 14.073-5.39 19.44 0"
            fill="#FF9F12"
    />
    <g
            clipPath="url(#prefix__b)"
            transform="matrix(.66667 0 0 -.66667 .833 760)"
    >
        <path
                d="M336.223 110.914h-132.52c-8.34 0-15.859 5.047-19.051 12.785-3.191 7.739-1.429 16.645 4.469 22.567L621.734 580.75c8.055 8.086 21.11 8.086 29.161 0 8.054-8.09 8.05-21.199 0-29.289-18.711-18.789-29.016-43.777-29.016-70.356v-83.3c0-158.192-128.145-286.891-285.656-286.891"
                fill="#95F0E1"
        />
    </g>
    <path
            d="M415.42 494.797l-190.438 191.26c105.007 0 190.437-85.799 190.437-191.26"
            fill="#13BEBE"
    />
    <g
            clipPath="url(#prefix__c)"
            transform="matrix(.66667 0 0 -.66667 .833 760)"
    >
        <path
                d="M645.43.004H512.914c-11.391 0-20.621 9.273-20.621 20.707 0 11.437 9.23 20.71 20.621 20.71H645.43c11.386 0 20.621-9.273 20.621-20.71 0-11.434-9.231-20.707-20.621-20.707"
                fill="#FFD400"
        />
        <path
                d="M601.258 110.914H336.223c134.769 0 244.414 110.121 244.414 245.473v124.718c0 37.645 14.597 73.032 41.097 99.645 24.012 24.117 55.942 37.402 89.907 37.402h.004c72.289 0 131.097-59.062 131.097-131.664V353.441c0-133.73-108.332-242.527-241.484-242.527"
                fill="#13BEBE"
        />
    </g>
    <path
            d="M562.661 524.373v-88.698c0-24.451-10.008-46.592-26.122-62.524L387.925 522.41c0 90.237-73.097 163.648-162.943 163.648h176.69c88.768 0 160.99-72.531 160.99-161.684"
            fill="#0F7878"
    />
    <path
            d="M503.763 421.839c0 7.624-6.154 13.804-13.745 13.804-7.593 0-13.747-6.18-13.747-13.804 0-7.626 6.154-13.808 13.747-13.808 7.591 0 13.745 6.182 13.745 13.808"
            fill="#280000"
    />
</svg>
        </svg>