<?xml version="1.0" encoding="utf-8"?>
<!-- Generator: Adobe Illustrator 23.0.2, SVG Export Plug-In . SVG Version: 6.00 Build 0)  -->
<svg version="1.1" id="Layer_1" xmlns="http://www.w3.org/2000/svg" xmlns:xlink="http://www.w3.org/1999/xlink" x="0px" y="0px"
	 viewBox="0 0 595.28 841.89" style="enable-background:new 0 0 595.28 841.89;" xml:space="preserve">
<style type="text/css">
	.st0{clip-path:url(#SVGID_2_);fill:#31AFB4;}
	.st1{fill:#FF9F12;}
	.st2{clip-path:url(#SVGID_4_);fill:#95F0E1;}
	.st3{fill:#13BEBE;}
	.st4{fill:#FFD400;}
	.st5{fill:#0F7878;}
	.st6{fill:#280000;}
</style>
<g>
	<g>
		<defs>
			<rect id="SVGID_1_" x="244" y="364.89" width="107" height="41.58"/>
		</defs>
		<clipPath id="SVGID_2_">
			<use xlink:href="#SVGID_1_"  style="overflow:visible;"/>
		</clipPath>
		<path class="st0" d="M256.64,400.8v-0.05c-0.05,0-0.05,0.05-0.1,0.05c0,0,0,0.05,0.05,0.05L256.64,400.8z M256.96,399.34
			c-0.05-0.05-0.1-0.1,0-0.27V399.34L256.96,399.34z M257.82,397.88c0,0.05,0.06,0,0.06,0c-0.06,0-0.06,0-0.11-0.05
			C257.76,397.88,257.82,397.88,257.82,397.88L257.82,397.88z M257.98,397.56c0-0.05,0-0.05,0-0.11h-0.1c0,0.06,0,0.06,0.05,0.11
			c0,0,0,0.05,0.05,0.05V397.56z M260.77,392.7c0.06,0,0.06,0,0.06,0v-0.05L260.77,392.7z M273.31,372.77c-0.05,0-0.05,0-0.05-0.05
			h0.05V372.77L273.31,372.77z M284.49,369.43c0-0.06-0.06-0.06-0.06-0.06C284.43,369.43,284.49,369.43,284.49,369.43L284.49,369.43
			z M284.43,369.32c0,0,0,0.05-0.05,0.05h0.05V369.32L284.43,369.32z M285.13,369.32c0.05,0,0.1,0,0.16-0.05c-0.06,0-0.06,0-0.06,0
			h-0.1V369.32z M284.81,369.32l-0.05-0.05v0.05H284.81z M292.07,366.67c-0.54,0.17-1.08,0.17-1.67,0.22c-0.43,0-0.92,0-1.34,0.17
			c-0.22,0.05-0.49,0.05-0.7,0.05c-0.75,0-1.56,0.11-2.32,0.17c-0.86,0.05-1.67,0.16-2.52,0.27c-0.86,0.11-1.72,0.16-2.58,0.32
			c-0.96,0.22-1.93,0.32-2.85,0.43c-1.4,0.22-2.8,0.49-4.2,0.6c-0.37,0.05-0.75,0.16-1.13,0.21c-0.54,0.06-1.02,0.11-1.51,0.22
			c-0.27,0.05-0.54,0.11-0.81,0v-1.13c0.06-0.22,0-0.38-0.1-0.49c-0.54-0.86-1.34-1.35-2.32-1.62c-0.16-0.05-0.32,0.05-0.37,0.22
			c-0.05,0.22-0.1,0.38-0.22,0.54c-0.27,0.64-0.54,1.24-0.86,1.89c-0.27,0.65-0.54,1.3-0.86,1.94l-0.86,0.17
			c-1.02,0.22-2.05,0.49-3.02,0.7c-1.55,0.38-3.11,0.76-4.67,1.14l-3.17,0.81c-1.45,0.38-2.85,0.81-4.25,1.35
			c-1.45,0.54-2.9,1.02-4.3,1.73c-0.16,0.05-0.32,0.16-0.48,0.1c-0.33-0.05-0.6,0.17-0.92,0.17c-0.1,0.32-0.05,0.59,0.11,0.81
			c0.1,0.17,0.21,0.32,0.16,0.49c-0.05,0.05,0,0.16,0.05,0.27c0.11,0.27,1.02,1.18,1.29,1.3c0.65,0.21,1.34,0.38,2.05,0.59h0.27
			c0.49,0,0.91,0.11,1.34,0c0.37,0,0.75-0.05,1.13-0.22c1.18-0.44,2.42-0.76,3.66-1.08c1.18-0.27,2.31-0.7,3.44-1.08
			c0.43-0.17,0.92-0.32,1.34-0.54c0.11-0.11,0.27-0.11,0.43-0.17c0.16,0,0.37,0.06,0.54,0c0.22-0.05,0.32-0.16,0.49-0.27
			c0.05,0,0.1-0.05,0.16-0.05c0.43-0.05,0.81-0.32,1.29-0.32c0.11,0,0.22-0.05,0.32-0.11c0.43-0.22,0.92-0.22,1.34-0.38
			c0.06,0,0.11,0.05,0.16,0.05c0,0.11-0.05,0.22-0.1,0.38c-0.16,0.43-0.38,0.92-0.6,1.4c-0.75,1.67-1.34,3.41-2.15,5.08
			c-0.05,0.11-0.1,0.22-0.1,0.27c-0.05,0.43-0.27,0.81-0.43,1.24l-0.48,1.14c-0.43,1.02-0.87,2.16-1.29,3.35
			c-0.43,1.24-0.92,2.48-1.46,3.78c-0.21,0.59-0.48,1.3-0.75,1.89c-0.22,0.54-0.33,1.08-0.6,1.62c-0.05,0.05-0.05,0.1-0.05,0.16
			c-0.1,0.54-0.32,1.02-0.49,1.51c-0.1,0.22-0.16,0.49-0.21,0.71c-0.22,0.97-0.33,1.94-0.7,2.86c-0.16,0.38-0.27,0.87-0.32,1.3
			c-0.05,0.49,0.1,0.97-0.22,1.46v0.1c0,0.54,0,1.08-0.27,1.57c-0.05,0.16,0,0.38,0,0.54h0.16c0.48-0.17,0.91-0.44,1.13-0.92
			c0.22-0.21,0.16-0.48,0.27-0.7c0.05-0.27,0.22-0.49,0.22-0.76c0.05-0.22,0.27-0.43,0.16-0.7c0.22-0.43,0.22-0.86,0.54-1.24
			c0.16-0.11,0.27-0.32,0.27-0.49s0-0.32,0.11-0.49c0.05-0.05,0-0.1,0-0.16c0-0.27,0.05-0.49,0.27-0.65c0-0.05,0.1-0.1,0.1-0.16
			c-0.1-0.38,0.16-0.54,0.32-0.81c0.22-0.33,0.32-0.65,0.43-1.03c0.05-0.22,0.1-0.43,0.32-0.54c0-0.16,0-0.32,0.16-0.38
			c0-0.05,0.05-0.11,0.05-0.21c0.05,0.11,0.05,0.16,0.05,0.16c0.05,0,0.1-0.05,0.16-0.1l0.96-1.84c0.11-0.27,0.16-0.49,0.43-0.65
			c0.1-0.06,0.22-0.22,0.27-0.38c0.16-0.54,0.49-0.92,0.69-1.4c0.06-0.1,0.11-0.27,0.27-0.32c0-0.27,0.11-0.43,0.27-0.59
			c0.16-0.33,0.43-0.6,0.6-0.92c0.32-0.7,0.81-1.35,1.23-2c0.43-0.65,0.92-1.3,1.02-2.11c0-0.05,0.05-0.11,0.05-0.17
			c0.38-0.54,0.65-1.08,1.02-1.56c0.43-0.54,0.81-1.14,1.08-1.73l0.64-1.35c0.27-0.38,0.43-0.81,0.65-1.24
			c0.22-0.49,0.37-1.03,0.64-1.57l0.32-0.86c0.11-0.33,0.27-0.65,0.33-0.98l0.16-0.44c0.16-0.48,0.32-0.97,0.49-1.51l0.22-0.86
			c0.22-0.11,0.43-0.22,0.59-0.33c0.86-0.32,1.72-0.7,2.52-1.02c0.49-0.22,0.92-0.33,1.4-0.54c0,0,0-0.06,0.05-0.06
			c-0.16-0.1-0.43,0-0.49-0.27c0.75-0.21,1.45-0.43,2.15-0.7c0.37-0.11,0.75-0.22,1.13-0.27c0.59-0.17,1.13-0.38,1.73-0.59
			c0.54-0.22,1.08-0.38,1.55-0.65c0.33-0.22,0.7-0.32,1.08-0.38c0.65-0.17,1.34-0.27,2.05-0.38c0.43-0.05,0.75-0.21,1.13-0.27
			c-0.16-0.16-0.37-0.16-0.54-0.05c-0.22,0.05-0.37,0.05-0.54-0.05c0.43-0.17,0.92-0.22,1.4-0.27c0.27-0.05,0.6-0.05,0.87-0.17
			c0.64-0.11,1.23-0.32,1.88-0.38c0.05,0,0.21,0,0.21-0.05c0.16-0.17,0.33-0.17,0.54-0.22c0.33-0.11,0.65-0.27,0.97-0.38
			c0.43-0.33,0.91-0.38,1.4-0.54c0.59-0.11,1.13-0.33,1.67-0.49c0,0,0-0.05,0.06-0.11H292.07L292.07,366.67z M274.75,380.5
			c0.22,0.54-0.16,0.86-0.37,1.19c-0.49,0.86-1.08,1.67-2.15,2c-0.16-0.54,0-0.92,0.27-1.24c0.37-0.44,0.75-0.81,1.18-1.19
			C274.01,380.98,274.22,380.6,274.75,380.5L274.75,380.5z M281.15,397.99c0.22-0.27,0.22-0.54,0.43-0.7
			c0.32-0.22,0.27-0.49,0.43-0.71c0.11-0.22,0.11-0.49,0.22-0.7c0.59-0.81,0.81-1.68,1.34-2.54c0.49-1.08,0.92-1.67,1.34-2.92
			c0.22-0.65,0.16-1.29,0.54-1.78c0.49-0.65,0.11-0.98,0.65-1.46c0.16-0.75,0.16-1.29,0.59-1.83c0.05-0.11,0.05-0.22,0.1-0.33
			l-0.37-0.21c-0.16,0-0.16,0-0.27-0.06c-0.54,0.22-0.59,0.6-0.81,0.98c-0.59,1.03-0.86,1.52-1.29,2.43l-1.08,2.38
			c-0.22,0.49-0.37,0.97-0.75,1.35c-0.22,0.22-0.22,0.49-0.37,0.7c-0.27-0.1-0.16,0.38-0.38,0.81l-1.08,1.95
			c-0.32,0.54-0.69,1.13-1.28,1.56c-0.06-0.16-0.11-0.27-0.11-0.38c-0.1-0.92-0.1-1.79-0.05-2.7c0.05-0.32,0.1-0.59,0.1-0.91
			c0-1.3,0.27-1.95,0.54-3.19c0.22-0.81,0.49-1.57,0.6-1.94c0.1-0.43,0.16-0.76,0.27-0.87c0.48-0.48,0.1-1.29-0.49-1.73
			c-0.43-0.38-0.86-0.7-1.34-0.92c-0.16-0.06-0.32-0.16-0.49-0.16c-0.64-0.11-1.29-0.11-1.93-0.22c-0.11,0-0.27,0-0.38-0.05
			c0.11-0.32,0.22-0.59,0.27-0.86c0.06-0.38,0.16-0.76,0.33-1.19c0.1-0.38,0.16-0.81,0.21-1.24c0.06-0.43-0.16-0.81-0.48-1.08
			c-0.38-0.32-0.75-0.54-1.19-0.65c-0.32-0.1-0.64-0.1-0.96-0.21c-0.54-0.17-1.02-0.06-1.46,0.27c-0.81,0.59-0.81,0.59-1.72,1.83
			c-0.11,0.11-0.11,0.11-0.16,0.33c-0.54,1.4-0.27,1.19-0.16,2.54c0.27,0.38,0.21,0.81,0.54,1.19c0.48,0.43,0.37,0.87,0.91,1.24
			c0.86,0.65,1.88,0.76,2.9,0.76c0.54-0.22,1.13,0,1.77,0c-0.91,1.62-0.81,1.24-2.04,4.97c-0.27,0.76-0.49,1.94-0.54,3.24
			c0,0.71,0.1,1.4,0.16,2.06c0.22,1.08,0.38,1.73,1.4,2.27c0.32,0.17,0.69,0.32,1.02,0.54c0.54,0.38,1.08,0.27,1.61,0.05
			c0.43-0.16,0.87-0.32,1.24-0.54c0.49-0.21,1.02-0.59,1.34-0.97C280.83,398.32,281.15,398.21,281.15,397.99L281.15,397.99z
			 M290.51,386.98c-0.16,0.32-0.37,0.64-0.59,0.92c-0.97,1.35-2.05,2.65-3.07,4c-0.54,0.76-1.13,1.46-1.77,2.27
			c-0.05-0.16-0.11-0.22-0.11-0.27c0.16-1.08,0.33-2.16,0.7-3.24c0.81-2.27,2.15-4.21,3.71-6.05c0.32-0.32,0.59-0.76,1.02-1.03
			c0.16-0.11,0.32-0.32,0.43-0.49c0.27,0,0.43,0.16,0.49,0.38c0.05,0.21,0.1,0.43,0.16,0.7L290.51,386.98L290.51,386.98z
			 M301.43,383.14c-0.54-0.05-1.08,0.11-1.46,0.54c-0.49,0.54-0.91,1.19-1.23,1.84c-0.49,0.98-1.02,1.89-1.73,2.75l-3.44,4.27
			c-0.43,0.54-0.96,1.03-1.4,1.52c-0.1,0.1-0.27,0.16-0.37,0.27c-0.16-0.65-0.05-1.19-0.05-1.73c0-0.27,0.1-0.54,0.21-0.81
			c0.38-1.4,0.7-2.75,1.14-4.1c0.32-1.13,0.69-2.21,1.08-3.35c0.16-0.49,0.27-0.98,0-1.4c0.05-0.11,0.1-0.17,0.1-0.27
			c0.32-0.87,0.16-1.41-0.64-1.79c-0.38-0.22-0.75-0.32-1.14-0.49c-0.37-0.11-0.75-0.38-1.08-0.22c-0.48,0.22-0.81,0-1.18-0.05
			c-0.05,0-0.16,0-0.27,0.05l-0.54,0.17c-0.05,0.32-0.05,0.59-0.37,0.7h0.05c-0.05,0-0.11,0.05-0.16,0.05l-0.05-0.05
			c-0.1,0.05-0.22,0.11-0.27,0.16c-0.05,0.17,0,0.32-0.22,0.43c-0.16,0.11-0.27,0.32-0.37,0.43c-0.43,0.44-0.7,0.98-1.19,1.3
			c-0.05,0.05-0.1,0.17-0.16,0.27c-0.22,0.32-0.38,0.71-0.54,1.03c-0.54,0.76-0.97,1.62-1.78,2.21c-0.05,0.11-0.1,0.22-0.16,0.27
			c-0.27,0.49-0.54,0.98-0.6,1.57c-0.05,0.38-0.16,0.81-0.48,1.08h0.05c-0.05,0.27-0.05,0.65-0.32,0.76
			c-0.49,0.16-0.6,0.54-0.75,0.92c-0.11,0.27-0.27,0.59-0.38,0.81c0,0.27,0.06,0.54,0,0.81c0,0.38-0.1,0.81-0.16,1.19
			c-0.05,0.7,0.05,1.4,0.64,1.89c0.38,0.27,0.81,0.59,1.24,0.81c0.64,0.32,1.29,0.43,2.04,0c0.6-0.38,1.08-0.81,1.51-1.41l1.61-2.32
			c0.1-0.16,0.16-0.38,0.43-0.49c0.1,0.92,0.16,1.84,0.27,2.87c0.32,0.21,0.69,0.54,1.08,0.75c0.69,0.43,1.34,0.49,2.04,0
			c0.59-0.43,1.02-0.97,1.56-1.51c0.81-0.81,1.34-1.62,1.99-2.54l1.94-2.75c0.81-1.13,1.45-2.21,2.26-3.35
			c0.59-0.86,0.97-1.89,1.56-2.87C301.59,383.3,301.53,383.14,301.43,383.14L301.43,383.14z M304.98,386.54v-0.05
			c-0.38,0.49-0.86,0.86-1.46,1.13c-0.37,0.11-0.69,0.38-1.02,0.54c-0.65,0.27-1.29,0.32-1.94,0.54c-0.16-0.17,0-0.27,0.06-0.32
			c0.54-0.65,1.18-1.19,1.88-1.73c0.59-0.48,1.55-1.02,1.88-1.19c0.69-0.32,1.4-0.7,2.15-1.03c0.16-0.05,0.32-0.05,0.54-0.05
			c-0.27,0.59-0.7,1.03-1.19,1.4L304.98,386.54z M309.87,383.3c-0.27-0.17-0.54-0.32-0.81-0.43c-1.34-0.43-2.74-0.32-4.03,0.27
			c-1.13,0.49-2.26,1.03-3.28,1.73c-0.05,0.05-0.16,0.05-0.32,0.11c0-0.22,0.05-0.32,0.05-0.49c0.05-0.27,0.16-0.54,0.22-0.86
			c0.05-0.64,0.27-1.24,0.54-1.78c0.27-0.54,0.43-1.03,0.54-1.57c0.05-0.49,0.16-0.92,0.27-1.3c0.27-0.92,0.59-1.84,0.81-2.7
			c0.21-0.7,0.21-1.46-0.06-2.06c-0.48-0.32-0.91-0.54-1.34-0.81c-0.27-0.21-0.75-0.27-1.08-0.21c-0.21,0.05-0.37,0.27-0.48,0.48
			c-0.11,0.33-0.16,0.76-0.27,0.98c-0.75,1.73-1.51,3.41-2.32,5.13c-0.05,0.17-0.16,0.38-0.16,0.54c0,0.64-0.27,1.13-0.48,1.67
			c-0.16,0.59-0.38,1.13-0.6,1.73c-0.21,0.43-0.69,1.89-0.81,2.21c-0.1,0.38-0.21,0.76-0.27,1.13c-0.27,1.3-0.59,2.6-0.81,3.89
			c-0.27,1.46-0.43,2.92-0.32,4.38c0.05,0.32,0,0.7-0.1,1.08v0.27c0,0.92,0.32,1.78,0.91,2.48c0.05,0.05,0.11,0.11,0.16,0.22
			c0.32,0.38,0.64,0.7,1.02,0.97c0.59,0,0.81-0.38,1.13-0.76c0-0.32,0.1-0.7,0-1.02c-0.11-0.54-0.16-1.08-0.16-1.62
			c-0.05-0.43-0.1-0.87,0.38-1.19c0.21-0.16,0.37-0.54,0.32-0.86c-0.11-0.64,0.27-1.08,0.49-1.73c0.37,0.64,0.86,1.13,1.28,1.62
			c0.6,0.59,1.29,1.08,2.1,1.46c0.22,0.1,0.49,0.16,0.75,0.22c0.54,0.05,1.02-0.05,1.29-0.54c0.16-0.22,0.27-0.43,0.54-0.59
			c0.05-0.06,0.1-0.22,0.16-0.33c-0.21-0.11-0.37-0.21-0.54-0.32c-0.1-0.05-0.27-0.05-0.37-0.16c-0.27-0.33-0.54-0.65-0.75-0.98
			l-1.45-2.33c-0.11-0.16-0.22-0.38-0.22-0.59c0.37-0.27,0.81-0.32,1.24-0.43c0.75-0.16,1.5-0.38,2.2-0.87
			c0.1-0.05,0.22-0.16,0.37-0.21c0.16-0.06,0.32-0.17,0.49-0.22c0.16-0.11,0.27-0.22,0.43-0.32l0.48-0.33
			c0.11-0.11,0.27-0.27,0.43-0.38l0.37-0.38c0.16-0.11,0.27-0.33,0.38-0.33c0.27-0.05,0.16-0.32,0.27-0.43
			c0.59-0.54,0.96-1.3,1.45-2c0.16-0.21,0.22-0.48,0.27-0.75C310.24,383.68,310.14,383.47,309.87,383.3L309.87,383.3z
			 M316.27,387.62c0-0.54,0.22-0.91,0.43-1.3l0.43-0.81c0.27-0.49,0.43-0.97,0.7-1.46c0.1-0.22,0.27-0.44,0.37-0.71
			c0.16-0.43,0.43-0.86,1.08-0.92c0,0.11,0.05,0.22,0.05,0.32c-0.1,0.22-0.1,0.43-0.1,0.7c0.05,0.27,0,0.54-0.11,0.81
			c-0.37,0.7-0.75,1.46-1.34,2.1C317.34,386.87,316.86,387.25,316.27,387.62L316.27,387.62z M322.34,392.05
			c0-0.05,0.6-0.75,0.65-0.86c0.49-0.65,0.91-1.35,1.4-2c0.54-0.81,1.08-1.62,1.56-2.43c0.27-0.44,0.43-0.86,0.27-1.46
			c-0.11-0.38-0.43-0.81-0.81-0.38c-0.27,0.27-0.54,0.54-0.75,0.86c-0.64,0.86-1.24,1.73-1.78,2.65c-0.64,1.08-1.45,2-2.2,2.97
			c-0.64,0.76-1.34,1.4-2.04,2.11c-0.81,0.81-1.67,1.4-2.64,1.89c-0.38,0.22-0.75,0.32-1.13,0.49c-0.43,0.16-0.81,0.05-1.14-0.27
			c0-0.33-0.05-0.6-0.1-0.92c0.16-0.27,0.27-0.64,0.27-1.03c0-0.16,0-0.27,0.05-0.38c0.27-0.81,0.59-1.57,0.92-2.33
			c0.16-0.48,0.37-0.97,0.81-1.29c0.16,0,0.32,0.05,0.43,0c0.27-0.17,0.59-0.22,0.92-0.27c0.16,0,0.27-0.11,0.43-0.22
			c0.38-0.32,0.75-0.59,1.24-0.76c0.1-0.05,0.27-0.1,0.32-0.22c0.27-0.38,0.59-0.64,0.91-0.91c0.33-0.38,0.6-0.81,0.87-1.19
			c0.59-0.97,0.86-2.05,0.81-3.24c-0.06-0.65-0.27-1.19-0.81-1.62c-0.6-0.48-1.24-0.86-2.05-0.91c-0.1-0.05-0.27-0.05-0.37-0.11
			c-0.33-0.22-0.65-0.27-1.02-0.33c-0.7,0.38-1.4,0.81-1.88,1.41l-1.4,1.56c-0.97,1.08-1.78,2.22-2.42,3.51
			c-0.33,0.6-0.65,1.19-0.92,1.84c-0.64,1.35-1.13,2.7-1.18,4.22c-0.05,1.08,0.22,2.11,0.69,3.02c0.49,0.91,1.19,1.62,2.21,1.94
			c0.21,0.05,0.43,0.17,0.59,0.17c0.96-0.05,1.88,0.05,2.79-0.22c0.54-0.17,1.19-0.27,1.67-0.59c0.65-0.38,1.24-0.81,1.78-1.4
			c0.22-0.17,0.32-0.44,0.54-0.6c0.75-0.75,1.34-1.67,2.2-2.32C322.13,392.32,322.29,392.05,322.34,392.05L322.34,392.05z
			 M328.2,387.62c0-0.54,0.22-0.91,0.43-1.3l0.43-0.81c0.27-0.49,0.43-0.97,0.7-1.46c0.1-0.22,0.27-0.44,0.37-0.71
			c0.16-0.43,0.43-0.86,1.08-0.92c0,0.11,0.06,0.22,0.06,0.32c-0.11,0.22-0.11,0.43-0.11,0.7c0.05,0.27,0,0.54-0.1,0.81
			c-0.38,0.7-0.75,1.46-1.34,2.1C329.28,386.87,328.79,387.25,328.2,387.62L328.2,387.62z M334.28,392.05
			c0-0.05,0.59-0.75,0.64-0.86c0.49-0.65,0.92-1.35,1.4-2c0.54-0.81,1.08-1.62,1.56-2.43c0.27-0.44,0.43-0.86,0.27-1.46
			c-0.1-0.38-0.43-0.81-0.81-0.38c-0.27,0.27-0.54,0.54-0.75,0.86c-0.64,0.86-1.23,1.73-1.77,2.65c-0.65,1.08-1.46,2-2.2,2.97
			c-0.65,0.76-1.34,1.4-2.05,2.11c-0.81,0.81-1.67,1.4-2.64,1.89c-0.37,0.22-0.75,0.32-1.13,0.49c-0.43,0.16-0.81,0.05-1.13-0.27
			c0-0.33-0.05-0.6-0.11-0.92c0.16-0.27,0.27-0.64,0.27-1.03c0-0.16,0-0.27,0.06-0.38c0.27-0.81,0.59-1.57,0.91-2.33
			c0.16-0.48,0.37-0.97,0.81-1.29c0.16,0,0.32,0.05,0.43,0c0.27-0.17,0.59-0.22,0.91-0.27c0.16,0,0.27-0.11,0.43-0.22
			c0.37-0.32,0.75-0.59,1.23-0.76c0.11-0.05,0.27-0.1,0.32-0.22c0.27-0.38,0.6-0.64,0.92-0.91c0.32-0.38,0.59-0.81,0.86-1.19
			c0.59-0.97,0.86-2.05,0.81-3.24c-0.05-0.65-0.27-1.19-0.81-1.62c-0.59-0.48-1.24-0.86-2.05-0.91c-0.1-0.05-0.27-0.05-0.37-0.11
			c-0.32-0.22-0.64-0.27-1.02-0.33c-0.69,0.38-1.4,0.81-1.88,1.41l-1.4,1.56c-0.97,1.08-1.78,2.22-2.42,3.51
			c-0.32,0.6-0.64,1.19-0.91,1.84c-0.65,1.35-1.14,2.7-1.19,4.22c-0.05,1.08,0.22,2.11,0.7,3.02c0.49,0.91,1.18,1.62,2.2,1.94
			c0.22,0.05,0.43,0.17,0.59,0.17c0.97-0.05,1.88,0.05,2.8-0.22c0.54-0.17,1.18-0.27,1.67-0.59c0.64-0.38,1.23-0.81,1.77-1.4
			c0.22-0.17,0.33-0.44,0.54-0.6c0.75-0.75,1.34-1.67,2.21-2.32C334.06,392.32,334.23,392.05,334.28,392.05L334.28,392.05z
			 M339.93,384.82c0.1,0.38-0.11,0.54-0.32,0.75c0.05,0.22,0,0.43-0.16,0.65c-0.1-0.27,0-0.49,0.16-0.65
			C339.54,385.25,339.71,385.03,339.93,384.82c0-0.6,0.27-1.03,0.43-1.57c0.11-0.27,0.33-0.49,0.49-0.81
			C340.84,383.14,340.52,384.01,339.93,384.82L339.93,384.82z M340.73,381.52c0-0.05,0-0.11,0.05-0.21
			C340.89,381.41,340.84,381.47,340.73,381.52L340.73,381.52z M342.23,378.12c-0.21,0.49-0.37,1.03-0.64,1.57
			c0,0.05-0.1,0.11-0.22,0.16c0.05-0.22,0.11-0.43,0.11-0.59c0.05-0.7,0.37-1.18,0.91-1.45
			C342.34,377.9,342.29,377.96,342.23,378.12L342.23,378.12z M342.72,377.09c0,0-0.05,0.05-0.05,0.11c0.05,0.22-0.05,0.38-0.22,0.54
			c-0.05-0.21,0-0.43,0.22-0.59c0,0-0.05-0.05,0-0.11v-0.11C342.72,376.99,342.77,377.04,342.72,377.09L342.72,377.09z
			 M350.68,370.56c-0.22-0.05-0.43-0.17-0.65-0.22c-1.13-0.22-2.26-0.32-3.38-0.32c0.1-0.22,0.22-0.43,0.27-0.65
			c0.1-0.43,0.27-0.86,0.49-1.24c0.05-0.11,0.16-0.27,0.1-0.38c-0.05-0.59-0.16-1.13-0.49-1.67c-0.1-0.16-0.27-0.27-0.37-0.38
			c-0.65-0.43-1.29-0.65-2.05-0.65c-0.22,0-0.32-0.27-0.59-0.11c-0.16,0.11-0.43,0.05-0.59,0.05c-0.22,0.49-0.32,0.92-0.54,1.3
			c-0.16,0.44-0.38,0.81-0.59,1.19c-0.06,0.17-0.16,0.27-0.22,0.38l-0.81,2.38c-0.75,0.11-1.51,0.16-2.26,0.27
			c-0.64,0.11-1.23,0.16-1.88-0.06c-0.05,0-0.1,0-0.16,0.06c-0.05,0.11-0.05,0.16-0.11,0.32c-0.1,0-0.21,0.05-0.32,0.11
			c0.11,0.43,0.11,0.49,0.32,0.65c0.6,0.38,1.24,0.48,1.88,0.48h1.88c-0.54,1.46-1.08,2.92-1.55,4.38c-0.27,0.75-0.49,1.51-0.7,2.27
			c-0.32,1.08-0.59,2.16-0.86,3.24c-0.22,0.81-0.49,1.57-0.65,2.33c-0.21,0.92-0.37,1.83-0.69,2.7c-0.05,0.11-0.11,0.32-0.11,0.48
			c-0.1,0.43-0.1,0.87-0.27,1.3c-0.21,0.49-0.21,1.03-0.32,1.52c-0.05,0.54,0.05,1.08-0.22,1.57c-0.05,0.05-0.05,0.16-0.05,0.21
			c0.05,0.38,0.05,0.7-0.1,1.08c-0.05,0.06-0.05,0.22-0.05,0.33c0.05,1.02,0.21,2,0.54,3.02c0.1,0.32,0.27,0.7,0.48,1.03
			c0.27,0.43,0.6,0.81,1.02,0.92c0.7,0.27,1.46,0.49,2.2,0.32c0.27-0.05,0.6-0.05,0.92-0.1c0.32-0.22,0.64-0.38,0.91-0.54l0.16-0.71
			c0.05-0.22,0.16-0.49,0.27-0.7c0.22-0.54,0.43-1.08,0.49-1.68c0-0.43,0.16-0.81,0.27-1.24c0.1-0.49,0.32-0.92,0.43-1.4
			c0.11-0.22,0.16-0.43,0.16-0.65c-0.05-0.38,0.05-0.7,0.16-0.97c0.33-0.81,0.6-1.57,0.97-2.33l0.91-1.4l0.65-0.92
			c0,0,1.08-1.83,1.08-1.89c0,0,0.32-0.92,0.32-0.97c0-0.05-0.22-0.54-0.27-0.54c-0.05,0-0.59,0.81-0.59,0.86s-0.27,0.32-0.32,0.38
			c-0.06,0.06-0.22,0.6-0.22,0.6l-0.54,0.7c-1.13,1.46-1.99,3.08-2.9,4.7c-0.91,1.56-1.78,3.24-2.74,4.75
			c-0.05,0.17-0.22,0.22-0.32,0.38c-0.43-0.76-0.7-1.46-0.65-2.27c0.05-0.27,0.11-0.54,0.05-0.81c-0.1-0.49-0.05-0.91-0.05-1.4
			c-0.05-0.54,0.05-1.03,0.27-1.51c0.05,0.06,0.05,0.11,0.16,0.22c0.05-0.22,0.16-0.32,0.16-0.49c0.27-1.02,0.7-1.94,1.14-2.86
			c0.27-0.49,0.48-0.98,0.69-1.46c0.16-0.32,0.27-0.7,0.49-1.02l0.91-1.57c0.38-0.65,0.65-1.3,0.92-1.94
			c0.27-0.6,0.37-1.19,0.75-1.73c0.16-0.22,0.21-0.76,0.16-1.08c-0.22,0-0.22,0.22-0.32,0.32c-0.05,0.11-0.1,0.17-0.27,0.06
			c0.16-0.54,0.49-0.98,0.7-1.46c0.37-0.76,0.75-1.51,1.02-2.27c0.11-0.32,0.22-0.65,0.38-0.98c0.22-0.32,0.27-0.64,0.37-0.97
			c0-0.11,0-0.17,0.05-0.27c1.08-0.06,2.15-0.11,3.29-0.11c0.54-0.05,1.02-0.16,1.45-0.43c0.1-0.06,0.16-0.17,0.27-0.33
			C350.84,370.67,350.73,370.61,350.68,370.56L350.68,370.56z"/>
	</g>
	<path class="st1" d="M323.41,426.4c-0.81-0.81-0.81-2.12,0-2.93l5.76-5.79c0.81-0.81,2.11-0.81,2.92,0c0.81,0.81,0.81,2.12,0,2.93
		l-5.76,5.79C325.52,427.21,324.21,427.21,323.41,426.4L323.41,426.4z M292.33,464.26l11.04,11.09c0.81,0.81,0.81,2.12,0,2.93
		c-0.81,0.81-2.11,0.81-2.92,0l-11.04-11.09c-0.81-0.81-0.81-2.12,0-2.93C290.22,463.45,291.53,463.45,292.33,464.26L292.33,464.26z
		"/>
	<g>
		<defs>
			<rect id="SVGID_3_" x="262.31" y="417.07" width="70.38" height="61.81"/>
		</defs>
		<clipPath id="SVGID_4_">
			<use xlink:href="#SVGID_3_"  style="overflow:visible;"/>
		</clipPath>
		<path class="st2" d="M277.62,467.8h-13.25c-0.83,0-1.59-0.5-1.9-1.28c-0.32-0.77-0.14-1.66,0.45-2.26l43.26-43.45l0,0
			c0.81-0.81,2.11-0.81,2.92,0c0.81,0.81,0.8,2.12,0,2.93l0,0c-1.87,1.88-2.9,4.38-2.9,7.04v8.33
			C306.19,454.93,293.37,467.8,277.62,467.8L277.62,467.8z"/>
	</g>
	<path class="st3" d="M306.19,439.11l-28.57,28.69C293.37,467.8,306.19,454.93,306.19,439.11L306.19,439.11z"/>
	<path class="st4" d="M308.54,478.89h-13.25c-1.14,0-2.06-0.93-2.06-2.07s0.92-2.07,2.06-2.07h13.25c1.14,0,2.06,0.93,2.06,2.07
		S309.68,478.89,308.54,478.89L308.54,478.89z"/>
	<path class="st3" d="M304.13,467.8h-26.5c13.48,0,24.44-11.01,24.44-24.55v-12.47c0-3.76,1.46-7.3,4.11-9.96
		c2.4-2.41,5.59-3.74,8.99-3.74h0c7.23,0,13.11,5.91,13.11,13.17v13.3C328.27,456.92,317.44,467.8,304.13,467.8L304.13,467.8z"/>
	<path class="st5" d="M328.27,443.55v-13.3c0-3.67-1.5-6.99-3.92-9.38l-22.29,22.39c0,13.54-10.96,24.55-24.44,24.55h26.5
		C317.44,467.8,328.27,456.92,328.27,443.55L328.27,443.55z"/>
	<path class="st6" d="M319.44,428.17c0,1.14-0.92,2.07-2.06,2.07c-1.14,0-2.06-0.93-2.06-2.07c0-1.14,0.92-2.07,2.06-2.07
		C318.52,426.09,319.44,427.02,319.44,428.17L319.44,428.17z"/>
</g>
</svg>
