<?xml version="1.0" encoding="utf-8"?>
<svg viewBox="1091.988 403.555 2896.73 1711.41" xmlns="http://www.w3.org/2000/svg">
    <defs>
        <linearGradient id="grd1" gradientUnits="userSpaceOnUse" x1="2308.2" y1="495.6" x2="2308.2" y2="495.6">
            <stop offset="0" stop-color="#e89f90"/>
            <stop offset="1" stop-color="#e89f90"/>
        </linearGradient>
        <clipPath clipPathUnits="userSpaceOnUse" id="cp1">
            <path d="m1621.93 1007.92v929.16c0 4.18-3.64 7.57-8.13 7.57h-581.15c-4.49 0-8.13-3.39-8.13-7.57v-929.16c0-14.28 12.43-25.86 27.77-25.86h541.87c15.34 0 27.77 11.58 27.77 25.86z"/>
        </clipPath>
        <clipPath clipPathUnits="userSpaceOnUse" id="cp2">
            <path d="m2018.35 1372.01c-94.02 0-170.25-76.22-170.25-170.25c0-94.02 76.22-170.25 170.25-170.25c94.02 0 170.24 76.22 170.24 170.25c0 94.02-76.22 170.25-170.24 170.25z"/>
        </clipPath>
        <clipPath clipPathUnits="userSpaceOnUse" id="cp3">
            <path d="m1987.27 1294.35l-120.31-0.36l0.55-183.28l120.31 0.36l-0.55 183.28z"/>
        </clipPath>
        <linearGradient id="grd2" gradientUnits="userSpaceOnUse" x1="2775.1" y1="1091.2" x2="2775.1" y2="1091.2">
            <stop offset="0" stop-color="#e69d8e"/>
            <stop offset="1" stop-color="#e69d8e"/>
        </linearGradient>
        <linearGradient id="grd3" gradientUnits="userSpaceOnUse" x1="759" y1="1092.6" x2="759" y2="1092.6">
            <stop offset="0" stop-color="#e89f90"/>
            <stop offset="1" stop-color="#e89f90"/>
        </linearGradient>
        <style>tspan { white-space:pre }.s0 { fill: #006d77 } .s1 { fill: #210a0b } .s2 { fill: #a0d5d2 } .s3 { fill: #d45252 } .s4 { fill: #f7e476 } .s5 { fill: #5799d7 } .s6 { fill: #242638 } .s7 { fill: #4479a8 } .s8 { fill: #ffd401 } .s9 { fill: #f5f7f5 } .s10 { fill: #e89f90 } .s11 { fill: #333333;stroke: #b2c7fc;stroke-width: 1 } .s12 { fill: #ffffff } .s13 { mix-blend-mode: multiply;fill: #f4d9ce } .s14 { fill: #333333 } .s15 { fill: #b2c7fc } .s16 { fill: #e1eafd } .s17 { fill: #6e94cd } .s18 { fill: #e07070 } .s19 { fill: #e4887f } .s20 { fill: url(#grd1) } .s21 { fill: #bb5151 } .s22 { fill: #edbc70 } .s23 { fill: #4c546b } .s24 { fill: #cce4f8 } .s25 { fill: #2eb6b9 } .s26 { fill: #cbe8f7 } .s27 { opacity: .3;fill: #000000 } .s28 { fill: #29263d } .s29 { opacity: .3;fill: #ffffff } .s30 { fill: #000000 } .s31 { opacity: .6;mix-blend-mode: multiply;fill: #deaf83 } .s32 { fill: #e69d8e } .s33 { fill: #37374f } .s34 { fill: #e2867f } .s35 { fill: url(#grd2) } .s36 { fill: #b95151 } .s37 { fill: #f0ebe9 } .s38 { fill: #d67871 } .s39 { fill: url(#grd3) } .s40 { fill: #3b6894 } .s41 { fill: #e69d49 } .s42 { fill: #87c0e3 } .s43 { fill: #8ab9e8 } .s44 { fill: #cee6fa } </style>
    </defs>
    <g id="Layer 1" transform="matrix(1, 0, 0, 1, 931.178284, -63.105122)">
        <g id="&lt;Group&gt;"/>
        <g id="&lt;Group&gt;">
            <g id="&lt;Group&gt;"/>
            <g id="&lt;Group&gt;"/>
            <g id="&lt;Group&gt;">
                <path id="&lt;Path&gt;" class="s0" d="m3057.54 2094.1v1.99c0 17.79-14.55 32.34-32.34 32.34h-2832.05c-17.79 0-32.34-14.55-32.34-32.34v-1.99c0-17.79 14.55-32.34 32.34-32.34h2832.05c17.79 0 32.34 14.55 32.34 32.34z"/>
            </g>
            <path id="&lt;Path&gt;" class="s1" d="m2589.99 907.74v1100.43c0 14.79-11.99 26.78-26.78 26.78h-1640.91c-14.79 0-26.78-11.99-26.78-26.78v-1100.43c0-14.79 11.99-26.78 26.78-26.78h1640.91c14.79 0 26.78 11.99 26.78 26.78z"/>
            <path id="&lt;Path&gt;" class="s0" d="m2558.34 1983.83h-1638.47v-1083.39h1638.47v1083.39z"/>
            <g id="&lt;Group&gt;">
                <path id="&lt;Path&gt;" class="s2" d="m2558.34 955.04h-1638.47v-55.05h1638.47v55.05z"/>
            </g>
            <g id="&lt;Group&gt;">
                <path id="&lt;Path&gt;" class="s3" d="m958.06 939.93c-7.26 0-13.15-5.89-13.15-13.15c0-7.26 5.89-13.15 13.15-13.15c7.26 0 13.15 5.89 13.15 13.15c0 7.26-5.89 13.15-13.15 13.15z"/>
            </g>
            <g id="&lt;Group&gt;">
                <path id="&lt;Path&gt;" class="s4" d="m1005.31 939.93c-7.26 0-13.15-5.89-13.15-13.15c0-7.26 5.89-13.15 13.15-13.15c7.26 0 13.15 5.89 13.15 13.15c0 7.26-5.89 13.15-13.15 13.15z"/>
            </g>
            <g id="&lt;Group&gt;">
                <path id="&lt;Path&gt;" class="s5" d="m1054.02 939.93c-7.26 0-13.15-5.89-13.15-13.15c0-7.26 5.89-13.15 13.15-13.15c7.26 0 13.15 5.89 13.15 13.15c0 7.26-5.89 13.15-13.15 13.15z"/>
            </g>
            <path id="&lt;Path&gt;" class="s6" d="m2586.34 1994.79h-103.47v-29.22h103.47v29.22z"/>
            <path id="&lt;Path&gt;" class="s6" d="m2272.28 1994.79h-103.47v-29.22h103.47v29.22z"/>
            <path id="&lt;Path&gt;" class="s6" d="m2145.68 1994.79h-103.47v-29.22h103.47v29.22z"/>
            <path id="&lt;Path&gt;" class="s6" d="m2019.08 1994.79h-103.47v-29.22h103.47v29.22z"/>
            <path id="&lt;Path&gt;" class="s6" d="m1316.09 1994.79h-103.47v-29.22h103.47v29.22z"/>
            <path id="&lt;Path&gt;" class="s6" d="m1183.71 1994.79h-103.47v-29.22h103.47v29.22z"/>
            <path id="&lt;Path&gt;" class="s6" d="m1052.25 1994.79h-103.47v-29.22h103.47v29.22z"/>
            <path id="&lt;Path&gt;" class="s6" d="m1893.09 1994.79h-544.13v-31.04h544.13v31.04z"/>
            <path id="&lt;Path&gt;" class="s6" d="m2448.78 1994.79h-149.73v-29.22h149.73v29.22z"/>
            <path id="&lt;Path&gt;" class="s6" d="m2660.59 2012.2c0 31.39-25.45 56.84-56.84 56.84h-1729.26c-27.38 0-49.58-22.2-49.58-49.58v-38.06h1835.67v30.81z"/>
            <g id="&lt;Group&gt;">
                <g id="&lt;Group&gt;">
                    <path id="&lt;Path&gt;" class="s7" d="m2329.92 794.8l30.53 56.2l-72.86 13.18l-65.22-4.86l-13.18-22.9l15.96-21.51l104.77-20.12z"/>
                </g>
                <g id="&lt;Group&gt;">
                    <g id="&lt;Group&gt;">
                        <path id="&lt;Path&gt;" class="s8" d="m2235.48 925.1c-0.59 3.29-3.76 6.42-9.51 9.4c-8.63 4.47-31.44 6.21-40.44 8.17c-9 1.96-39.2 5.75-45.83-6.74c-6.63-12.48-4.14-28.22 4.64-31.75c8.77-3.53 25.81-0.9 36.3-1.48c10.49-0.58 38.75-6.64 42.29-6.52c2.36 0.08 6.55 9.72 12.57 28.91z"/>
                    </g>
                    <path id="&lt;Path&gt;" class="s9" d="m2204.18 939.79c-7.35 1.12-14.54 1.98-18.73 2.9c-9 1.96-39.2 5.75-45.83-6.73c-6.63-12.48-4.14-28.22 4.64-31.75c2.94-1.18 6.83-1.67 11.07-1.82c-4.95 1.57-9.32 4.73-10.14 10.89c-2.06 15.44 3.79 25.87 11.06 27.93c7.27 2.06 46.11-1.71 47.83-1.49l0.11 0.07z"/>
                    <g id="&lt;Group&gt;">
                        <path id="&lt;Path&gt;" class="s10" d="m2286.9 909.64c-21.51 3.47-35.27 6.82-41.29 10.06c-4.41 2.38-8.57 4.82-12.46 7.34c-12.77-9.02-16.71-18.97-11.82-29.86c26.88-8.77 41.68-14.79 44.41-18.08c2.72-3.28 9.78 6.89 21.16 30.53z"/>
                    </g>
                    <path id="&lt;Path&gt;" class="s11" d="m2177.95 931.45c-1.04 0.15-2.01-0.57-2.16-1.61c-0.15-1.04 0.57-2 1.61-2.16c1.04-0.15 2 0.57 2.16 1.61c0.15 1.04-0.57 2-1.61 2.16z"/>
                    <path id="&lt;Path&gt;" class="s11" d="m2175.33 913.58c-1.04 0.15-2-0.57-2.16-1.61c-0.15-1.04 0.57-2 1.61-2.16c1.04-0.15 2 0.57 2.16 1.61c0.15 1.04-0.57 2-1.61 2.16z"/>
                    <path id="&lt;Path&gt;" class="s11" d="m2189.79 929.72c-1.04 0.15-2-0.57-2.16-1.61c-0.15-1.04 0.57-2 1.61-2.16c1.04-0.15 2 0.57 2.16 1.61c0.15 1.04-0.57 2.01-1.61 2.16z"/>
                    <path id="&lt;Path&gt;" class="s11" d="m2187.17 911.84c-1.04 0.15-2.01-0.57-2.16-1.61c-0.15-1.04 0.57-2.01 1.61-2.16c1.04-0.15 2 0.57 2.16 1.61c0.15 1.04-0.57 2-1.61 2.16z"/>
                    <path id="&lt;Path&gt;" class="s11" d="m2201.94 927.94c-1.04 0.15-2-0.57-2.16-1.61c-0.15-1.04 0.57-2 1.61-2.16c1.04-0.15 2.01 0.57 2.16 1.61c0.15 1.04-0.57 2.01-1.61 2.16z"/>
                    <path id="&lt;Path&gt;" class="s11" d="m2199.32 910.06c-1.04 0.15-2-0.57-2.16-1.61c-0.15-1.04 0.57-2 1.61-2.16c1.04-0.15 2.01 0.57 2.16 1.61c0.15 1.04-0.57 2-1.61 2.16z"/>
                    <path id="&lt;Path&gt;" class="s11" d="m2213.62 926.22c-1.04 0.15-2-0.57-2.16-1.61c-0.15-1.04 0.57-2 1.61-2.16c1.04-0.15 2 0.57 2.16 1.61c0.15 1.04-0.57 2-1.61 2.16z"/>
                    <g id="&lt;Group&gt;">
                        <path id="&lt;Path&gt;" class="s8" d="m2171.33 913.52l48.4-8.41c2.57-0.45 5 1.14 5.42 3.54l1.64 9.34c0.43 2.43-1.37 4.75-3.98 5.15l-49.14 7.5l-2.34-17.11z"/>
                    </g>
                    <path id="&lt;Path&gt;" class="s11" d="m2211 908.35c-1.04 0.15-2.01-0.57-2.16-1.61c-0.15-1.04 0.57-2 1.61-2.16c1.04-0.15 2 0.57 2.16 1.61c0.15 1.04-0.57 2.01-1.61 2.16z"/>
                    <path id="&lt;Path&gt;" class="s12" d="m2177.74 930.91h-0.13c-0.42-0.07-0.75-0.39-0.81-0.81l-2.69-18.26c-0.07-0.51 0.29-0.99 0.8-1.08c0.52 0.05 1.01 0.28 1.09 0.8l2.22 15.08l7.82-17.07c0.2-0.39 0.57-0.52 0.99-0.55c0.42 0.07 0.75 0.39 0.81 0.81l2.17 14.81l8.18-16.86c0.18-0.39 0.55-0.47 1.01-0.54c0.41 0.07 0.73 0.39 0.8 0.81l2.15 14.74l7.51-17.07c0.15-0.36 0.49-0.57 0.86-0.57h0.13c0.42 0.07 0.75 0.39 0.81 0.81l2.67 18.26c0.07 0.51-0.29 0.99-0.81 1.08h-0.08c-0.52 0-0.93-0.34-0.99-0.81l-2.18-14.97l-7.51 17.07c-0.16 0.41-0.55 0.67-0.99 0.57c-0.42-0.07-0.75-0.39-0.81-0.81l-2.18-14.97l-8.18 16.86c-0.18 0.39-0.6 0.51-1.01 0.54c-0.41-0.07-0.73-0.39-0.8-0.81l-2.15-14.68l-7.82 17.07c-0.16 0.34-0.49 0.55-0.86 0.55z"/>
                    <path id="&lt;Path&gt;" class="s12" d="m2189.51 928.77c-0.26 0-0.51-0.1-0.7-0.29l-14.24-15.47c-0.36-0.39-0.33-0.99 0.05-1.35c0.41-0.36 0.96-0.33 1.35 0.05l14.24 15.47c0.36 0.39 0.33 0.99-0.05 1.35c-0.2 0.16-0.42 0.24-0.65 0.24z"/>
                    <path id="&lt;Path&gt;" class="s12" d="m2201.5 927.03c-0.26 0-0.5-0.1-0.7-0.31l-14.24-15.49c-0.36-0.37-0.33-0.98 0.07-1.34c0.37-0.36 0.94-0.34 1.34 0.07l14.24 15.49c0.36 0.37 0.33 0.98-0.07 1.34c-0.18 0.16-0.41 0.24-0.64 0.24z"/>
                    <path id="&lt;Path&gt;" class="s12" d="m2213.74 925.22c-0.26 0-0.51-0.1-0.7-0.29l-14.24-15.47c-0.36-0.39-0.33-0.99 0.05-1.35c0.41-0.36 0.98-0.33 1.35 0.05l14.24 15.47c0.36 0.39 0.33 0.99-0.05 1.35c-0.2 0.16-0.42 0.24-0.65 0.24z"/>
                    <path id="&lt;Compound Path&gt;" fill-rule="evenodd" class="s12" d="m2211.39 939.2c-0.36 0-0.7-0.2-0.86-0.55c-2.64-5.86-2.75-12.89-0.29-18.78l0.31-0.73c0.52-1.19 1.04-2.41 1.16-3.55c-0.11 0.21-0.21 0.46-0.31 0.68l-2.95 6.68c-1.22 2.79-2.92 6.58-6.24 8.36c-1.09 0.59-2.49 0.77-3.57 0.36c-0.73-0.26-1.27-0.77-1.53-1.47c-0.24-0.65-0.21-1.27-0.15-1.81c0.57-5.46 3.44-12.23 9.74-14.89c1.74-0.73 3.37-0.86 4.71-0.44c0.21-0.15 0.46-0.26 0.72-0.36c0.47-0.1 0.99 0.1 1.19 0.57c0.07 0.18 0.11 0.36 0.16 0.54c4.12 1.68 7.38 5.42 8.34 9.76c0.39 1.74-0.11 2.69-0.6 3.18c-0.98 0.94-2.41 0.78-3.39 0.13c-0.81-0.54-1.3-1.35-1.73-2.15c-1.16-2.13-2.18-4.37-3.06-6.66c-0.23 0.62-0.49 1.24-0.73 1.82l-0.31 0.72c-2.26 5.42-2.17 11.88 0.26 17.27c0.21 0.47 0 1.04-0.47 1.25c-0.17 0.05-0.3 0.08-0.39 0.08zm-1.58-24.47c-0.78 0-1.65 0.21-2.36 0.52c-4.58 1.92-7.95 7.15-8.6 13.32c-0.03 0.34-0.07 0.7 0.03 0.94c0.03 0.1 0.13 0.24 0.41 0.36c0.52 0.2 1.37 0.07 2.02-0.26c2.54-1.37 3.96-4.17 5.41-7.44l2.93-6.66c0.08-0.23 0.21-0.5 0.36-0.78c-0.07 0-0.13 0-0.2 0zm4.66 1.69l0.08 0.26c0.96 2.57 2.02 4.9 3.21 7.12c0.34 0.64 0.67 1.19 1.14 1.5c0.33 0.21 0.81 0.23 0.99 0.08c0.2-0.2 0.23-0.73 0.07-1.4c-0.7-3.13-2.77-5.9-5.49-7.56z"/>
                    <path id="&lt;Path&gt;" class="s9" d="m2163.83 902.4c2.95 6.41 6.96 19.54 5.86 42.25c-11.82 0.6-25.75-0.71-30-8.71c-6.63-12.48-4.14-28.22 4.63-31.75c4.82-1.94 12.14-2.02 19.5-1.79z"/>
                    <path id="&lt;Path&gt;" class="s13" d="m2167.51 942.42c-3.93 0-8.5-1.3-12.23-3.53c-4.06-2.41-9.14-7.05-10.36-15.41c-2.13-14.6 5.49-20.87 6.71-21.31c0.21-0.16 0.52 0.03 0.6 0.28c0.1 0.24-0.03 0.52-0.28 0.6c-1.12 0.46-8.1 6.63-6.09 20.3c1.17 7.98 6.03 12.41 9.9 14.73c4.32 2.59 9.71 3.84 13.86 3.24h0.07c0.23 0 0.44 0.16 0.47 0.41c0.03 0.26-0.15 0.5-0.41 0.54c-0.72 0.1-1.47 0.16-2.25 0.16z"/>
                </g>
                <g id="&lt;Group&gt;">
                    <g id="&lt;Group&gt;">
                        <path id="&lt;Path&gt;" class="s8" d="m2331.18 884.44c3.81-0.73 35.4 1.01 46.84-0.15c11.44-1.16 29.42-6.9 39.5-4.58c10.09 2.32 15.47 18.92 10.42 33.54c-5.05 14.63-38.35 15.67-48.41 15.09c-10.07-0.59-35.03 1.41-45.12-1.95c-6.73-2.24-10.69-5.09-11.89-8.55c3.24-21.78 6.13-32.91 8.67-33.4z"/>
                    </g>
                    <path id="&lt;Path&gt;" class="s9" d="m2358.96 928.29c1.82-0.54 44.46-3.07 51.97-6.54c7.51-3.46 12.06-15.74 7.21-32.08c-1.94-6.53-7.2-9.19-12.82-10.05c4.62-0.56 8.9-0.7 12.28 0.08c10.09 2.32 15.47 18.92 10.42 33.54c-5.05 14.63-38.35 15.67-48.41 15.09c-4.69-0.27-12.61 0.01-20.75 0.06c0.03-0.05 0.06-0.09 0.11-0.1z"/>
                    <g id="&lt;Group&gt;">
                        <path id="&lt;Path&gt;" class="s10" d="m2313.57 876.47c3.5 3.09 10 6.01 19.48 8.77c7.14 10.94 4.57 22.37-7.7 34.3c-4.78-1.34-9.45-3.54-13.99-6.62c-4.54-3.07-10.47-6.13-17.79-9.18c9.84-21.27 16.51-30.36 20.01-27.27z"/>
                    </g>
                    <g id="&lt;Group&gt;">
                        <path id="&lt;Path&gt;" class="s14" d="m2383.69 912.85c-0.01-1.15 0.91-2.09 2.06-2.1c1.15-0.01 2.09 0.91 2.1 2.06c0.01 1.15-0.91 2.09-2.06 2.1c-1.15 0.01-2.09-0.91-2.1-2.06z"/>
                        <path id="&lt;Path&gt;" class="s15" d="m2385.77 915.43c-1.43 0-2.59-1.16-2.59-2.57c-0.02-1.43 1.12-2.62 2.57-2.64c1.45 0 2.61 1.14 2.62 2.59c0.02 0.68-0.26 1.34-0.75 1.84c-0.47 0.49-1.12 0.77-1.82 0.78h-0.03z"/>
                    </g>
                    <g id="&lt;Group&gt;">
                        <path id="&lt;Path&gt;" class="s14" d="m2383.48 893.08c-0.01-1.15 0.91-2.09 2.06-2.1c1.15-0.01 2.09 0.91 2.1 2.06c0.01 1.15-0.91 2.09-2.06 2.1c-1.15 0.01-2.09-0.91-2.1-2.06z"/>
                        <path id="&lt;Path&gt;" class="s15" d="m2385.56 895.66c-1.43 0-2.59-1.16-2.59-2.57c-0.02-0.7 0.26-1.35 0.75-1.86c0.49-0.49 1.14-0.77 1.82-0.77c1.47 0 2.61 1.12 2.62 2.57c0.02 1.42-1.12 2.61-2.57 2.62h-0.03z"/>
                    </g>
                    <g id="&lt;Group&gt;">
                        <path id="&lt;Path&gt;" class="s14" d="m2370.6 912.99c-0.01-1.15 0.91-2.09 2.06-2.1c1.15-0.01 2.09 0.91 2.1 2.06c0.01 1.15-0.91 2.09-2.06 2.1c-1.15 0.01-2.09-0.91-2.1-2.06z"/>
                        <path id="&lt;Path&gt;" class="s15" d="m2372.7 915.58c-1.45 0-2.62-1.16-2.62-2.59c-0.02-0.68 0.24-1.34 0.73-1.84c0.49-0.49 1.14-0.77 1.84-0.78c1.43 0 2.61 1.16 2.62 2.57c0.02 1.43-1.12 2.62-2.57 2.64z"/>
                    </g>
                    <g id="&lt;Group&gt;">
                        <path id="&lt;Path&gt;" class="s14" d="m2370.39 893.22c-0.01-1.15 0.91-2.09 2.06-2.1c1.15-0.01 2.09 0.91 2.1 2.06c0.01 1.15-0.91 2.09-2.06 2.1c-1.15 0.01-2.09-0.91-2.1-2.06z"/>
                        <path id="&lt;Path&gt;" class="s15" d="m2372.49 895.8c-1.45 0-2.62-1.16-2.62-2.59c-0.02-0.68 0.26-1.34 0.75-1.84c0.47-0.49 1.12-0.77 1.82-0.78c1.47 0 2.62 1.16 2.62 2.59c0.02 0.68-0.26 1.34-0.75 1.84c-0.47 0.49-1.12 0.77-1.82 0.78z"/>
                    </g>
                    <g id="&lt;Group&gt;">
                        <path id="&lt;Path&gt;" class="s14" d="m2357.15 913.13c-0.01-1.15 0.91-2.09 2.06-2.1c1.15-0.01 2.09 0.91 2.1 2.06c0.01 1.15-0.91 2.09-2.06 2.1c-1.15 0.01-2.09-0.91-2.1-2.06z"/>
                        <path id="&lt;Path&gt;" class="s15" d="m2359.22 915.71c-1.4 0-2.57-1.16-2.59-2.57c0-1.45 1.14-2.61 2.59-2.62c1.43 0 2.61 1.16 2.62 2.57c0.02 0.7-0.26 1.35-0.75 1.86c-0.49 0.49-1.14 0.77-1.84 0.77h-0.03z"/>
                    </g>
                    <g id="&lt;Group&gt;">
                        <path id="&lt;Path&gt;" class="s14" d="m2356.94 893.36c-0.01-1.15 0.91-2.09 2.06-2.1c1.15-0.01 2.09 0.91 2.1 2.06c0.01 1.15-0.91 2.09-2.06 2.1c-1.15 0.01-2.09-0.91-2.1-2.06z"/>
                        <path id="&lt;Path&gt;" class="s15" d="m2359.02 895.93c-1.43 0-2.59-1.12-2.61-2.57c0-1.45 1.14-2.61 2.59-2.62c1.43 0 2.61 1.16 2.62 2.57c0.02 0.7-0.26 1.35-0.75 1.86c-0.49 0.49-1.14 0.77-1.82 0.77h-0.03z"/>
                    </g>
                    <g id="&lt;Group&gt;">
                        <path id="&lt;Path&gt;" class="s14" d="m2344.23 913.27c-0.01-1.15 0.91-2.09 2.06-2.1c1.15-0.01 2.09 0.91 2.1 2.06c0.01 1.15-0.91 2.09-2.06 2.1c-1.15 0.01-2.09-0.91-2.1-2.06z"/>
                        <path id="&lt;Path&gt;" class="s15" d="m2346.33 915.85c-1.43 0-2.61-1.16-2.62-2.59c-0.02-0.68 0.26-1.34 0.75-1.84c0.47-0.49 1.12-0.77 1.82-0.78c1.45 0 2.62 1.16 2.64 2.59c0 1.43-1.16 2.61-2.59 2.62z"/>
                    </g>
                    <g id="&lt;Group&gt;">
                        <path id="&lt;Path&gt;" class="s8" d="m2390.29 913.3l-54.41 0.26c-2.89 0.01-5.23-2.19-5.18-4.89l0.18-10.38c0.05-2.67 2.4-4.79 5.26-4.75l53.77 0.85l0.39 18.9z"/>
                    </g>
                    <g id="&lt;Group&gt;">
                        <path id="&lt;Path&gt;" class="s14" d="m2344.02 893.5c-0.01-1.15 0.91-2.09 2.06-2.1c1.15-0.01 2.09 0.91 2.1 2.06c0.01 1.15-0.91 2.09-2.06 2.1c-1.15 0.01-2.09-0.91-2.1-2.06z"/>
                        <path id="&lt;Path&gt;" class="s15" d="m2346.09 896.08c-1.4 0-2.57-1.16-2.59-2.59c-0.02-0.68 0.26-1.34 0.75-1.84c0.49-0.49 1.14-0.77 1.84-0.78c1.43 0 2.61 1.16 2.62 2.59c0 1.43-1.16 2.61-2.59 2.62h-0.03z"/>
                    </g>
                    <path id="&lt;Path&gt;" class="s12" d="m2359.25 914.33c-0.34 0-0.68-0.18-0.88-0.48l-11.01-17.21l0.16 16.59c0 0.58-0.46 1.06-1.02 1.06h-0.02c-0.58 0-1.04-0.46-1.04-1.02l-0.2-20.21c0-0.48 0.3-0.88 0.74-1.02c0.48-0.06 0.92 0.06 1.18 0.44l11.01 17.19l-0.18-16.31c0-0.46 0.28-0.88 0.72-1.02c0.44-0.06 0.94 0.04 1.18 0.4l11.71 16.87l-0.16-16.39c0-0.48 0.3-0.88 0.74-1.02c0.44-0.1 0.94 0.04 1.16 0.42l11.37 17.15l-0.18-16.69c0-0.58 0.46-1.06 1.02-1.06h0.02c0.56 0 1.04 0.46 1.04 1.02l0.22 20.21c0 0.46-0.3 0.88-0.74 1.02c-0.44 0.1-0.92-0.02-1.16-0.42l-11.37-17.15l0.16 16.25c0 0.46-0.28 0.88-0.72 1.02c-0.38 0.1-0.92-0.04-1.18-0.4l-11.71-16.85l0.18 16.55c0 0.48-0.3 0.88-0.74 1.02l-0.3 0.04z"/>
                    <path id="&lt;Path&gt;" class="s12" d="m2372.68 914.01c-0.2 0-0.4-0.06-0.58-0.18c-0.48-0.32-0.6-0.96-0.28-1.44l12.77-19.17c0.32-0.48 0.98-0.58 1.44-0.28c0.48 0.32 0.6 0.96 0.28 1.44l-12.77 19.17c-0.2 0.3-0.52 0.46-0.86 0.46z"/>
                    <path id="&lt;Path&gt;" class="s12" d="m2359.41 914.15c-0.2 0-0.4-0.06-0.58-0.18c-0.48-0.32-0.6-0.96-0.28-1.44l12.77-19.17c0.32-0.46 0.98-0.6 1.44-0.28c0.48 0.32 0.6 0.96 0.28 1.44l-12.77 19.17c-0.2 0.3-0.52 0.46-0.86 0.46z"/>
                    <path id="&lt;Path&gt;" class="s12" d="m2345.88 914.29c-0.2 0-0.4-0.06-0.58-0.18c-0.48-0.32-0.6-0.96-0.28-1.44l12.77-19.17c0.32-0.46 0.98-0.6 1.44-0.28c0.48 0.32 0.6 0.96 0.28 1.44l-12.77 19.17c-0.2 0.3-0.52 0.46-0.86 0.46z"/>
                    <path id="&lt;Compound Path&gt;" fill-rule="evenodd" class="s12" d="m2350.8 929c-0.1 0-0.18-0.02-0.28-0.04c-0.54-0.14-0.88-0.72-0.72-1.28c1.7-6.24 0.7-13.25-2.66-18.73l-0.46-0.72c-0.38-0.58-0.76-1.2-1.1-1.82c-0.58 2.7-1.3 5.28-2.16 7.7c-0.32 0.86-0.7 1.88-1.5 2.64c-0.96 0.82-2.5 1.26-3.68 0.42c-0.88-0.6-1.3-1.72-1.22-3.3c0.32-4.9 3.22-9.51 7.36-12.01c0.02-0.18 0.04-0.38 0.08-0.56c0.1-0.54 0.62-0.88 1.14-0.84c0.32 0.04 0.62 0.14 0.88 0.26c1.42-0.7 3.22-0.78 5.16-0.32c7.28 1.78 11.53 8.63 13.07 14.43c0.18 0.6 0.32 1.28 0.16 2c-0.18 0.78-0.66 1.42-1.4 1.82c-1.04 0.62-2.58 0.68-3.92 0.2c-3.9-1.34-6.38-5.16-8.19-7.95l-4.3-6.72c-0.14-0.24-0.3-0.48-0.48-0.7c0.32 1.2 1.1 2.44 1.86 3.62l0.46 0.76c3.68 5.96 4.76 13.59 2.9 20.37c-0.12 0.46-0.54 0.76-1 0.76zm-2.5-26.72c0.2 0.28 0.38 0.56 0.52 0.78l4.3 6.72c2.12 3.28 4.12 6.08 7.1 7.1c0.74 0.24 1.66 0.24 2.22-0.06c0.19-0.09 0.31-0.2 0.36-0.32c0.08-0.42 0-0.78-0.1-1.12c-1.76-6.6-6.28-11.69-11.55-12.99c-0.96-0.24-1.98-0.28-2.86-0.12zm-4.54 2.58c-2.66 2.26-4.42 5.6-4.66 9.11c-0.04 0.78 0.08 1.34 0.34 1.5c0.16 0.16 0.7 0.06 1.06-0.26c0.44-0.4 0.7-1.12 0.96-1.8c0.9-2.52 1.64-5.22 2.2-8.01c0.04-0.18 0.08-0.36 0.1-0.54z"/>
                    <path id="&lt;Path&gt;" class="s9" d="m2417.52 879.71c10.09 2.32 15.47 18.92 10.42 33.54c-3.24 9.37-18.07 13.16-30.95 14.53c-5.06-24.37-2.96-39.25-0.86-46.69c7.92-1.5 15.85-2.66 21.39-1.38z"/>
                    <path id="&lt;Path&gt;" class="s13" d="m2396.49 925.2c-0.28 0-0.52-0.22-0.52-0.52c0-0.28 0.22-0.52 0.52-0.52c4.46-0.04 11.23-2.4 16.29-7.57c4.22-4.3 6.4-9.81 6.34-15.91c-0.16-15.09-8.77-20.59-10.05-20.91c-0.28-0.06-0.46-0.34-0.4-0.62c0.08-0.28 0.28-0.46 0.6-0.38c1.4 0.28 10.71 5.84 10.89 21.91c0.08 6.36-2.22 12.13-6.64 16.63c-5.26 5.38-12.35 7.85-17.03 7.89z"/>
                </g>
                <g id="&lt;Group&gt;">
                    <path id="&lt;Path&gt;" class="s0" d="m2320.9 861.76l-24.7 45.38c-48.47-10.49-83.13-19.4-103.98-26.75c-31.28-11.02-77.83-44.56-80.03-53.74c-2.2-9.18 10.21-40.37 27.87-44.82c11.78-2.96 28.09-0.77 48.95 6.58l131.9 73.35z"/>
                </g>
                <g id="&lt;Group&gt;">
                    <path id="&lt;Path&gt;" class="s0" d="m2340.67 791.13c34.27-4.52 57.86-3.44 70.76 3.22c19.35 10 26.72 46.14 13.05 59.6c-9.12 8.97-64.86 33.95-167.22 74.94c-14.58-8.67-23.51-23.82-26.78-45.45l98.85-57.07l11.35-35.25z"/>
                </g>
                <path id="&lt;Path&gt;" class="s16" d="m2239.07 876.51c3.3 23.96 12.79 40.78 28.44 50.46l-13.69 5.45c-17.8-15.85-26.38-32.71-25.74-50.58l10.99-5.33z"/>
                <path id="&lt;Path&gt;" class="s17" d="m2345.64 820.79c-0.22 0-0.46-0.08-0.64-0.22c-0.46-0.36-0.54-1.02-0.18-1.46c5.28-6.64 22.57-19.61 23.32-20.17c0.46-0.36 1.08-0.24 1.46 0.22c0.34 0.46 0.24 1.1-0.22 1.46c-0.18 0.12-17.79 13.35-22.92 19.77c-0.22 0.26-0.52 0.4-0.82 0.4z"/>
                <g id="&lt;Group&gt;">
                    <path id="&lt;Path&gt;" class="s10" d="m2395.84 660.89c21.16 35.16 31.74 57.71 31.74 67.65c0 9.95-23.65 34.35-70.95 73.2l-15.27-40.94c23.24-24.17 35.68-36.83 37.3-37.99l-16.13-28.62l33.31-33.31z"/>
                </g>
                <path id="&lt;Path&gt;" class="s10" d="m2192.89 698.88c-7.29 18.04-10.23 27.06-8.85 27.06c1.39 0 16.48 13.7 45.27 41.11l-8.85 26.02c-59.33-23.42-85.35-54.12-87.43-62.97c-1.39-5.9 5.55-26.71 20.82-62.45l39.03 31.22z"/>
                <path id="&lt;Path&gt;" class="s2" d="m2295.92 590.11c33.31 6.01 56.2 14.11 68.69 24.29c12.49 10.18 27.52 31.69 45.1 64.53c-11.56 16.19-26.02 24.4-43.37 24.63l-14.22-19.78c-5.09 19.43-7.63 37.47-7.63 54.12c0 16.65-1.85 28.22-5.55 34.69l-126.28-8.33l2.08-32.61l-9.71-42.33l-7.63 13.88c-26.83 0.93-46.03-4.16-57.59-15.27c19.43-44.41 34.46-70.31 45.1-77.71c10.64-7.4 34.69-13.65 72.16-18.73l38.86-1.39z"/>
                <g id="&lt;Group&gt;">
                    <path id="&lt;Path&gt;" class="s10" d="m2297.35 571.67l1.12 16.37c0.25 3.61 2.82 2.76 6.17 3.9c-2.02 15.32-11.76 22.98-29.22 22.98c-17.46 0-29.13-6.94-35-20.82c7.62-2.79 12.9-8.72 13.59-16.8l1.91-22.39l41.42 16.75z"/>
                </g>
                <path id="&lt;Path&gt;" class="s18" d="m2254.61 570.2l1.31-15.29l41.42 16.75l0.92 13.4c-4.68 2.23-29.9 12.62-43.65-14.87z"/>
                <g id="&lt;Group&gt;">
                    <path id="&lt;Path&gt;" class="s19" d="m2312 536.27c4.17-2.1 7.02-1.95 8.54 0.47c2.41 3.84-0.63 14.34-11.24 13.22c-0.56-4 0.34-8.56 2.7-13.69z"/>
                    <g id="&lt;Group&gt;">
                        <path id="&lt;Mesh&gt;" class="s20" d="m2317.16 520.47c-9.43-1.53-18.92-2.72-28.35-4.27c0.91-10.96 2.29-22.65 0.3-33.58c7.02 2.14 14.01 5.97 19.26 11.55c6.92 7.35 9.14 16.42 8.8 26.3zm-16.82 51.77c-3.75 4.68-10.13 11.35-19.39 10.42c8.09-20.71 6.05-44.55 7.86-66.46c9.43 1.54 18.93 2.73 28.35 4.27c-0.6 17.09-6.91 37.28-16.82 51.77zm-11.53-56.04c-15-2.11-30.48-3.33-45.59-1.69c0.82-8.85 3.84-18.52 11.79-25.61c9.68-8.63 21.97-9.97 34.09-6.28c1.99 10.93 0.61 22.62-0.3 33.58zm-7.86 66.46c-10.03-1-23.97-6.21-30.9-30.26c-1.27-4.82-2.1-10.76-3.37-15.59c0 0-4.59-10.02-3.45-22.31c15.11-1.64 30.59-0.41 45.59 1.69c-1.81 21.91 0.23 45.75-7.86 66.46z"/>
                    </g>
                    <path id="&lt;Path&gt;" class="s21" d="m2285.11 556.95c-0.11-0.01-0.22-0.08-0.28-0.18c-0.46-0.84-0.4-1.48 0.21-2.35c0.33-0.47 0.91-0.46 1.38-0.46c0.09 0 0.18 0 0.27 0l0.54-0.05c0.77-0.06 1.49-0.13 2.15-0.4c0.68-0.28 1.36-0.91 1.37-1.69c0-0.38-0.16-0.76-0.32-1.17l-0.04-0.09c-1.63-3.97-1.99-8.45-1.01-12.63c0.04-0.19 0.25-0.31 0.43-0.26c0.19 0.04 0.31 0.24 0.26 0.43c-0.95 4.03-0.6 8.36 0.97 12.19l0.04 0.09c0.19 0.45 0.38 0.92 0.37 1.44c-0.01 1.1-0.91 1.97-1.8 2.34c-0.76 0.31-1.57 0.38-2.36 0.45l-0.41 0.04c-0.2 0.01-0.36 0.01-0.46 0.01c-0.33 0-0.68 0-0.79 0.16c-0.46 0.65-0.49 1.01-0.17 1.6c0.09 0.17 0.03 0.39-0.14 0.48l-0.21 0.04z"/>
                    <path id="&lt;Path&gt;" class="s22" d="m2318.34 506.77c1.67 4.42 0.62 14.17-3.14 29.25c0.07-5.65-0.49-13.87-1.67-24.65c1.54-7.49 3.14-9.02 4.81-4.59z"/>
                    <path id="&lt;Path&gt;" class="s6" d="m2286.12 564.96c-3.86 0-8.85-0.62-13.93-2.9c-0.22-0.1-0.3-0.36-0.22-0.58c0.12-0.2 0.36-0.28 0.58-0.22c7.08 3.2 13.99 3.9 20.71 2.08l0.16-0.06c0.22 0 0.4 0.14 0.46 0.32c0.06 0.24-0.08 0.48-0.3 0.54c-2.03 0.55-4.52 0.82-7.46 0.82z"/>
                    <path id="&lt;Path&gt;" class="s6" d="m2282.98 569.14c-1.18 0-2.58-0.22-4.2-0.86c-0.22-0.08-0.32-0.34-0.24-0.56c0.1-0.2 0.28-0.34 0.56-0.24c4.48 1.8 7.22 0.02 7.34-0.06c0.24-0.1 0.5-0.06 0.6 0.12c0.12 0.2 0.08 0.46-0.12 0.6c-0.08 0.06-1.5 1-3.94 1z"/>
                    <path id="&lt;Path&gt;" class="s22" d="m2271.16 506.71c-2.83 9.7-8.88 17.6-14.79 25.2c-0.27 0.34-0.82 1.29-1.1 1.62c-0.65 0.75-1.74 1.96-2.35 2.74c-1.45 1.84-2.78 4.7-3.51 6.81c-5.82-7.67-8.61-17.75-8.8-27.99c-0.13-6.65 0.63-13.42 2.97-19.48c2.34-6.07 6.38-11.39 11.61-14.07c-2.09-1.24-4.51-1.71-6.84-1.33c2.7-2.28 6.44-2.79 9.53-1.29c0.07-4.49 1.57-8.93 4.16-12.26c-0.42 3.73-0.27 7.54 0.44 11.2c1.71-2.14 4.14-3.28 6.55-4.12c16.26-5.66 35.07 0.27 46.66 14.7c2.37 2.95 4.45 6.22 6.99 8.98c2.53 2.76 5.65 5.04 9.1 5.42c-3.47 0.74-7.13 0.29-10.4-1.26c2.6 4.79 6.94 8.25 11.72 9.34c-2.79 2.32-6.34 3.36-9.74 2.84c1.99 2.06 4.31 3.68 6.8 4.76c-7.23 4.48-15.99 4.87-23.93 2.54c-7.95-2.33-15.19-7.19-21.85-12.74c0.63 6.44 4.99 11.42 9.08 15.81c-3.33-1.3-6.66-2.61-9.99-3.92c-2.11-0.83-4.27-1.69-5.98-3.34c-2.83-2.71-4.02-7.07-6.34-10.36c0.26 0.66 0.53 1.31 0.79 1.97"/>
                    <g id="&lt;Group&gt;">
                        <path id="&lt;Path&gt;" class="s10" d="m2248.83 544.41c-12.65-3.18-11.19-15.91-6.43-17.09c8-1.98 11.5 0.76 10.52 8.25c0.33 5.5-1.04 8.45-4.09 8.85z"/>
                    </g>
                </g>
                <path id="&lt;Path&gt;" class="s6" d="m2368.09 719.55v103.39c0 5.16-4.18 9.34-9.34 9.34h-157.56c-5.16 0-9.34-4.18-9.34-9.34v-103.39c0-5.16 4.18-9.34 9.34-9.34h157.56c5.16 0 9.34 4.18 9.34 9.34z"/>
                <path id="&lt;Path&gt;" class="s9" d="m2279.66 777.37c-5.7 0-10.31-4.62-10.31-10.31c0-5.7 4.62-10.31 10.31-10.31c5.7 0 10.31 4.62 10.31 10.31c0 5.7-4.62 10.31-10.31 10.31z"/>
            </g>
            <g id="&lt;Group&gt;">
                <g id="&lt;Group&gt;"/>
                <g id="&lt;Group&gt;"/>
                <g id="&lt;Group&gt;" style="mix-blend-mode: multiply"/>
            </g>
            <path id="&lt;Path&gt;" class="s12" d="m2447.71 1944.92h-798.78v-955.36h798.78v955.36z"/>
            <g id="&lt;Group&gt;">
                <path id="&lt;Path&gt;" class="s23" d="m2132.59 1421.87h-217.24c-7.2 0-13.09-5.89-13.09-13.09c0-7.2 5.89-13.09 13.09-13.09h217.24c7.2 0 13.09 5.89 13.09 13.09c0 7.2-5.89 13.09-13.09 13.09z"/>
                <path id="&lt;Path&gt;" class="s24" d="m2284.59 1505.62h-520.19c-3.6 0-6.54-2.94-6.54-6.54c0-3.6 2.94-6.54 6.54-6.54h520.19c3.6 0 6.54 2.94 6.54 6.54c0 3.6-2.94 6.54-6.54 6.54z"/>
                <path id="&lt;Path&gt;" class="s24" d="m1986.87 1560.59h-223.55c-3 0-5.46-2.46-5.46-5.46v-2.16c0-3 2.46-5.46 5.46-5.46h223.55c3 0 5.46 2.46 5.46 5.46v2.16c0 3-2.46 5.46-5.46 5.46z"/>
                <path id="&lt;Path&gt;" class="s24" d="m2250.39 1560.59h-223.55c-3 0-5.46-2.46-5.46-5.46v-2.16c0-3 2.46-5.46 5.46-5.46h223.55c3 0 5.46 2.46 5.46 5.46v2.16c0 3-2.46 5.46-5.46 5.46z"/>
                <path id="&lt;Path&gt;" class="s24" d="m2284.59 1628.64h-520.19c-3.6 0-6.54-2.94-6.54-6.54c0-3.6 2.94-6.54 6.54-6.54h520.19c3.6 0 6.54 2.94 6.54 6.54c0 3.6-2.94 6.54-6.54 6.54z"/>
                <path id="&lt;Path&gt;" class="s24" d="m1986.87 1683.6h-223.55c-3 0-5.46-2.46-5.46-5.46v-2.16c0-3 2.46-5.46 5.46-5.46h223.55c3 0 5.46 2.46 5.46 5.46v2.16c0 3-2.46 5.46-5.46 5.46z"/>
                <path id="&lt;Path&gt;" class="s24" d="m2250.39 1683.6h-223.55c-3 0-5.46-2.46-5.46-5.46v-2.16c0-3 2.46-5.46 5.46-5.46h223.55c3 0 5.46 2.46 5.46 5.46v2.16c0 3-2.46 5.46-5.46 5.46z"/>
                <path id="&lt;Path&gt;" class="s25" d="m2122.98 1764.19v0c0 22.31-18.26 40.57-40.57 40.57h-157.04c-22.31 0-40.57-18.26-40.57-40.57v0c0-22.31 18.26-40.57 40.57-40.57h157.04c22.31 0 40.57 18.26 40.57 40.57z"/>
            </g>
            <g id="&lt;Clip Group&gt;" clip-path="url(#cp1)">
                <path id="&lt;Path&gt;" class="s12" d="m960.25 805.28h725.97v1372.79h-725.97v-1372.79z"/>
                <path id="&lt;Path&gt;" class="s26" d="m1130.14 1135.42v-191.84h36.55v191.84h-36.55z"/>
                <path id="&lt;Path&gt;" class="s22" d="m1659.93 1067.28h-700.04v-97.39h700.04v97.39z"/>
                <path id="&lt;Path&gt;" class="s12" d="m1578.69 1007.45v2.71c0 0.69-0.56 1.25-1.25 1.25h-54.75c-0.69 0-1.25-0.56-1.25-1.25v-2.71c0-0.69 0.56-1.25 1.25-1.25h54.75c0.69 0 1.25 0.56 1.25 1.25z"/>
                <path id="&lt;Path&gt;" class="s12" d="m1578.69 1017.45v2.71c0 0.69-0.56 1.25-1.25 1.25h-54.75c-0.69 0-1.25-0.56-1.25-1.25v-2.71c0-0.69 0.56-1.25 1.25-1.25h54.75c0.69 0 1.25 0.56 1.25 1.25z"/>
                <path id="&lt;Path&gt;" class="s12" d="m1578.69 1028.53v2.71c0 0.69-0.56 1.25-1.25 1.25h-54.75c-0.69 0-1.25-0.56-1.25-1.25v-2.71c0-0.69 0.56-1.25 1.25-1.25h54.75c0.69 0 1.25 0.56 1.25 1.25z"/>
                <path id="&lt;Path&gt;" class="s22" d="m1651.01 1165.24h-668.31v-20.87h668.31v20.87z"/>
                <path id="&lt;Path&gt;" class="s22" d="m1426.51 1533.3v-376.48h20.75v376.48h-20.75z"/>
                <path id="&lt;Path&gt;" class="s22" d="m974.54 1512.42h683.87v20.87h-683.87v-20.87z"/>
                <path id="&lt;Path&gt;" class="s22" d="m1185.68 2026.02v-985.96h30.65v985.96h-30.65z"/>
                <path id="&lt;Path&gt;" class="s22" d="m1201.04 1740.58h598.15v30.84h-598.15v-30.84z"/>
                <path id="&lt;Path&gt;" class="s26" d="m1420.83 1135.42h-190.66v-36.78h190.66v36.78z"/>
                <path id="&lt;Path&gt;" class="s26" d="m1164.47 1135.42h-190.66v-36.78h190.66v36.78z"/>
                <path id="&lt;Path&gt;" class="s26" d="m1631.25 1135.42h-190.66v-36.78h190.66v36.78z"/>
                <path id="&lt;Path&gt;" class="s26" d="m1376.37 1335.21v-159.04h36.55v159.04h-36.55z"/>
                <path id="&lt;Path&gt;" class="s26" d="m1236.09 1384.91v-159.04h36.55v159.04h-36.55z"/>
                <path id="&lt;Path&gt;" class="s26" d="m1130.88 1715.9v-159.04h36.55v159.04h-36.55z"/>
                <path id="&lt;Path&gt;" class="s26" d="m1130.88 1998.19v-257.81h36.55v257.81h-36.55z"/>
                <path id="&lt;Path&gt;" class="s26" d="m1044.44 1723.85v-83.86h60.76v83.86h-60.76z"/>
                <path id="&lt;Path&gt;" class="s26" d="m1044.44 1836.17v-83.86h60.76v83.86h-60.76z"/>
                <path id="&lt;Path&gt;" class="s26" d="m1044.44 1952.47v-83.86h60.76v83.86h-60.76z"/>
                <path id="&lt;Path&gt;" class="s26" d="m990.94 1556.87h158.06v36.78h-158.06v-36.78z"/>
                <path id="&lt;Path&gt;" class="s26" d="m1459.35 1384.91v-159.04h36.55v159.04h-36.55z"/>
                <path id="&lt;Path&gt;" class="s26" d="m1511.22 1226.37h158.06v36.78h-158.06v-36.78z"/>
                <path id="&lt;Path&gt;" class="s26" d="m1511.22 1286.01h158.06v36.78h-158.06v-36.78z"/>
                <path id="&lt;Path&gt;" class="s26" d="m1511.22 1345.65h158.06v36.78h-158.06v-36.78z"/>
                <path id="&lt;Path&gt;" class="s26" d="m1468.25 1458.96h201.04v36.78h-201.04v-36.78z"/>
                <path id="&lt;Path&gt;" class="s26" d="m1041.47 1337.69v-159.04h36.55v159.04h-36.55z"/>
                <path id="&lt;Path&gt;" class="s26" d="m1091.86 1337.69v-159.04h36.55v159.04h-36.55z"/>
                <path id="&lt;Path&gt;" class="s26" d="m1041.47 1502.45v-159.04h36.55v159.04h-36.55z"/>
                <path id="&lt;Path&gt;" class="s26" d="m1091.86 1502.45v-159.04h36.55v159.04h-36.55z"/>
                <path id="&lt;Path&gt;" class="s26" d="m1236.09 1373.48h158.06v36.78h-158.06v-36.78z"/>
                <path id="&lt;Path&gt;" class="s26" d="m1234.77 1555.38h158.06v36.78h-158.06v-36.78z"/>
                <path id="&lt;Path&gt;" class="s26" d="m1244.2 1791.69h158.06v36.78h-158.06v-36.78z"/>
                <path id="&lt;Path&gt;" class="s26" d="m1430.91 1791.69h158.06v36.78h-158.06v-36.78z"/>
                <path id="&lt;Path&gt;" class="s26" d="m1244.2 1858.79h158.06v36.78h-158.06v-36.78z"/>
                <path id="&lt;Path&gt;" class="s26" d="m1430.91 1858.79h158.06v36.78h-158.06v-36.78z"/>
                <path id="&lt;Path&gt;" class="s26" d="m1428.89 1555.38h158.06v36.78h-158.06v-36.78z"/>
                <path id="&lt;Path&gt;" class="s26" d="m1234.77 1613.52h158.06v36.78h-158.06v-36.78z"/>
                <path id="&lt;Path&gt;" class="s26" d="m1428.89 1613.52h158.06v36.78h-158.06v-36.78z"/>
                <path id="&lt;Path&gt;" class="s26" d="m1234.77 1176.67h158.06v36.78h-158.06v-36.78z"/>
                <path id="&lt;Path&gt;" class="s26" d="m1234.77 1432.33h79.03v67.81h-79.03v-67.81z"/>
                <path id="&lt;Path&gt;" class="s26" d="m1234.77 1663.43h79.03v67.81h-79.03v-67.81z"/>
                <path id="&lt;Path&gt;" class="s26" d="m1350.36 1663.43h79.03v67.81h-79.03v-67.81z"/>
                <path id="&lt;Path&gt;" class="s26" d="m1464.46 1663.43h79.03v67.81h-79.03v-67.81z"/>
                <path id="&lt;Path&gt;" class="s26" d="m1579.3 1663.43h79.03v67.81h-79.03v-67.81z"/>
                <path id="&lt;Path&gt;" class="s26" d="m1330.6 1432.33h79.03v67.81h-79.03v-67.81z"/>
                <path id="&lt;Path&gt;" class="s2" d="m1352.17 1261.45v61.53c0 17.93-14.67 32.6-32.6 32.6h0c-17.93 0-32.6-14.67-32.6-32.6v-61.53c0-17.93 14.67-32.6 32.6-32.6c17.93 0 32.6 14.67 32.6 32.6z"/>
                <path id="&lt;Path&gt;" class="s2" d="m1156.19 1211.96c-10.03 0-18.15-8.18-18.15-18.26c0-10.09 8.13-18.26 18.15-18.26c10.03 0 18.15 8.18 18.15 18.26c0 10.09-8.13 18.26-18.15 18.26z"/>
                <path id="&lt;Path&gt;" class="s26" d="m1471.09 1207.48c-10.03 0-18.15-8.18-18.15-18.26c0-10.09 8.13-18.26 18.15-18.26c10.03 0 18.15 8.18 18.15 18.26c0 10.09-8.13 18.26-18.15 18.26z"/>
                <path id="&lt;Path&gt;" class="s2" d="m1516.9 1207.48c-10.03 0-18.15-8.18-18.15-18.26c0-10.09 8.13-18.26 18.15-18.26c10.03 0 18.15 8.18 18.15 18.26c0 10.09-8.13 18.26-18.15 18.26z"/>
                <path id="&lt;Path&gt;" class="s2" d="m1565.8 1207.48c-10.03 0-18.15-8.18-18.15-18.26c0-10.09 8.13-18.26 18.15-18.26c10.03 0 18.15 8.18 18.15 18.26c0 10.09-8.13 18.26-18.15 18.26z"/>
                <path id="&lt;Path&gt;" class="s2" d="m1614.7 1207.48c-10.03 0-18.15-8.18-18.15-18.26c0-10.09 8.13-18.26 18.15-18.26c10.03 0 18.15 8.18 18.15 18.26c0 10.09-8.13 18.26-18.15 18.26z"/>
                <path id="&lt;Path&gt;" class="s2" d="m1156.19 1260.16c-10.03 0-18.15-8.18-18.15-18.26c0-10.09 8.13-18.26 18.15-18.26c10.03 0 18.15 8.18 18.15 18.26c0 10.09-8.13 18.26-18.15 18.26z"/>
                <path id="&lt;Path&gt;" class="s2" d="m1156.19 1309.86c-10.03 0-18.15-8.18-18.15-18.26c0-10.09 8.13-18.26 18.15-18.26c10.03 0 18.15 8.18 18.15 18.26c0 10.09-8.13 18.26-18.15 18.26z"/>
                <path id="&lt;Path&gt;" class="s2" d="m1156.19 1361.55c-10.03 0-18.15-8.18-18.15-18.26c0-10.09 8.13-18.26 18.15-18.26c10.03 0 18.15 8.18 18.15 18.26c0 10.09-8.13 18.26-18.15 18.26z"/>
                <path id="&lt;Path&gt;" class="s2" d="m1156.19 1407.02c-10.03 0-18.15-8.18-18.15-18.26c0-10.09 8.13-18.26 18.15-18.26c10.03 0 18.15 8.18 18.15 18.26c0 10.09-8.13 18.26-18.15 18.26z"/>
                <path id="&lt;Path&gt;" class="s2" d="m1156.19 1456.72c-10.03 0-18.15-8.18-18.15-18.26c0-10.09 8.13-18.26 18.15-18.26c10.03 0 18.15 8.18 18.15 18.26c0 10.09-8.13 18.26-18.15 18.26z"/>
                <path id="&lt;Path&gt;" class="s2" d="m1156.19 1508.41c-10.03 0-18.15-8.18-18.15-18.26c0-10.09 8.13-18.26 18.15-18.26c10.03 0 18.15 8.18 18.15 18.26c0 10.09-8.13 18.26-18.15 18.26z"/>
                <path id="&lt;Path&gt;" class="s8" d="m1290.43 1770.57h-92.79v-243.24h238.58v-297.29h49.54c3.27 0 5.93 2.67 5.93 5.96c0 3.29-2.65 5.96-5.93 5.96h-37.69v297.29h-238.58v219.38h80.94c3.27 0 5.93 2.67 5.93 5.96c0 3.29-2.65 5.96-5.93 5.96z"/>
                <g id="&lt;Group&gt;">
                    <path id="&lt;Path&gt;" class="s0" d="m1244.99 1720.8c0-22.36 17.51-40.48 39.12-40.48c21.61 0 39.12 18.12 39.12 40.48c0 22.36-38.65 80.28-39.12 80.28c-0.69 0-39.12-57.93-39.12-80.28z"/>
                    <path id="&lt;Path&gt;" class="s27" d="m1252.98 1720.8c0-17.6 13.79-31.88 30.81-31.88c17.01 0 30.81 14.27 30.81 31.88c0 17.6-13.79 31.88-30.81 31.88c-17.01 0-30.81-14.27-30.81-31.88z"/>
                    <path id="&lt;Path&gt;" class="s12" d="m1259.66 1721.14c0-13.97 10.95-25.3 24.45-25.3c13.5 0 24.45 11.33 24.45 25.3c0 13.97-10.95 25.3-24.45 25.3c-13.5 0-24.45-11.33-24.45-25.3z"/>
                </g>
                <g id="&lt;Group&gt;">
                    <path id="&lt;Path&gt;" class="s8" d="m1440.32 1155.73c0-22.36 17.51-40.48 39.12-40.48c21.61 0 39.12 18.12 39.12 40.48c0 22.36-38.65 80.28-39.12 80.28c-0.69 0-39.12-57.93-39.12-80.28z"/>
                    <path id="&lt;Path&gt;" class="s27" d="m1448.31 1155.73c0-17.6 13.79-31.88 30.81-31.88c17.01 0 30.81 14.27 30.81 31.88c0 17.6-13.79 31.88-30.81 31.88c-17.01 0-30.81-14.27-30.81-31.88z"/>
                    <path id="&lt;Path&gt;" class="s12" d="m1454.99 1156.06c0-13.97 10.95-25.3 24.45-25.3c13.5 0 24.45 11.33 24.45 25.3c0 13.97-10.95 25.3-24.45 25.3c-13.5 0-24.45-11.33-24.45-25.3z"/>
                </g>
            </g>
            <g id="&lt;Clip Group&gt;" clip-path="url(#cp2)">
                <path id="&lt;Path&gt;" class="s2" d="m2016.35 1450.12c-125 0-226.33-101.33-226.33-226.33c0-125 101.33-226.33 226.33-226.33c125 0 226.33 101.33 226.33 226.33c0 125-101.33 226.33-226.33 226.33z"/>
            </g>
            <g id="&lt;Group&gt;">
                <g id="&lt;Group&gt;">
                    <path id="&lt;Path&gt;" class="s22" d="m1867.51 1110.7l298.42 0.9l-0.55 183.28l-298.42-0.9l0.55-183.28z"/>
                </g>
                <g id="&lt;Group&gt;">
                    <g id="&lt;Group&gt;">
                        <path id="&lt;Path&gt;" class="s28" d="m2141.24 1262.02l2.09 0.01l-0.06 18.7l-2.09-0.01l0.06-18.7z"/>
                        <g id="&lt;Group&gt;">
                            <path id="&lt;Path&gt;" class="s28" d="m2140.3 1263.37l2.01-7.39l1.96 7.41l-3.97-0.01z"/>
                        </g>
                    </g>
                    <g id="&lt;Group&gt;">
                        <path id="&lt;Path&gt;" class="s28" d="m2147.85 1262.04l2.09 0.01l-0.06 18.7l-2.09-0.01l0.06-18.7z"/>
                        <g id="&lt;Group&gt;">
                            <path id="&lt;Path&gt;" class="s28" d="m2146.91 1263.39l2.01-7.39l1.96 7.41l-3.97-0.01z"/>
                        </g>
                    </g>
                    <path id="&lt;Path&gt;" class="s28" d="m2138.07 1281.99l14.85 0.04l-0.01 2.13l-14.85-0.04l0.01-2.13z"/>
                </g>
                <g id="&lt;Group&gt;">
                    <path id="&lt;Path&gt;" class="s28" d="m2125.41 1282.96l0.04-11.98c0.23 0.04 0.47 0.06 0.71 0.07c0.24 0 0.48-0.02 0.71-0.06l-0.04 11.98l3.9 0.01l0 1.12l-9.22-0.03l0-1.12l3.9 0.01z"/>
                    <path id="&lt;Path&gt;" class="s28" d="m2126.16 1270.59c-2.42-0.01-4.38-1.98-4.37-4.4l0.03-10.61l8.77 0.03l-0.03 10.61c-0.01 2.42-1.98 4.38-4.4 4.37z"/>
                </g>
                <path id="&lt;Path&gt;" class="s28" d="m2106.79 1255.03l0.02 0c5.34 0.02 9.7 3.38 9.94 7.6c-0.32-0.39-0.95-0.66-1.67-0.67c-0.76 0-1.42 0.3-1.72 0.73c-0.3-0.43-0.96-0.74-1.72-0.74c-0.57 0-1.09 0.17-1.43 0.43c-0.35-0.27-0.86-0.44-1.43-0.44c-0.72 0-1.34 0.27-1.66 0.66l-0.04 15.05c-0.02 5.45 0.34 5.68 1.69 5.68c0.22 0 0.38-0.08 0.53-0.26c0.61-0.74 0.55-2.73 0.48-3.44c-0.03-0.28 0.15-0.52 0.4-0.55c0.25-0.03 0.48 0.17 0.5 0.44c0.03 0.31 0.28 3.01-0.71 4.22c-0.32 0.39-0.73 0.59-1.21 0.59c-2.42-0.01-2.62-1.64-2.6-6.69l0.05-15.56c-0.26-0.09-0.55-0.16-0.87-0.16c-0.72 0-1.35 0.26-1.67 0.66c-0.32-0.4-0.95-0.67-1.67-0.67c-0.76 0-1.42 0.3-1.72 0.73c-0.3-0.43-0.96-0.74-1.72-0.74c-0.78 0-1.44 0.31-1.74 0.75c0.21-4.26 4.6-7.65 9.99-7.63z"/>
                <path id="&lt;Path&gt;" class="s29" d="m1867.19 1217.69l0.07-23.42l298.42 0.9l-0.07 23.42l-298.42-0.9z"/>
                <g id="&lt;Clip Group&gt;" clip-path="url(#cp3)" style="opacity: .3">
                    <path id="&lt;Path&gt;" class="s30" d="m1866.22 1111.54l2.58-1.67l58.6 90.86l59.14-90.5l2.57 1.68l-59.89 91.65l59.34 92.01l-2.58 1.67l-58.6-90.86l-59.14 90.5l-2.57-1.68l59.89-91.65l-59.34-92.01z"/>
                </g>
                <path id="&lt;Path&gt;" class="s31" d="m1867.51 1110.7l120.31 0.36l-0.55 183.28l-120.31-0.36l0.55-183.28z"/>
                <path id="&lt;Path&gt;" class="s29" d="m2076.14 1111.33l23.42 0.07l-0.55 183.28l-23.42-0.07l0.55-183.28z"/>
                <g id="&lt;Group&gt;">
                    <path id="&lt;Path&gt;" class="s12" d="m1999.43 1123.64l52.73 0.16l-0.14 45.82l-52.73-0.16l0.14-45.82z"/>
                    <path id="&lt;Path&gt;" class="s28" d="m2004.85 1129.66l0-0.04c0-0.46 0.38-0.84 0.85-0.84l41.32 0.12c0.46 0 0.84 0.38 0.84 0.85l0 0.04c0 0.46-0.38 0.84-0.85 0.84l-41.32-0.12c-0.46 0-0.84-0.38-0.84-0.85z"/>
                    <path id="&lt;Path&gt;" class="s28" d="m2015.21 1134.11l0-0.04c0-0.46 0.38-0.84 0.85-0.84l30.95 0.09c0.46 0 0.84 0.38 0.84 0.85l0 0.04c0 0.46-0.38 0.84-0.85 0.84l-30.95-0.09c-0.46 0-0.84-0.38-0.84-0.85z"/>
                    <path id="&lt;Path&gt;" class="s28" d="m2015.19 1138.05l0-0.04c0-0.46 0.38-0.84 0.85-0.84l30.95 0.09c0.46 0 0.84 0.38 0.84 0.85l0 0.04c0 0.46-0.38 0.84-0.85 0.84l-30.95-0.09c-0.46 0-0.84-0.38-0.84-0.85z"/>
                    <path id="&lt;Path&gt;" class="s28" d="m2003.05 1153.46l0-0.04c0-0.46 0.38-0.84 0.85-0.84l16.87 0.05c0.46 0 0.84 0.38 0.84 0.85l0 0.04c0 0.46-0.38 0.84-0.85 0.84l-16.87-0.05c-0.46 0-0.84-0.38-0.84-0.85z"/>
                    <path id="&lt;Path&gt;" class="s28" d="m2003.04 1156.79l0-0.04c0-0.46 0.38-0.84 0.85-0.84l10.66 0.03c0.46 0 0.84 0.38 0.84 0.85l0 0.04c0 0.46-0.38 0.84-0.85 0.84l-10.66-0.03c-0.46 0-0.84-0.38-0.84-0.85z"/>
                    <path id="&lt;Path&gt;" class="s28" d="m2003.03 1160.06l0-0.04c0-0.46 0.38-0.84 0.85-0.84l10.66 0.03c0.46 0 0.84 0.38 0.84 0.85l0 0.04c0 0.46-0.38 0.84-0.85 0.84l-10.66-0.03c-0.46 0-0.84-0.38-0.84-0.85z"/>
                </g>
            </g>
            <g id="&lt;Group&gt;">
                <g id="&lt;Group&gt;">
                    <g id="&lt;Group&gt;">
                        <path id="&lt;Path&gt;" class="s32" d="m2884.48 2028.89l-19.25-94.2l41.01-6.19l3.7 98.23l-25.47 2.16z"/>
                    </g>
                    <g id="&lt;Group&gt;">
                        <g id="&lt;Group&gt;">
                            <path id="&lt;Path&gt;" class="s8" d="m2910.08 2017.1c6.04 16.27 7.72 30.7 5.06 43.27l-105.49 1.91c-4.58-13.41 1.05-21.94 16.88-25.6c15.83-3.66 33.87-11.72 54.1-24.2c10.14 11.44 19.96 12.98 29.45 4.62z"/>
                        </g>
                        <path id="&lt;Path&gt;" class="s12" d="m2915.17 2060.37l-105.49 1.91c-1.12-3.29-1.28-6.82-0.49-10.59l106.98-1.93c0 3.6-0.28 7.2-1.01 10.62z"/>
                        <path id="&lt;Compound Path&gt;" fill-rule="evenodd" class="s14" d="m2884.34 2036.28c-0.78 0-1.6-0.22-2.31-0.62c-1.04-0.59-1.95-1.58-2.72-2.94c-1.27-2.28-1.94-5.09-2.07-8.58c-0.1-2.72 0.11-5.44 0.66-8.12c-5.02 1.33-10.21 2.46-15.43 3.38c-1.21 0.2-2.5 0.41-3.8 0.41c-1.33 0-2.47-0.22-3.47-0.66c-1.03-0.45-1.7-1.14-1.89-1.96c-0.25-1.08 0.34-2.23 1.62-3.13c2.87-2.04 6.49-2.32 9.65-2.32h0.43c2.34 0 4.71 0.13 7.03 0.39c2.78 0.31 5.95 0.89 8.32 2.79c1.66 1.33 2.76 3.16 3.7 4.94c1.44 2.74 2.63 5.59 3.55 8.47c0.37 1.15 0.74 2.48 0.65 3.84c-0.1 1.58-0.86 2.94-2.04 3.62c-0.55 0.32-1.21 0.49-1.89 0.49zm-5-20.41c-0.59 2.71-0.83 5.48-0.72 8.23c0.12 3.26 0.74 5.87 1.9 7.95c0.64 1.14 1.37 1.95 2.19 2.42c0.91 0.51 2.06 0.57 2.82 0.14c0.77-0.44 1.29-1.41 1.35-2.52c0.08-1.12-0.25-2.26-0.58-3.33c-0.89-2.8-2.06-5.58-3.46-8.24c-0.87-1.64-1.88-3.34-3.36-4.51c-0.05-0.04-0.1-0.09-0.15-0.13zm-14.33-2.75h-0.43c-2.95 0.01-6.3 0.26-8.86 2.07c-0.61 0.43-1.21 1.11-1.07 1.7c0.12 0.53 0.8 0.88 1.09 1c1.72 0.75 4.24 0.53 6.49 0.15c5.12-0.89 10.21-2.01 15.14-3.31c-1.69-0.72-3.61-1.03-5.48-1.24c-2.27-0.25-4.59-0.37-6.88-0.37z"/>
                    </g>
                    <path id="&lt;Path&gt;" class="s14" d="m2809.19 2052.38c-0.37 0-0.68-0.3-0.69-0.68c-0.01-0.37 0.3-0.69 0.68-0.7l106.98-1.93h0.01c0.37 0 0.68 0.3 0.69 0.68c0.01 0.37-0.3 0.69-0.68 0.7l-106.98 1.93h-0.01z"/>
                    <path id="&lt;Path&gt;" class="s14" d="m2886.8 2050.8l-0.1-0.01c-0.37-0.05-0.64-0.4-0.58-0.78c3.47-23.94 24.4-30.49 24.61-30.55c0.32-0.1 0.74 0.1 0.85 0.47c0.11 0.36-0.09 0.75-0.46 0.86c-0.2 0.06-20.3 6.38-23.64 29.43c-0.05 0.34-0.34 0.59-0.68 0.59z"/>
                    <path id="&lt;Path&gt;" class="s14" d="m2873.87 2051.14c-0.11 0-0.23-0.03-0.34-0.09l-0.43-0.24c-9.43-5.31-20.13-8.14-30.95-8.18l-26.71-0.11c-0.38 0-0.69-0.32-0.69-0.69c0-0.38 0.31-0.69 0.69-0.69l26.71 0.11c11.06 0.04 22 2.93 31.64 8.35l0.43 0.24c0.33 0.19 0.44 0.61 0.26 0.95c-0.13 0.22-0.37 0.35-0.6 0.35z"/>
                    <path id="&lt;Path&gt;" class="s14" d="m2851.64 2037.87c-0.21 0-0.43-0.1-0.55-0.28l-5.17-7.07c-0.23-0.31-0.16-0.74 0.14-0.96c0.32-0.23 0.74-0.15 0.96 0.14l4.83 6.6l36.71-18.02c0.34-0.14 0.76-0.02 0.93 0.32c0.16 0.34 0.03 0.76-0.32 0.93l-37.23 18.27l-0.31 0.07z"/>
                </g>
                <g id="&lt;Group&gt;">
                    <g id="&lt;Group&gt;">
                        <path id="&lt;Path&gt;" class="s32" d="m2650.17 2025.01l10.13-91.16l32.41-2.03l-12.34 94.91l-30.2-1.72z"/>
                    </g>
                    <g id="&lt;Group&gt;">
                        <g id="&lt;Group&gt;">
                            <path id="&lt;Path&gt;" class="s8" d="m2680.49 2017.1c6.04 16.27 7.72 30.7 5.06 43.27l-105.49 1.91c-4.58-13.41 1.05-21.94 16.88-25.6c15.83-3.66 33.87-11.72 54.1-24.2c10.14 11.44 19.96 12.98 29.45 4.62z"/>
                        </g>
                        <path id="&lt;Path&gt;" class="s12" d="m2685.58 2060.37l-105.49 1.91c-1.12-3.29-1.28-6.82-0.49-10.59l106.98-1.93c0 3.6-0.28 7.2-1.01 10.62z"/>
                        <path id="&lt;Compound Path&gt;" fill-rule="evenodd" class="s14" d="m2654.75 2036.28c-0.78 0-1.6-0.22-2.31-0.62c-1.04-0.59-1.92-1.55-2.71-2.94c-1.26-2.27-1.94-5.07-2.08-8.58c-0.1-2.74 0.12-5.47 0.66-8.12c-5.04 1.33-10.23 2.47-15.43 3.38c-1.16 0.2-2.5 0.41-3.79 0.41c-1.33 0-2.47-0.22-3.48-0.66c-1.03-0.44-1.7-1.14-1.89-1.96c-0.25-1.09 0.34-2.23 1.63-3.13c2.86-2.04 6.48-2.32 9.64-2.32h0.43c2.34 0 4.71 0.13 7.04 0.39c2.92 0.32 5.94 0.89 8.32 2.79c1.65 1.34 2.76 3.16 3.7 4.94c1.43 2.7 2.62 5.55 3.55 8.47c0.37 1.14 0.74 2.48 0.66 3.83c-0.11 1.59-0.88 2.95-2.04 3.63c-0.55 0.32-1.21 0.49-1.9 0.49zm-5-20.41c-0.58 2.68-0.82 5.45-0.72 8.23c0.13 3.29 0.75 5.88 1.91 7.95c0.65 1.17 1.36 1.96 2.18 2.43c0.91 0.5 2.06 0.56 2.84 0.14c0.75-0.44 1.27-1.41 1.35-2.53c0.07-1.12-0.26-2.25-0.59-3.32c-0.91-2.84-2.07-5.62-3.46-8.24c-0.87-1.64-1.88-3.34-3.35-4.51l-0.16-0.13zm-14.33-2.75h-0.43c-2.95 0.01-6.3 0.26-8.85 2.07c-0.61 0.43-1.22 1.11-1.08 1.7c0.12 0.53 0.81 0.88 1.1 1c0.83 0.37 1.79 0.55 2.93 0.55c1.19 0 2.41-0.2 3.55-0.39c5.11-0.89 10.19-2 15.14-3.31c-1.69-0.72-3.6-1.03-5.48-1.24c-2.28-0.25-4.6-0.37-6.89-0.37z"/>
                    </g>
                    <path id="&lt;Path&gt;" class="s14" d="m2579.6 2052.38c-0.37 0-0.68-0.3-0.69-0.68c-0.01-0.37 0.3-0.69 0.68-0.7l106.98-1.93h0.01c0.37 0 0.68 0.3 0.69 0.68c0.01 0.37-0.3 0.69-0.68 0.7l-106.98 1.93h-0.01z"/>
                    <path id="&lt;Path&gt;" class="s14" d="m2657.2 2050.8l-0.1-0.01c-0.37-0.05-0.64-0.4-0.58-0.78c3.47-23.94 24.41-30.49 24.62-30.55c0.31-0.1 0.74 0.1 0.85 0.47c0.11 0.36-0.09 0.75-0.46 0.86c-0.2 0.06-20.3 6.38-23.65 29.43c-0.05 0.34-0.34 0.59-0.68 0.59z"/>
                    <path id="&lt;Path&gt;" class="s14" d="m2644.28 2051.14c-0.15-0.02-0.27-0.05-0.34-0.09l-0.43-0.24c-9.43-5.31-20.12-8.14-30.95-8.18l-26.71-0.11c-0.38 0-0.69-0.32-0.69-0.69c0-0.38 0.31-0.69 0.69-0.69l26.71 0.11c11.06 0.04 22 2.93 31.63 8.35l0.43 0.24c0.33 0.19 0.44 0.61 0.26 0.95c-0.13 0.22-0.37 0.35-0.6 0.35z"/>
                    <path id="&lt;Path&gt;" class="s14" d="m2622.04 2037.87c-0.21 0-0.43-0.1-0.55-0.28l-5.17-7.07c-0.23-0.31-0.16-0.74 0.14-0.96c0.32-0.23 0.73-0.15 0.96 0.14l4.83 6.6l36.71-18.02c0.35-0.14 0.77-0.02 0.93 0.32c0.16 0.34 0.03 0.76-0.32 0.93l-37.23 18.27c-0.1 0.04-0.2 0.07-0.31 0.07z"/>
                </g>
                <g id="&lt;Group&gt;">
                    <path id="&lt;Path&gt;" class="s32" d="m2940.98 1536.6c-1.88 16.98-2.76 25.56-2.66 25.74c7.1 12.35 13.98 23.84 20.64 34.46c-17.77 9.05-27.97 13.51-30.6 13.38c-2.63-0.13-6.95-10.01-12.96-29.67l-1.25-35.24l26.83-8.68z"/>
                </g>
                <g id="&lt;Group&gt;">
                    <path id="&lt;Path&gt;" class="s32" d="m2926.06 1590.02l0.13 18.59c-4.09-6.51-6.61-9.72-7.57-9.63c-1.43 0.14-7.09 20.28-11.59 20.11c-4.49-0.17 2.54-15.47 3.12-22.26c1.01-11.86 2.95-21.67 5.82-29.42l10.09 22.61z"/>
                </g>
                <g id="&lt;Group&gt;">
                    <path id="&lt;Path&gt;" class="s32" d="m2947.42 1581.77l11.55 15.03c11.79 15.01 16.85 23 15.2 23.98c-1.66 0.97-9.32-5.9-22.98-20.63c11.64 22.14 16.52 33.73 14.64 34.78c-1.88 1.05-9.58-8.98-23.09-30.07c8.39 25.81 11.44 38.98 9.15 39.51c-2.29 0.53-8.19-11.17-17.7-35.09c4.56 23.13 5.64 34.77 3.21 34.9c-2.42 0.13-6.83-13.9-13.23-42.1l23.26-20.31z"/>
                </g>
                <g id="&lt;Group&gt;">
                    <path id="&lt;Path&gt;" class="s32" d="m2524.46 1412.85c-17.89 2.44-26.91 3.74-27.07 3.9c-10.83 10.46-20.84 20.47-30.03 30.02c-13.85-15.89-21.04-25.21-21.59-27.93c-0.55-2.73 8.48-9.7 27.09-20.92l35.81-10.34l15.8 25.27z"/>
                </g>
                <g id="&lt;Group&gt;">
                    <path id="&lt;Path&gt;" class="s32" d="m2465.85 1411.28l-19.02 4.91c5.63-5.87 8.27-9.28 7.93-10.24c-0.51-1.43-22.62-2.06-23.59-6.71c-0.98-4.65 16.52-1.37 23.62-2.53c12.42-2.02 22.98-2.55 31.66-1.6l-20.59 16.16z"/>
                </g>
                <g id="&lt;Group&gt;">
                    <path id="&lt;Path&gt;" class="s32" d="m2479.81 1431.06l-12.45 15.71c-12.36 15.94-19.25 23.19-20.68 21.75c-1.42-1.45 3.66-11.07 15.24-28.87c-19.71 17.63-30.34 25.61-31.89 23.95c-1.56-1.66 6.74-12.13 24.89-31.41c-24.3 15.24-37.02 21.76-38.15 19.54c-1.13-2.22 9.34-11.27 31.43-27.17c-22.54 10.63-34.2 14.72-34.96 12.27c-0.76-2.45 12.49-10.58 39.76-24.39l26.81 18.63z"/>
                </g>
                <path id="&lt;Path&gt;" class="s32" d="m2719.04 1317.5c-41.87 49.29-65.5 75.29-70.9 77.99c-5.4 2.7-58.75 11.14-160.04 25.32l-2.03-26.34c83.06-26.34 128.3-40.18 135.73-41.53l71.92-85.08l25.32 49.63z"/>
                <g id="&lt;Group&gt;">
                    <path id="&lt;Path&gt;" class="s25" d="m2872.5 1515.02l43.93 485.76l-51.01 5.54c-49.78-254.8-77.13-392.54-82.06-413.24c-7.39-31.05-34.01 165.59-41.4 193.68c-4.93 18.73-19.22 90.81-42.88 216.23l-52.12-5.54c26.86-271.55 43.25-423.1 49.16-454.64c5.91-31.54 8.87-51.25 8.87-59.14c70.97 10.84 121.24 11.83 150.81 2.96l16.69 28.39z"/>
                </g>
                <path id="&lt;Path&gt;" class="s33" d="m2781.14 1589.89c-0.24 0-0.45-0.17-0.49-0.41c-0.07-0.36-6.61-36.63-0.38-98.47c0.03-0.28 0.24-0.44 0.55-0.45c0.28 0.03 0.48 0.27 0.45 0.55c-6.2 61.67 0.31 97.82 0.37 98.18c0.05 0.27-0.13 0.54-0.4 0.59l-0.09 0.01z"/>
                <path id="&lt;Path&gt;" class="s33" d="m2779.29 1577.68c-0.09 0-0.17-0.02-0.25-0.06c-0.6-0.33-14.97-8.27-17.23-13.55c-2.23-5.21-1.55-70.96-1.52-73.76c0-0.27 0.22-0.49 0.5-0.49h0.01c0.27 0 0.5 0.23 0.49 0.51c-0.25 23.61-0.27 69.34 1.45 73.35c2.12 4.96 16.63 12.97 16.78 13.05c0.24 0.14 0.33 0.44 0.2 0.69c-0.09 0.16-0.26 0.26-0.44 0.26z"/>
                <path id="&lt;Path&gt;" class="s33" d="m2882.05 1996.84c-0.25 0-0.47-0.18-0.5-0.43l-59.87-414.72c-0.04-0.27 0.15-0.53 0.43-0.57c0.24 0.02 0.54 0.15 0.58 0.43l59.87 414.72c0.04 0.28-0.15 0.54-0.43 0.58h-0.07z"/>
                <path id="&lt;Path&gt;" class="s32" d="m2918.33 1298.31c12.87 39.84 21.45 78.14 25.74 114.92c4.29 36.77 2.15 86.42-6.44 148.93l-22.06 5.98c-5.52-63.43-9.65-126.87-9.65-132.39c0-3.68-9.19-42.29-27.58-115.84l39.99-21.6z"/>
                <path id="&lt;Path&gt;" class="s33" d="m2656.94 1991.3h-0.04c-0.31-0.04-0.49-0.3-0.46-0.57l54.34-396.98c0.03-0.28 0.28-0.45 0.57-0.43c0.28 0.04 0.47 0.3 0.43 0.57l-54.34 396.98c-0.03 0.26-0.26 0.43-0.5 0.43z"/>
                <path id="&lt;Path&gt;" class="s22" d="m2826.97 1219.75c40.14 13.17 64.26 22.79 72.37 28.87c8.1 6.08 22.48 42.94 43.12 110.59c-17.65 7.07-36.27 14.65-55.85 22.75l-8.54-31.05c-3.38 47.94-5.4 76.3-6.08 85.08c-0.68 8.78 0.68 37.14 4.05 85.08c-70.23 22.28-130.66 20.93-181.31-4.05c8.78-51.32 13.17-80.36 13.17-87.11c0-6.75-1.01-35.11-3.04-85.08l-29.37 35.45c-22.96-21.61-37.48-39.84-43.55-54.7c42.54-54.7 68.2-84.07 76.98-88.12c8.78-4.05 29.4-9.96 61.88-17.73h56.18z"/>
                <g id="&lt;Group&gt;">
                    <path id="&lt;Path&gt;" class="s32" d="m2817.83 1225.56c-17.67 7.65-37.94 6.34-54.47-3.52c5.38-2.16 8.91-7.38 8.91-13.18v-34.2l47.68 0.37l0.28 32.03c0.05 5.91 3.61 11.23 9.05 13.54l-11.45 4.96z"/>
                </g>
                <path id="&lt;Path&gt;" class="s34" d="m2820.05 1186c-19.86 23.16-41.33 16.11-47.78 13.2v-24.54l47.68 0.37l0.1 10.97z"/>
                <g id="&lt;Group&gt;">
                    <path id="&lt;Path&gt;" class="s34" d="m2758.99 1152.73c-12.17-1.36-13-13.88-9.35-17.59c2.3-2.34 5.53-1.81 9.69 1.57c1.38 6.34 1.26 11.68-0.34 16.02z"/>
                    <g id="&lt;Group&gt;">
                        <path id="&lt;Mesh&gt;" class="s35" d="m2773.78 1090.39c7.27-4.97 16.04-7.54 24.45-8.21c-4.93 11.76-6.25 25.22-7.93 37.73c-10.96-0.59-21.9-1.59-32.85-2.19c2.04-11.16 6.77-20.78 16.33-27.33zm-16.33 27.33c10.95 0.6 21.89 1.6 32.85 2.19c-3.36 25.02-11.52 51.25-7.54 76.47c-10.61-1.24-16.13-10.29-19.18-16.46c-7.56-18.69-9.67-42.89-6.13-62.2zm40.78-35.54c14.51-1.16 27.96 3.36 36.69 15.43c7.18 9.91 8.18 21.5 6.92 31.62c-16.54-5.55-34.21-7.99-51.54-9.32c1.68-12.51 3.01-25.97 7.93-37.73zm-7.93 37.73c17.34 1.33 35 3.77 51.54 9.32c-1.75 14.06-9.36 24.17-9.36 24.17c-2.62 5.1-5 11.55-7.62 16.65c-13.69 25.26-30.62 27.68-42.1 26.33c-3.98-25.22 4.18-51.45 7.54-76.47z"/>
                    </g>
                    <path id="&lt;Path&gt;" class="s6" d="m2830.21 1152.38c-6.59-9.29-9.41-22.61-8.44-39.97c-7.35-3.22-13.57-4.79-18.66-4.7c-7.63 0.13-17.1 5.82-32.02 3.84c-9.95-1.32-16.79-5.89-20.52-13.71c1.98 0.3 3.57 0.45 4.75 0.46c-2.67-3.61-5.48-8.59-8.42-14.95c2.43 0.7 8.51 0.76 18.23 0.19c-2.66-2.59-4.6-5.42-5.84-8.48c7.6 2.32 16.36 3.12 26.27 2.4c14.87-1.08 34.32-2.23 42.89 4.88c5.72 4.74 8.68 7.55 8.89 8.43c-1.44-7.32-3.47-11.85-6.09-13.59c6.41 3.49 9.54 8.61 9.37 15.35c3.75 0.9 6.59 1.74 8.5 2.54c1.91 0.79-0.45 0.78-7.09-0.04c10 19.08 7.04 40.61-8.88 64.61l-2.94-7.24z"/>
                    <path id="&lt;Path&gt;" class="s6" d="m2821.19 1090.1c-6.72-4.1-14.47-7.78-23.26-11.04c-8.79-3.27-15.04-7.78-18.74-13.54c8.21 3.91 30.66 2.38 41.59 7.67c7.29 3.53 12.81 9.39 16.56 17.57l-16.15-0.65z"/>
                    <path id="&lt;Path&gt;" class="s6" d="m2763.76 1108.4c-3.98 11.8-6.63 20.88-7.94 27.24c-0.51-17.83 0.72-29.02 3.68-33.57c2.96-4.55 4.38-2.44 4.26 6.33z"/>
                    <g id="&lt;Group&gt;">
                        <path id="&lt;Path&gt;" class="s32" d="m2825.77 1150.45c0.74-8.63 5.35-10.85 13.83-6.66c5.05 2.5 3.55 17.14-11.42 17.59c-3.33-1.19-4.13-4.84-2.41-10.93z"/>
                    </g>
                    <g id="&lt;Group&gt;">
                        <path id="&lt;Path&gt;" class="s29" d="m2770.95 1097.11l-0.01 0l0.01 0z"/>
                    </g>
                    <path id="&lt;Path&gt;" class="s36" d="m2783.72 1164.32c-0.17-0.15-0.19-0.42-0.04-0.59c0.53-0.6 0.57-1.03 0.21-1.9c-0.09-0.22-0.49-0.3-0.88-0.39c-0.19-0.04-0.37-0.08-0.53-0.13l-0.47-0.15c-0.89-0.28-1.82-0.56-2.62-1.12c-0.94-0.66-1.76-1.89-1.49-3.17c0.13-0.61 0.47-1.1 0.8-1.57l0.07-0.09c2.79-4.04 4.29-8.96 4.22-13.87c0-0.23 0.18-0.42 0.41-0.43c0.22-0.01 0.42 0.18 0.43 0.41c0.07 5.08-1.48 10.18-4.37 14.36l-0.07 0.09c-0.29 0.43-0.57 0.83-0.67 1.27c-0.19 0.9 0.44 1.81 1.15 2.31c0.69 0.48 1.51 0.74 2.38 1.01l0.48 0.15c0.14 0.04 0.29 0.08 0.45 0.11c0.54 0.12 1.22 0.26 1.48 0.89c0.49 1.17 0.39 1.92-0.35 2.77l-0.37 0.14l-0.23-0.1z"/>
                    <g id="&lt;Group&gt;">
                        <path id="&lt;Path&gt;" class="s12" d="m2785.27 1179.65c-5.72 0.12-10.37-3.45-13.94-10.71c9.97 2.42 20.13 2.83 30.46 1.24c-5.29 6.19-10.8 9.35-16.52 9.48z"/>
                    </g>
                </g>
            </g>
            <g id="&lt;Group&gt;"/>
            <g id="&lt;Group&gt;"/>
            <g id="&lt;Group&gt;">
                <g id="&lt;Group&gt;">
                    <path id="&lt;Path&gt;" class="s10" d="m857.97 1311.24c4.92 73.28 7.82 112.16 8.71 116.63c1.34 6.7 3.35 101.88 3.35 156.84l-21.53 5.99c-11.12-77.72-18.68-130.66-22.71-158.81c-4.02-28.15-4.92-63.45-2.68-105.9l34.85-14.75z"/>
                    <path id="&lt;Path&gt;" class="s10" d="m624.55 1281.91l-7.54 30.16h-32.68l-36.43-18.73l38.81-28.39l37.83 16.96z"/>
                    <g id="&lt;Group&gt;">
                        <g id="&lt;Group&gt;">
                            <path id="&lt;Path&gt;" class="s10" d="m787.2 2035.4l-2.5-100.32l35.72-4.67l2.8 97.15l-36.01 7.85z"/>
                        </g>
                        <g id="&lt;Group&gt;">
                            <path id="&lt;Path&gt;" class="s8" d="m823.47 2022.31c20.7 12.76 39.15 21.01 55.34 24.75c16.2 3.74 21.96 12.47 17.27 26.19l-107.91-1.95c-2.73-12.86-3.19-27.37-1.38-43.5c9.7 8.55 21.93 6.72 36.68-5.49z"/>
                            <g id="&lt;Group&gt;">
                                <path id="&lt;Path&gt;" class="s37" d="m786.6 2060.48l109.95 1.94c0.81 3.85 0.64 7.47-0.5 10.84l-107.91-1.95c-0.74-3.5-1.54-7.14-1.54-10.83z"/>
                            </g>
                            <path id="&lt;Compound Path&gt;" fill-rule="evenodd" class="s14" d="m817.74 2046.17c-1.19-0.69-1.97-2.09-2.09-3.72c-0.09-1.38 0.3-2.74 0.67-3.9c0.95-2.97 2.18-5.9 3.63-8.68c0.97-1.81 2.1-3.69 3.8-5.06c2.45-1.97 5.68-2.54 8.51-2.86c2.5-0.27 4.97-0.4 7.33-0.4h0.31c3.25 0.03 6.97 0.33 9.86 2.39c1.32 0.91 1.92 2.07 1.67 3.2c-0.2 0.85-0.86 1.54-1.93 2.02c-1.04 0.44-2.2 0.67-3.56 0.67c-1.3 0-2.64-0.21-3.87-0.43c-5.23-0.9-10.54-2.06-15.79-3.44c0.55 2.75 0.77 5.54 0.67 8.31c-0.14 3.59-0.84 6.45-2.13 8.75c-0.78 1.41-1.71 2.41-2.77 3.01c-0.73 0.42-1.57 0.64-2.36 0.64c-0.7 0-1.37-0.17-1.94-0.5zm6.89-20.26c-1.5 1.21-2.54 2.94-3.43 4.62c-1.42 2.71-2.61 5.54-3.52 8.44c-0.35 1.1-0.69 2.26-0.61 3.39c0.07 0.9 0.47 2.05 1.38 2.58c0.8 0.46 1.96 0.4 2.9-0.14c0.83-0.47 1.59-1.3 2.24-2.47c1.17-2.11 1.81-4.78 1.94-8.13c0.1-2.81-0.14-5.64-0.74-8.43c-0.05 0.04-0.1 0.09-0.16 0.13zm7.78-2.54c-1.83 0.2-3.84 0.51-5.6 1.27c5.14 1.36 10.36 2.49 15.5 3.38c2.31 0.4 4.91 0.59 6.61-0.14c0.37-0.17 1-0.52 1.12-1.04c0.14-0.61-0.47-1.29-1.1-1.74c-2.58-1.83-6.03-2.1-9.05-2.13h-0.31c-2.32 0-4.74 0.13-7.18 0.4z"/>
                        </g>
                        <path id="&lt;Path&gt;" class="s14" d="m896.54 2063.13l-109.45-1.98c-0.39 0-0.7-0.33-0.69-0.72c0-0.39 0.33-0.69 0.7-0.69h0.01l109.45 1.98c0.39 0 0.7 0.33 0.69 0.72c0 0.39-0.33 0.69-0.7 0.69h-0.01z"/>
                        <path id="&lt;Path&gt;" class="s14" d="m816.47 2060.91c-3.13-21.59-25.01-22.65-29.24-22.65c-0.42 0-0.56 0-0.7 0.01c-0.38 0-0.69-0.3-0.7-0.68c-0.01-0.39 0.29-0.72 0.69-0.73c0.1 0 0.23 0 0.4 0c3.5 0 27.61 0.85 30.93 23.84c0.07 0.39-0.21 0.74-0.59 0.8c-0.03 0.01-0.06 0.01-0.1 0.01c-0.34 0-0.65-0.25-0.69-0.6z"/>
                        <path id="&lt;Path&gt;" class="s14" d="m829.78 2061.51c-0.2-0.34-0.08-0.77 0.26-0.97l0.43-0.25c9.86-5.56 21.04-8.51 32.37-8.55l27.32-0.12c0.39 0 0.7 0.31 0.7 0.7c0 0.39-0.31 0.7-0.7 0.7l-27.32 0.12c-11.08 0.04-22.02 2.94-31.66 8.36l-0.43 0.25c-0.12 0.07-0.23 0.09-0.35 0.09c-0.25 0-0.48-0.13-0.61-0.35z"/>
                        <path id="&lt;Path&gt;" class="s14" d="m852.82 2048.22l-38.08-18.68c-0.35-0.18-0.5-0.6-0.33-0.95c0.18-0.35 0.6-0.47 0.95-0.33l37.55 18.43l4.94-6.76c0.23-0.31 0.67-0.39 0.99-0.16c0.31 0.23 0.38 0.68 0.16 0.99l-5.3 7.23c-0.14 0.18-0.35 0.29-0.57 0.29c-0.1 0-0.21-0.03-0.31-0.07z"/>
                    </g>
                    <g id="&lt;Group&gt;">
                        <g id="&lt;Group&gt;">
                            <path id="&lt;Path&gt;" class="s10" d="m617.91 2034.9l13.18-118.96l37.37 18.02l-14.56 93.1l-36 7.84z"/>
                        </g>
                        <g id="&lt;Group&gt;">
                            <path id="&lt;Path&gt;" class="s8" d="m654.16 2021.83c20.69 12.75 39.13 21 55.32 24.74c16.19 3.74 21.95 12.47 17.26 26.18l-107.86-1.95c-2.72-12.86-3.19-27.35-1.38-43.48c9.7 8.55 21.92 6.72 36.66-5.49z"/>
                            <g id="&lt;Group&gt;">
                                <path id="&lt;Path&gt;" class="s37" d="m617.31 2059.97l109.91 1.94c0.81 3.85 0.64 7.46-0.5 10.83l-107.86-1.95c-0.74-3.49-1.54-7.14-1.54-10.82z"/>
                            </g>
                            <path id="&lt;Compound Path&gt;" fill-rule="evenodd" class="s14" d="m648.45 2045.67c-1.2-0.7-1.98-2.09-2.09-3.71c-0.1-1.4 0.29-2.75 0.67-3.91c0.95-3.01 2.18-5.92 3.63-8.66c0.9-1.72 2.06-3.68 3.78-5.06c2.43-1.96 5.66-2.54 8.51-2.87c2.4-0.26 4.87-0.39 7.29-0.39h0.35c3.24 0.01 6.94 0.3 9.85 2.37c1.32 0.94 1.92 2.1 1.67 3.21c-0.2 0.84-0.86 1.53-1.93 2c-1.03 0.46-2.19 0.69-3.56 0.69c-1.32 0-2.64-0.21-3.87-0.43c-5.39-0.94-10.69-2.1-15.77-3.46c0.55 2.77 0.77 5.54 0.67 8.31c-0.14 3.59-0.84 6.45-2.13 8.75c-0.78 1.41-1.71 2.41-2.77 3.01c-0.73 0.42-1.57 0.64-2.36 0.64c-0.7 0-1.37-0.17-1.93-0.5zm6.88-20.25c-1.53 1.23-2.58 3.03-3.42 4.62c-1.42 2.67-2.61 5.51-3.55 8.43c-0.34 1.1-0.68 2.26-0.59 3.41c0.05 0.89 0.44 2.04 1.38 2.57c0.78 0.46 1.96 0.4 2.88-0.14c0.84-0.47 1.59-1.3 2.24-2.47c1.17-2.11 1.81-4.78 1.94-8.13c0.1-2.79-0.14-5.62-0.73-8.41c-0.07 0.04-0.12 0.09-0.17 0.13zm7.78-2.56c-1.9 0.21-3.86 0.53-5.6 1.27c5 1.33 10.19 2.47 15.47 3.39c1.17 0.2 2.43 0.39 3.64 0.39c1.16 0 2.14-0.18 2.99-0.55c0.46-0.21 1.02-0.55 1.12-1.03c0.18-0.77-0.8-1.53-1.1-1.75c-2.6-1.84-6.03-2.1-9.04-2.11h-0.35c-2.37 0-4.79 0.13-7.14 0.39z"/>
                        </g>
                        <path id="&lt;Path&gt;" class="s14" d="m727.21 2062.62l-109.4-1.98c-0.39-0.01-0.7-0.33-0.69-0.72c0.01-0.38 0.33-0.69 0.7-0.69h0.01l109.4 1.98c0.39 0.01 0.7 0.33 0.69 0.72c-0.01 0.38-0.33 0.69-0.7 0.69h-0.01z"/>
                        <path id="&lt;Path&gt;" class="s14" d="m647.17 2060.4c-3.13-21.58-24.98-22.64-29.21-22.64c-0.4 0-0.57 0.03-0.7 0.01c-0.38 0-0.69-0.3-0.7-0.68c-0.01-0.39 0.29-0.72 0.68-0.73c0.27 0.03 27.75-0.87 31.32 23.82c0.07 0.39-0.21 0.74-0.59 0.8c-0.04 0.01-0.07 0.01-0.1 0.01c-0.34 0-0.65-0.25-0.69-0.6z"/>
                        <path id="&lt;Path&gt;" class="s14" d="m660.48 2060.99c-0.2-0.34-0.07-0.77 0.27-0.95l0.42-0.23c9.85-5.54 21.03-8.51 32.34-8.56l27.32-0.1c0.39 0 0.7 0.31 0.7 0.7c0 0.39-0.31 0.7-0.7 0.7l-27.32 0.1c-11.06 0.05-22.01 2.95-31.65 8.38l-0.43 0.23c-0.1 0.07-0.22 0.09-0.34 0.09c-0.25 0-0.5-0.13-0.61-0.37z"/>
                        <path id="&lt;Path&gt;" class="s14" d="m683.5 2047.72l-38.07-18.68c-0.35-0.18-0.5-0.6-0.33-0.95c0.18-0.35 0.59-0.47 0.95-0.33l37.54 18.43l4.94-6.76c0.23-0.31 0.67-0.39 0.99-0.16c0.31 0.23 0.38 0.68 0.16 0.99l-5.3 7.23c-0.14 0.18-0.35 0.29-0.57 0.29c-0.1 0-0.21-0.03-0.31-0.07z"/>
                    </g>
                    <path id="&lt;Path&gt;" class="s22" d="m763.87 1231.71c47.27 13.34 73 22.36 77.18 27.06c4.18 4.71 17.25 31.11 39.21 79.21c-8.89 12.29-25.62 21.17-50.19 26.66l-3.53 93.71h-156.06l-18.28-141.08l-45.58 16.09c-7.6-9.83-14.52-32.84-20.78-69.04c23.24-16.98 46.7-28.37 70.38-34.18c16.58-4.07 33.88-4.58 51.9-1.56l55.74 3.13z"/>
                    <path id="&lt;Path&gt;" class="s25" d="m661.86 1434.04l15.68-3.14l4.31-117.63l132.14-0.78l17.25 113.71l7.84 103.52v469.74l-58.03 1.57c-13.85-259.84-24.96-390.28-33.33-391.32c-12.55-1.57-52.15 269.77-72.54 387.4c-1.57 7.84-21.17 7.58-58.82-0.78c11.5-140.11 17.78-221.67 18.82-244.67c1.05-23 9.93-128.87 26.66-317.61z"/>
                    <g id="&lt;Group&gt;">
                        <path id="&lt;Path&gt;" class="s10" d="m765.48 1177.12l1.51 54.85l6.91 2.65c-15.24 17.67-39.33 15.4-72.27-6.82c7.23-0.55 12.88-6.48 13.08-13.73l1.55-54.15l49.21 17.2z"/>
                    </g>
                    <path id="&lt;Path&gt;" class="s38" d="m766.53 1214.07c-26.88-0.33-43.66-14.38-50.36-42.15l49.83 17.55l0.53 24.61z"/>
                    <g id="&lt;Group&gt;">
                        <path id="&lt;Path&gt;" class="s19" d="m781.9 1138.02c3.79-4.13 7.05-5.17 9.78-3.1c4.34 3.29 5.38 16.36-7 19.62c-2.32-4.25-3.25-9.76-2.78-16.52z"/>
                        <g id="&lt;Group&gt;">
                            <path id="&lt;Mesh&gt;" class="s39" d="m780.98 1118.09c-11.23 2.28-22.4 4.97-33.65 7.25c-3.63-12.69-7.05-26.41-13.92-37.83c8.8-0.58 18.26 0.75 26.53 4.79c10.89 5.32 17.23 14.56 21.04 25.79zm3.09 65.27c-2.22 6.85-6.56 17.04-17.35 19.94c0.29-26.69-12.12-52.59-19.39-77.96c11.25-2.27 22.41-4.96 33.65-7.25c6.59 19.44 8.07 44.79 3.09 65.27zm-36.74-58.02c-17.73 4-35.64 9.21-51.9 17.46c-2.84-10.28-3.55-22.42 2.37-33.76c7.21-13.81 20.43-20.53 35.61-21.52c6.88 11.42 10.29 25.14 13.92 37.83zm19.39 77.96c-11.68 3.14-29.55 3.2-47.54-20.85c-3.48-4.88-6.93-11.19-10.41-16.07c0 0-9.4-9.3-13.34-23.58c16.27-8.25 34.17-13.45 51.9-17.46c7.27 25.38 19.68 51.27 19.39 77.96z"/>
                        </g>
                        <g id="&lt;Group&gt;">
                            <path id="&lt;Path&gt;" class="s33" d="m776.48 1102.2c3.75 4.26 6.72 15.65 8.9 34.17c-2.32-6.38-6.44-15.37-12.35-26.97c-1.45-9.06-0.3-11.46 3.45-7.2z"/>
                        </g>
                        <path id="&lt;Path&gt;" class="s21" d="m760 1170.47c-0.15 0.04-0.31 0.01-0.43-0.1c-0.97-0.84-1.2-1.66-0.85-3.05c0.19-0.74 0.92-1.01 1.51-1.23c0.17-0.06 0.34-0.13 0.49-0.2l0.51-0.25c0.93-0.44 1.81-0.86 2.5-1.52c0.72-0.67 1.27-1.79 0.91-2.77c-0.18-0.48-0.56-0.88-0.96-1.31l-0.09-0.1c-3.92-4.21-6.5-9.66-7.25-15.36c-0.04-0.26 0.16-0.51 0.41-0.53c0.26-0.03 0.5 0.15 0.53 0.41c0.73 5.51 3.21 10.78 7 14.84l0.09 0.1c0.45 0.48 0.91 0.97 1.15 1.63c0.52 1.39-0.2 2.9-1.15 3.8c-0.8 0.76-1.79 1.23-2.75 1.68l-0.5 0.24c-0.17 0.09-0.37 0.16-0.57 0.24c-0.42 0.16-0.85 0.32-0.92 0.58c-0.26 1.03-0.14 1.5 0.55 2.09c0.2 0.17 0.22 0.47 0.05 0.67c-0.06 0.07-0.15 0.13-0.24 0.15z"/>
                        <path id="&lt;Path&gt;" class="s12" d="m763.49 1188.27c-7.28 1.3-15.13-1.63-23.54-8.79c9.79-0.21 21.98-2.59 36.58-7.13c-1.42 9.31-5.76 14.61-13.04 15.92z"/>
                        <g id="&lt;Group&gt;">
                            <path id="&lt;Path&gt;" class="s33" d="m785.24 1072.09c2.21 3.35 0.79 7.88 1.82 11.76c1.3 4.86 6.2 7.97 8.03 12.66c2.97 7.59-3.83 16.25-11.8 17.96c-9.56 2.05-20.37-2.92-28.89 1.86c-4.04 2.26-6.93 6.49-11.36 7.85c-4.72 1.45-9.67-0.76-14.43-2.04c-4.77-1.28-10.93-1.07-13.32 3.25c-1.54 2.78-0.87 6.2-0.44 9.35c1.45 10.57-0.38 21.56-5.17 31.09c-19.2-13.92-23.4-41.96-16.16-64.54c2.26-7.04 6.01-14.36 12.82-17.25c4.94-2.09 11.09-1.65 15.02-5.3c2.18-2.01 3.24-4.93 4.98-7.33c4.24-5.85 12.88-8 19.37-4.82c4.35 2.14 7.76 6.32 12.54 7.17c4.75 0.84 9.29-1.88 13.79-3.61c4.5-1.74 10.55-2.08 13.2 1.95z"/>
                        </g>
                        <g id="&lt;Group&gt;">
                            <path id="&lt;Path&gt;" class="s10" d="m714.43 1173.98c-15.55 1.8-19.32-13.11-14.48-16.46c8.13-5.62 13.24-4.02 15.31 4.79c2.71 6.04 2.43 9.93-0.84 11.67z"/>
                        </g>
                    </g>
                    <path id="&lt;Path&gt;" class="s40" d="m661.23 1444.93c-0.27-0.01-0.48-0.25-0.46-0.54c0.01-0.26 0.23-0.47 0.5-0.47l0.04 0.01c1.17 0.08 118.15 8.06 170.4-5.28c0.33-0.1 0.56 0.09 0.61 0.35c0.08 0.27-0.09 0.55-0.35 0.61c-23.84 6.09-61.03 7.76-94.64 7.76c-40.31 0-75.45-2.4-76.1-2.45z"/>
                    <path id="&lt;Path&gt;" class="s40" d="m659.47 1462.37c-0.27-0.01-0.48-0.26-0.46-0.53c0.01-0.27 0.22-0.52 0.53-0.46c1.2 0.09 122.08 9.28 173.15-2.74c0.31-0.01 0.53 0.1 0.61 0.38c0.05 0.27-0.1 0.55-0.38 0.61c-20.24 4.75-51.35 6.18-81.67 6.18c-46.46 0-91.07-3.38-91.8-3.44z"/>
                    <path id="&lt;Path&gt;" class="s40" d="m654.13 1521.4c-0.27-0.04-0.46-0.3-0.42-0.57c0.04-0.25 0.25-0.43 0.52-0.43c0.02 0.01 0.04 0.01 0.08 0.01c0.32 0.04 0.76 0.07 1.3 0.07c6.17 0 32.11-3.24 46.34-55.58c0.08-0.26 0.4-0.47 0.61-0.35c0.27 0.07 0.43 0.35 0.35 0.61c-14.39 52.96-40.88 56.32-47.35 56.32c-0.89 0-1.41-0.07-1.45-0.08z"/>
                    <path id="&lt;Path&gt;" class="s40" d="m837.65 1520.21c-0.34-0.05-34.56-5.92-39.83-55.72c-0.04-0.27 0.17-0.52 0.44-0.55l0.05-0.01c0.26 0 0.47 0.2 0.5 0.46c5.19 49 38.66 54.78 39 54.83c0.27 0.04 0.46 0.3 0.42 0.57c-0.04 0.25-0.25 0.43-0.5 0.43c-0.02 0-0.04 0-0.08-0.01z"/>
                    <path id="&lt;Path&gt;" class="s40" d="m747.72 1610.22c-0.27-0.01-0.5-0.23-0.5-0.52l2.35-143.9c0.01-0.27 0.23-0.5 0.51-0.5h0.01c0.27 0.01 0.5 0.23 0.5 0.52l-2.35 143.9c-0.01 0.27-0.23 0.5-0.51 0.5h-0.01z"/>
                    <path id="&lt;Path&gt;" class="s40" d="m748.51 1579.06c-0.17-0.22-0.14-0.53 0.07-0.72l16.31-13.57l2.73-98.98c0.01-0.27 0.23-0.5 0.51-0.5h0.01c0.27 0.01 0.5 0.25 0.5 0.52l-2.74 99.21c-0.01 0.14-0.08 0.29-0.18 0.38l-16.48 13.72c-0.1 0.08-0.21 0.12-0.33 0.12c-0.14 0-0.29-0.07-0.39-0.18z"/>
                    <path id="&lt;Compound Path&gt;" fill-rule="evenodd" class="s40" d="m758.77 1424.92l-57.05-17.64c-0.21-0.07-0.35-0.25-0.37-0.47l-2.95-81.76c0-0.13 0.05-0.26 0.14-0.37c0.1-0.09 0.23-0.16 0.37-0.16h105.29c0.27 0 0.5 0.22 0.51 0.5l2.35 75.29c0 0.2-0.1 0.38-0.29 0.46l-47.63 24.11c-0.04 0.03-0.12 0.05-0.22 0.07c-0.05 0-0.1-0.01-0.14-0.03zm44.95-99.38h-104.28l2.92 80.88l56.52 17.48l47.16-23.88l-2.32-74.48z"/>
                    <path id="&lt;Path&gt;" class="s25" d="m681.86 1313.27l-3.18-86.16l14.08-0.17l3.51 87.35l-14.41-1.03z"/>
                    <path id="&lt;Path&gt;" class="s25" d="m800.08 1313.57l-9.12-74.4l13.23 4.41l9.8 68.91l-13.92 1.08z"/>
                    <g id="&lt;Group&gt;">
                        <path id="&lt;Path&gt;" class="s10" d="m867.67 1557.44c0.67 16.29 1.07 24.51 1.19 24.66c8.47 10.63 16.62 20.48 24.42 29.55c-15.47 11.09-24.45 16.76-26.95 17.02c-2.5 0.26-8-8.45-16.49-26.13l-4.74-35.35l22.56-9.76z"/>
                    </g>
                    <g id="&lt;Group&gt;">
                        <path id="&lt;Path&gt;" class="s10" d="m861.27 1609.98l2.79 17.52c-4.79-5.56-7.64-8.22-8.53-8c-1.33 0.34-3.78 20.15-8.04 20.63c-4.27 0.48 0.18-14.96-0.26-21.44c-0.76-11.34-0.33-20.87 1.26-28.59l12.77 19.88z"/>
                    </g>
                    <g id="&lt;Group&gt;">
                        <path id="&lt;Path&gt;" class="s10" d="m880.23 1599.13l13.05 12.52c13.28 12.47 19.2 19.28 17.78 20.44c-1.42 1.16-9.64-4.23-24.65-16.16c14.16 19.21 20.43 29.45 18.81 30.71c-1.62 1.26-10.33-7.09-26.11-25.05c11.63 23.14 16.4 35.13 14.31 35.96c-2.09 0.83-9.34-9.36-21.74-30.56c7.63 21.17 10.31 31.99 8.05 32.46c-2.27 0.47-8.44-12.13-18.53-37.82l19.03-22.5z"/>
                    </g>
                </g>
                <g id="&lt;Group&gt;">
                    <g id="&lt;Group&gt;">
                        <g id="&lt;Group&gt;">
                            <path id="&lt;Compound Path&gt;" fill-rule="evenodd" class="s2" d="m711.17 1995.75h-268.3v-591.75c0-36.02 29.31-65.33 65.33-65.33h137.64c36.03 0 65.33 29.31 65.33 65.33v591.75zm-249.93-18.37h231.55v-573.37c0-25.89-21.07-46.96-46.96-46.96h-137.64c-25.89 0-46.96 21.07-46.96 46.96v573.37z"/>
                        </g>
                    </g>
                    <g id="&lt;Group&gt;">
                        <g id="&lt;Group&gt;">
                            <path id="&lt;Path&gt;" class="s41" d="m700.23 1961.22h-346.28v-249.57h346.28v249.57z"/>
                        </g>
                        <g id="&lt;Group&gt;" style="mix-blend-mode: multiply">
                            <g id="&lt;Group&gt;">
                                <path id="&lt;Compound Path&gt;" fill-rule="evenodd" class="s22" d="m534.89 1962.98c-0.55 0-1.08-0.26-1.42-0.72l-89.09-122.48l-87.45 120.91c-0.57 0.79-1.67 0.97-2.45 0.39c-0.79-0.57-0.96-1.67-0.39-2.45l88.13-121.84l-88.61-121.82c-0.57-0.78-0.4-1.88 0.39-2.45c0.79-0.57 1.88-0.4 2.45 0.39l87.93 120.89l89.09-123.18c0.45-0.62 1.24-0.87 1.96-0.64c0.72 0.23 1.21 0.91 1.21 1.67v249.57c0 0.76-0.49 1.43-1.21 1.67c-0.18 0.06-0.36 0.09-0.54 0.09zm-88.34-126.19l86.59 119.04v-238.76l-86.59 119.72z"/>
                            </g>
                        </g>
                        <path id="&lt;Path&gt;" class="s12" d="m686.38 1940.36h-61.42v-49.72h61.42v49.72z"/>
                        <path id="&lt;Path&gt;" class="s6" d="m646.9 1901.56h-14.82c-0.59 0-1.07-0.48-1.07-1.07c0-0.59 0.48-1.07 1.07-1.07h14.82c0.59 0 1.07 0.48 1.07 1.07c0 0.59-0.48 1.07-1.07 1.07z"/>
                        <path id="&lt;Path&gt;" class="s6" d="m646.9 1919.1h-14.82c-0.59 0-1.07-0.48-1.07-1.07c0-0.59 0.48-1.07 1.07-1.07h14.82c0.59 0 1.07 0.48 1.07 1.07c0 0.59-0.48 1.07-1.07 1.07z"/>
                        <path id="&lt;Path&gt;" class="s6" d="m670.4 1910.33h-38.31c-0.59 0-1.07-0.48-1.07-1.07c0-0.59 0.48-1.07 1.07-1.07h38.31c0.59 0 1.07 0.48 1.07 1.07c0 0.59-0.48 1.07-1.07 1.07z"/>
                        <path id="&lt;Path&gt;" class="s6" d="m677.32 1901.56h-22.81c-0.59 0-1.07-0.48-1.07-1.07c0-0.59 0.48-1.07 1.07-1.07h22.81c0.59 0 1.07 0.48 1.07 1.07c0 0.59-0.48 1.07-1.07 1.07z"/>
                    </g>
                    <g id="&lt;Group&gt;">
                        <g id="&lt;Group&gt;">
                            <path id="&lt;Path&gt;" class="s22" d="m682.64 1711.75h-297.69v-214.55h297.69v214.55z"/>
                        </g>
                        <g id="&lt;Group&gt;" style="mix-blend-mode: multiply">
                            <g id="&lt;Group&gt;">
                                <path id="&lt;Compound Path&gt;" fill-rule="evenodd" class="s22" d="m540.5 1713.14c-0.43 0-0.86-0.21-1.12-0.57l-76.68-105.42l-75.28 104.08c-0.45 0.62-1.31 0.76-1.94 0.31c-0.62-0.45-0.76-1.32-0.31-1.94l75.81-104.81l-76.23-104.8c-0.45-0.62-0.31-1.49 0.31-1.94c0.62-0.45 1.49-0.31 1.94 0.31l75.69 104.06l76.69-106.03c0.35-0.49 0.97-0.7 1.55-0.51c0.57 0.19 0.96 0.72 0.96 1.32v214.55c0 0.6-0.39 1.13-0.96 1.32c-0.14 0.05-0.29 0.07-0.43 0.07zm-76.09-108.36l74.7 102.7v-205.99l-74.7 103.29z"/>
                            </g>
                        </g>
                        <path id="&lt;Path&gt;" class="s12" d="m670.74 1693.82h-52.8v-42.74h52.8v42.74z"/>
                        <path id="&lt;Path&gt;" class="s6" d="m636.8 1660.46h-12.74c-0.51 0-0.92-0.41-0.92-0.92c0-0.51 0.41-0.92 0.92-0.92h12.74c0.51 0 0.92 0.41 0.92 0.92c0 0.51-0.41 0.92-0.92 0.92z"/>
                        <path id="&lt;Path&gt;" class="s6" d="m636.8 1675.55h-12.74c-0.51 0-0.92-0.41-0.92-0.92c0-0.51 0.41-0.92 0.92-0.92h12.74c0.51 0 0.92 0.41 0.92 0.92c0 0.51-0.41 0.92-0.92 0.92z"/>
                        <path id="&lt;Path&gt;" class="s6" d="m657 1668.01h-32.94c-0.51 0-0.92-0.41-0.92-0.92c0-0.51 0.41-0.92 0.92-0.92h32.94c0.51 0 0.92 0.41 0.92 0.92c0 0.51-0.41 0.92-0.92 0.92z"/>
                        <path id="&lt;Path&gt;" class="s6" d="m662.95 1660.46h-19.61c-0.51 0-0.92-0.41-0.92-0.92c0-0.51 0.41-0.92 0.92-0.92h19.61c0.51 0 0.92 0.41 0.92 0.92c0 0.51-0.41 0.92-0.92 0.92z"/>
                    </g>
                    <g id="&lt;Group&gt;">
                        <path id="&lt;Path&gt;" class="s2" d="m711.24 2004.62h-379.29v-43.97h379.29v43.97z"/>
                    </g>
                    <path id="&lt;Path&gt;" class="s6" d="m664.38 2073.7c-15.59 0-28.23-12.64-28.23-28.23c0-15.59 12.64-28.23 28.23-28.23c15.59 0 28.23 12.64 28.23 28.23c0 15.59-12.64 28.23-28.23 28.23z"/>
                    <g id="&lt;Group&gt;">
                        <path id="&lt;Path&gt;" class="s2" d="m664.38 2060.04c-8.05 0-14.58-6.53-14.58-14.58c0-8.05 6.53-14.58 14.58-14.58c8.05 0 14.58 6.53 14.58 14.58c0 8.05-6.53 14.58-14.58 14.58z"/>
                    </g>
                    <g id="&lt;Group&gt;">
                        <path id="&lt;Path&gt;" class="s42" d="m678.38 1999.99c-1.85 18.2-6.48 27.31-13.88 27.31c-7.41 0-14.35-8.79-20.83-26.38l34.71-0.93z"/>
                    </g>
                    <path id="&lt;Path&gt;" class="s6" d="m539.53 2073.7c-15.59 0-28.23-12.64-28.23-28.23c0-15.59 12.64-28.23 28.23-28.23c15.59 0 28.23 12.64 28.23 28.23c0 15.59-12.64 28.23-28.23 28.23z"/>
                    <g id="&lt;Group&gt;">
                        <path id="&lt;Path&gt;" class="s2" d="m539.53 2060.04c-8.05 0-14.58-6.53-14.58-14.58c0-8.05 6.53-14.58 14.58-14.58c8.05 0 14.58 6.53 14.58 14.58c0 8.05-6.53 14.58-14.58 14.58z"/>
                    </g>
                    <g id="&lt;Group&gt;">
                        <path id="&lt;Path&gt;" class="s42" d="m553.53 1999.99c-1.85 18.2-6.48 27.31-13.88 27.31c-7.41 0-14.35-8.79-20.83-26.38l34.71-0.93z"/>
                    </g>
                    <path id="&lt;Path&gt;" class="s6" d="m370.13 2073.7c-15.59 0-28.23-12.64-28.23-28.23c0-15.59 12.64-28.23 28.23-28.23c15.59 0 28.23 12.64 28.23 28.23c0 15.59-12.64 28.23-28.23 28.23z"/>
                    <g id="&lt;Group&gt;">
                        <path id="&lt;Path&gt;" class="s2" d="m370.13 2060.04c-8.05 0-14.58-6.53-14.58-14.58c0-8.05 6.53-14.58 14.58-14.58c8.05 0 14.58 6.53 14.58 14.58c0 8.05-6.53 14.58-14.58 14.58z"/>
                    </g>
                    <g id="&lt;Group&gt;">
                        <path id="&lt;Path&gt;" class="s42" d="m384.13 1999.99c-1.85 18.2-6.48 27.31-13.88 27.31c-7.41 0-14.35-8.79-20.83-26.38l34.71-0.93z"/>
                    </g>
                </g>
                <path id="&lt;Path&gt;" class="s10" d="m706.76 1333.63c8.46-0.28 14.32 0.25 17.57 1.58c3.25 1.33 7.57 5.39 12.95 12.2l3.47 13.56c-3.81 2.38-6.86-0.77-9.15-9.46l-8.15-5.56c-12.88 2.42-21.35 3.09-25.4 2.02c-4.05-1.07-1.15-5.84 8.71-14.33z"/>
                <g id="&lt;Group&gt;">
                    <path id="&lt;Path&gt;" class="s10" d="m687.09 1332.02c11.69-0.05 22.16 0.59 31.41 1.91c3.94 0.56-4.25 7.38-2.47 10.62c1.19 2.16 6.78 8.53 16.79 19.12l-22.45 21.52c-17.93-11.49-28.36-22.38-31.27-32.67l-29.17-11.33l5.69-25.8l31.48 16.63z"/>
                </g>
                <g id="&lt;Group&gt;">
                    <path id="&lt;Path&gt;" class="s23" d="m851.96 1384.86l-106.55 111.85c-1.71 1.8-4.56 1.87-6.36 0.15l-80.36-76.55c-1.8-1.71-1.87-4.56-0.15-6.36l106.55-111.85c1.71-1.8 4.56-1.87 6.36-0.15l80.36 76.55c1.8 1.71 1.87 4.56 0.15 6.36z"/>
                    <path id="&lt;Path&gt;" class="s9" d="m742.98 1494.18l-81.8-77.93l106.9-112.21l81.8 77.93l-106.9 112.21z"/>
                    <g id="&lt;Group&gt;">
                        <g id="&lt;Group&gt;">
                            <g id="&lt;Group&gt;">
                                <path id="&lt;Path&gt;" class="s43" d="m834.67 1362.06l-2.99 3.14l-45.97-43.79l2.99-3.14c1.4-1.47 3.72-1.52 5.18-0.13l40.66 38.74c1.47 1.4 1.52 3.72 0.13 5.18z"/>
                            </g>
                            <path id="&lt;Compound Path&gt;" fill-rule="evenodd" class="s43" d="m810.59 1341.31c-3.93-3.74-4.08-9.98-0.34-13.9c3.74-3.93 9.97-4.08 13.9-0.34c3.93 3.74 4.08 9.98 0.34 13.9c-3.74 3.93-9.98 4.08-13.9 0.34zm9.43-9.89c-1.53-1.46-3.96-1.4-5.42 0.13c-1.46 1.53-1.4 3.96 0.13 5.42c1.53 1.46 3.96 1.4 5.42-0.13c1.46-1.53 1.4-3.96-0.13-5.42z"/>
                        </g>
                    </g>
                    <path id="&lt;Path&gt;" class="s44" d="m827.32 1389.34l-67.68-64.48c-0.23-0.22-0.24-0.6-0.02-0.83l0.14-0.15c0.22-0.23 0.6-0.24 0.83-0.02l67.68 64.48c0.23 0.22 0.24 0.6 0.02 0.83l-0.14 0.15c-0.22 0.23-0.6 0.24-0.83 0.02z"/>
                    <path id="&lt;Path&gt;" class="s44" d="m820.99 1395.98l-67.68-64.48c-0.23-0.22-0.24-0.6-0.02-0.83l0.14-0.15c0.22-0.23 0.6-0.24 0.83-0.02l67.68 64.48c0.23 0.22 0.24 0.6 0.02 0.83l-0.14 0.15c-0.22 0.23-0.6 0.24-0.83 0.02z"/>
                    <path id="&lt;Path&gt;" class="s44" d="m818.24 1398.87l-67.68-64.48c-0.23-0.22-0.24-0.6-0.02-0.83l0.14-0.15c0.22-0.23 0.6-0.24 0.83-0.02l67.68 64.48c0.23 0.22 0.24 0.6 0.02 0.83l-0.14 0.15c-0.22 0.23-0.6 0.24-0.83 0.02z"/>
                    <path id="&lt;Path&gt;" class="s44" d="m786.44 1356.61l-29.83-28.42c-0.27-0.26-0.28-0.7-0.02-0.97c0.26-0.27 0.7-0.28 0.97-0.02l29.83 28.42c0.27 0.26 0.28 0.7 0.02 0.97v0c-0.26 0.27-0.7 0.28-0.97 0.02z"/>
                    <path id="&lt;Path&gt;" class="s44" d="m773.93 1369.73l-29.83-28.42c-0.27-0.26-0.28-0.7-0.02-0.97c0.26-0.27 0.7-0.28 0.97-0.02l29.83 28.42c0.27 0.26 0.28 0.7 0.02 0.97c-0.26 0.27-0.7 0.28-0.97 0.02z"/>
                    <path id="&lt;Path&gt;" class="s44" d="m778.81 1382.92l-29.83-28.42c-0.27-0.26-0.28-0.7-0.02-0.97c0.26-0.27 0.7-0.28 0.97-0.02l29.83 28.42c0.27 0.26 0.28 0.7 0.02 0.97c-0.26 0.27-0.7 0.28-0.97 0.02z"/>
                    <path id="&lt;Path&gt;" class="s44" d="m788.6 1397.94l-42.47-40.46c-0.27-0.26-0.28-0.7-0.02-0.97c0.26-0.27 0.7-0.28 0.97-0.02l42.47 40.46c0.27 0.26 0.28 0.7 0.02 0.97c-0.26 0.27-0.7 0.28-0.97 0.02z"/>
                    <path id="&lt;Path&gt;" class="s44" d="m781.36 1405.54l-42.47-40.46c-0.27-0.26-0.28-0.7-0.02-0.97c0.26-0.27 0.7-0.28 0.97-0.02l42.47 40.46c0.27 0.26 0.28 0.7 0.02 0.97c-0.26 0.27-0.7 0.28-0.97 0.02z"/>
                    <path id="&lt;Path&gt;" class="s44" d="m794.4 1423.26l-58.16-55.4c-0.27-0.26-0.28-0.7-0.02-0.97c0.26-0.27 0.7-0.28 0.97-0.02l58.16 55.4c0.27 0.26 0.28 0.7 0.02 0.97c-0.26 0.27-0.7 0.28-0.97 0.02z"/>
                    <path id="&lt;Path&gt;" class="s44" d="m808.14 1410.86l-25.26-24.07c-0.25-0.24-0.26-0.64-0.02-0.9l0.07-0.08c0.24-0.25 0.64-0.26 0.9-0.02l25.26 24.07c0.25 0.24 0.26 0.64 0.02 0.9l-0.07 0.08c-0.24 0.25-0.64 0.26-0.9 0.02z"/>
                    <path id="&lt;Path&gt;" class="s44" d="m820.7 1389.25l-29.83-28.42c-0.27-0.26-0.28-0.7-0.02-0.97c0.26-0.27 0.7-0.28 0.97-0.02l29.83 28.42c0.27 0.26 0.28 0.7 0.02 0.97c-0.26 0.27-0.7 0.28-0.97 0.02z"/>
                    <g id="&lt;Group&gt;">
                        <path id="&lt;Compound Path&gt;" fill-rule="evenodd" class="s44" d="m741.36 1355.93l-6.06-5.78c-0.2-0.19-0.21-0.51-0.02-0.71l5.78-6.06c0.19-0.2 0.51-0.21 0.71-0.02l6.06 5.78c0.2 0.19 0.21 0.51 0.02 0.71l-5.78 6.06c-0.19 0.2-0.51 0.21-0.71 0.02zm-5.01-6.15l5.34 5.09l5.09-5.34l-5.34-5.09l-5.09 5.34z"/>
                        <path id="&lt;Path&gt;" class="s23" d="m739.6 1351.09c-0.09-0.09-0.15-0.21-0.15-0.35l-0.1-4.01c-0.01-0.28 0.21-0.51 0.49-0.51c0.28-0.01 0.51 0.21 0.51 0.49l0.09 3.53l7.12 0.1c0.28 0 0.5 0.23 0.49 0.51c0 0.28-0.23 0.5-0.51 0.49l-7.6-0.11c-0.13 0-0.25-0.05-0.34-0.14z"/>
                    </g>
                    <path id="&lt;Path&gt;" class="s44" d="m758.46 1404.27l-29.83-28.42c-0.27-0.26-0.28-0.7-0.02-0.97c0.26-0.27 0.7-0.28 0.97-0.02l29.83 28.42c0.27 0.26 0.28 0.7 0.02 0.97c-0.26 0.27-0.7 0.28-0.97 0.02z"/>
                    <path id="&lt;Path&gt;" class="s44" d="m768.26 1419.3l-42.47-40.46c-0.27-0.26-0.28-0.7-0.02-0.97c0.26-0.27 0.7-0.28 0.97-0.02l42.47 40.46c0.27 0.26 0.28 0.7 0.02 0.97c-0.26 0.27-0.7 0.28-0.97 0.02z"/>
                    <path id="&lt;Path&gt;" class="s44" d="m787.79 1432.21l-25.26-24.07c-0.25-0.24-0.26-0.64-0.02-0.9l0.07-0.08c0.24-0.25 0.64-0.26 0.9-0.02l25.26 24.07c0.25 0.24 0.26 0.64 0.02 0.9l-0.07 0.08c-0.24 0.25-0.64 0.26-0.9 0.02z"/>
                    <g id="&lt;Group&gt;">
                        <path id="&lt;Compound Path&gt;" fill-rule="evenodd" class="s44" d="m721.02 1377.29l-6.06-5.78c-0.2-0.19-0.21-0.51-0.02-0.71l5.78-6.06c0.19-0.2 0.51-0.21 0.71-0.02l6.06 5.78c0.2 0.19 0.21 0.51 0.02 0.71l-5.78 6.06c-0.19 0.2-0.51 0.21-0.71 0.02zm-5.01-6.16l5.34 5.09l5.09-5.34l-5.34-5.09l-5.09 5.34z"/>
                        <path id="&lt;Path&gt;" class="s23" d="m719.25 1372.44c-0.09-0.09-0.15-0.21-0.15-0.35l-0.1-4.01c-0.01-0.28 0.21-0.51 0.49-0.51c0.28-0.01 0.51 0.21 0.51 0.49l0.09 3.53l7.12 0.1c0.28 0 0.5 0.23 0.49 0.51c0 0.28-0.23 0.5-0.51 0.49l-7.6-0.11c-0.13 0-0.25-0.05-0.34-0.14z"/>
                    </g>
                    <g id="&lt;Group&gt;">
                        <path id="&lt;Compound Path&gt;" fill-rule="evenodd" class="s44" d="m731.42 1366.37l-6.06-5.78c-0.2-0.19-0.21-0.51-0.02-0.71l5.78-6.06c0.19-0.2 0.51-0.21 0.71-0.02l6.06 5.78c0.2 0.19 0.21 0.51 0.02 0.71l-5.78 6.06c-0.19 0.2-0.51 0.21-0.71 0.02zm-5.01-6.15l5.34 5.09l5.09-5.34l-5.34-5.09l-5.09 5.34z"/>
                        <path id="&lt;Path&gt;" class="s23" d="m729.65 1361.52c-0.09-0.09-0.15-0.21-0.15-0.35l-0.1-4.01c-0.01-0.28 0.21-0.51 0.49-0.51c0.28-0.01 0.51 0.21 0.51 0.49l0.09 3.53l7.12 0.1c0.28 0 0.5 0.23 0.49 0.51c0 0.28-0.23 0.5-0.51 0.49l-7.6-0.11c-0.13 0-0.25-0.05-0.34-0.14z"/>
                    </g>
                    <path id="&lt;Path&gt;" class="s44" d="m760.91 1427.01l-42.47-40.46c-0.27-0.26-0.28-0.7-0.02-0.97c0.26-0.27 0.7-0.28 0.97-0.02l42.47 40.46c0.27 0.26 0.28 0.7 0.02 0.97c-0.26 0.27-0.7 0.28-0.97 0.02z"/>
                    <path id="&lt;Path&gt;" class="s44" d="m773.95 1444.72l-58.16-55.4c-0.27-0.26-0.28-0.7-0.02-0.97c0.26-0.27 0.7-0.28 0.97-0.02l58.16 55.4c0.27 0.26 0.28 0.7 0.02 0.97c-0.26 0.27-0.7 0.28-0.97 0.02z"/>
                    <g id="&lt;Group&gt;">
                        <path id="&lt;Compound Path&gt;" fill-rule="evenodd" class="s44" d="m710.97 1387.83l-6.06-5.78c-0.2-0.19-0.21-0.51-0.02-0.71l5.78-6.06c0.19-0.2 0.51-0.21 0.71-0.02l6.06 5.78c0.2 0.19 0.21 0.51 0.02 0.71l-5.78 6.06c-0.19 0.2-0.51 0.21-0.71 0.02zm-5.01-6.16l5.34 5.09l5.09-5.34l-5.34-5.09l-5.09 5.34z"/>
                        <path id="&lt;Path&gt;" class="s23" d="m709.21 1382.98c-0.09-0.09-0.15-0.21-0.15-0.35l-0.1-4.01c-0.01-0.28 0.21-0.51 0.49-0.51c0.28-0.01 0.51 0.21 0.51 0.49l0.09 3.53l7.12 0.1c0.28 0 0.5 0.23 0.49 0.51c0 0.28-0.23 0.5-0.51 0.49l-7.6-0.11c-0.13 0-0.25-0.05-0.34-0.14z"/>
                    </g>
                    <path id="&lt;Compound Path&gt;" fill-rule="evenodd" class="s44" d="m741.02 1454.27l-0.95-0.53c-6.81 7.55-18.18 9.69-27.42 4.52c-9.24-5.17-13.36-15.98-10.48-25.73l-1.14-0.64l4.34-7.76l0.97 0.54c6.71-8.16 18.53-10.62 28.07-5.28c9.54 5.34 13.62 16.7 10.18 26.68l0.77 0.43l-4.34 7.76zm-31.05-27.57l0.96 0.54c5.25-5.71 13.92-7.3 20.97-3.36c7.05 3.95 10.23 12.18 8.11 19.63l0.96 0.54c2.39-7.99-0.97-16.87-8.54-21.11c-7.57-4.24-16.9-2.46-22.46 3.76zm27.22 15.23c1.34-5.9-1.27-12.22-6.81-15.32c-5.54-3.1-12.3-2.02-16.62 2.21l23.43 13.11zm-0.77 9.76l-0.97-0.54c-5.3 5.11-13.52 6.41-20.27 2.63c-6.74-3.77-9.94-11.46-8.36-18.65l-0.97-0.54c-1.85 7.73 1.54 16.06 8.81 20.13c7.27 4.07 16.15 2.6 21.76-3.02zm-26.72-14.95c-0.84 5.59 1.78 11.38 7 14.3c5.22 2.92 11.53 2.13 15.86-1.51l-22.86-12.79z"/>
                    <path id="&lt;Compound Path&gt;" fill-rule="evenodd" class="s23" d="m671.6 1421.33c-0.19-0.18-0.31-0.42-0.35-0.7c-0.07-0.48 0.17-0.9 0.29-1.13c2.13-3.84 5.95-6.69 10.24-7.63c0.67-0.15 1.45-0.26 2.18 0.03c0.57 0.22 0.98 0.65 1.25 1.15c0.61-0.42 1.22-0.85 1.82-1.27c2.71-1.92 5.46-4.02 7.07-6.83l-17.59 6.68c-0.26 0.1-0.55-0.03-0.65-0.29c-0.1-0.26 0.03-0.55 0.29-0.64l18.79-7.14c0.19-0.07 0.4-0.02 0.54 0.12c0.14 0.15 0.18 0.36 0.1 0.54c-1.57 3.63-4.8 6.13-7.97 8.38c-0.68 0.48-1.37 0.96-2.06 1.44c0.07 0.39 0.08 0.78 0.02 1.15c-0.12 0.77-0.45 1.46-0.83 2.09l3.25-0.7c0.44-0.1 1.79-0.38 2.45 0.54c0.3 0.42 0.34 0.97 0.14 1.55c1.66 0.9 2.79 2.73 2.86 4.62c0.84-0.43 1.82-0.72 2.64-0.52c0.54 0.13 0.96 0.45 1.22 0.94c0.36 0.69 0.23 1.42 0.11 2.07c-0.07 0.38-0.13 0.73-0.11 1.05c0.11 1.33 1.66 2.12 4.6 2.37c3.62 0.31 7.13 1.21 10.45 2.67c1.47 0.65 2.2 1.56 2.06 2.56c-0.04 0.27-0.29 0.46-0.56 0.43c-0.27-0.04-0.46-0.29-0.43-0.56c0.1-0.73-1-1.3-1.47-1.51c-3.22-1.42-6.63-2.29-10.14-2.59c-1.3-0.11-5.27-0.45-5.51-3.29c-0.04-0.45 0.04-0.89 0.12-1.32c0.1-0.56 0.19-1.04-0.01-1.42c-0.13-0.24-0.31-0.38-0.57-0.44c-0.75-0.18-1.92 0.33-2.68 0.88c-0.17 0.12-0.38 0.12-0.56 0.02c-0.17-0.11-0.26-0.31-0.23-0.51c0.31-1.8-0.69-3.73-2.29-4.58c-1.44 1.94-4.11 2.81-6.41 2.08c-0.14-0.04-0.25-0.15-0.31-0.29c-0.06-0.14-0.05-0.29 0.02-0.42c1.14-2.17 3.91-3.32 6.25-2.63c0.07-0.22 0.08-0.44-0.03-0.59c-0.18-0.26-0.66-0.3-1.42-0.14l-4.45 0.96c-0.2 0.04-0.41-0.04-0.52-0.21c-0.11-0.17-0.11-0.39 0-0.56c0.56-0.81 1.19-1.72 1.35-2.71c0.02-0.11 0.03-0.23 0.03-0.35c-3.37 2.29-6.83 4.48-10.32 6.54c-0.66 0.39-1.68 0.65-2.38 0.31c-0.12-0.06-0.22-0.13-0.31-0.21zm12.42-8.22c-0.12-0.12-0.26-0.21-0.42-0.27c-0.47-0.19-1.05-0.1-1.6 0.02c-4.01 0.88-7.59 3.55-9.58 7.14c-0.1 0.19-0.2 0.38-0.18 0.5c0.01 0.09 0.04 0.12 0.1 0.14c0.29 0.14 0.96 0.01 1.44-0.27c3.59-2.12 7.15-4.38 10.6-6.74c-0.09-0.2-0.21-0.37-0.37-0.52zm5.1 6.06c-1.63-0.36-3.46 0.32-4.47 1.64c1.63 0.25 3.4-0.39 4.47-1.64z"/>
                </g>
                <path id="&lt;Path&gt;" class="s10" d="m734.03 1374.52l-20.87-18.9c-1.8-1.63-1.9-4.4-0.23-6.17c1.6-1.68 4.31-1.78 6.02-0.23l20.87 18.9c1.8 1.63 1.9 4.4 0.23 6.17v0c-1.6 1.68-4.31 1.78-6.02 0.23z"/>
                <path id="&lt;Path&gt;" class="s10" d="m727.89 1380.29l-20.87-18.9c-1.8-1.63-1.9-4.4-0.23-6.17c1.6-1.68 4.31-1.78 6.02-0.23l20.87 18.9c1.8 1.63 1.9 4.4 0.23 6.17c-1.6 1.68-4.31 1.78-6.02 0.23z"/>
                <path id="&lt;Path&gt;" class="s10" d="m720.92 1385.37l-20.61-18.67c-1.8-1.63-1.9-4.4-0.23-6.17c1.6-1.68 4.31-1.78 6.02-0.23l20.61 18.67c1.8 1.63 1.9 4.4 0.23 6.17c-1.6 1.68-4.31 1.78-6.02 0.23z"/>
                <path id="&lt;Path&gt;" class="s10" d="m713.08 1389.66l-17.16-15.55c-1.79-1.62-1.89-4.37-0.23-6.12l0.04-0.04c1.58-1.67 4.28-1.77 5.98-0.22l17.16 15.55c1.79 1.62 1.89 4.37 0.23 6.12l-0.04 0.04c-1.58 1.67-4.28 1.77-5.98 0.22z"/>
                <path id="&lt;Path&gt;" class="s10" d="m685.88 1335.2l-7.54 15.58c-99.33-8.95-145.68-23.06-139.06-42.34c15.27-44.4 64.13-35.48 146.6 26.76z"/>
            </g>
        </g>
    </g>
</svg>